<svg xmlns="http://www.w3.org/2000/svg" viewBox="0 0 500 500">
  <path d="M479.12 480.4c0 .14-103.12.26-230.3.26s-230.33-.12-230.33-.26 103.1-.26 230.33-.26 230.3.12 230.3.26" style="fill:#263238"/>
  <path d="M336.16 467.18a7.84 7.84 0 0 1 4.67-1.18 9.6 9.6 0 0 1-3.28 3.88 7.73 7.73 0 0 1-4.46 1 7.83 7.83 0 0 1 3.07-3.7" style="fill:#455a64"/>
  <path d="m338.73 467.2-.24.1c-.16.06-.38.17-.66.3a20 20 0 0 0-2.05 1.19 19 19 0 0 0-1.89 1.44c-.23.2-.41.36-.53.48s-.19.18-.18.19l.21-.16c.12-.12.31-.27.54-.47.47-.38 1.13-.89 1.9-1.41s1.5-.92 2-1.2l.64-.33Z" style="fill:#263238"/>
  <path d="M331.07 469.13a7.75 7.75 0 0 0-4.31-2.13 9.67 9.67 0 0 0 2.39 4.48 7.7 7.7 0 0 0 4.15 1.92 7.84 7.84 0 0 0-2.23-4.27" style="fill:#455a64"/>
  <path d="m328.56 468.61.22.15.57.43a19 19 0 0 1 1.76 1.6 18 18 0 0 1 1.54 1.8c.18.24.33.44.42.58l.14.23a1 1 0 0 1-.17-.21c-.1-.13-.25-.33-.44-.56a20 20 0 0 0-1.56-1.78 23 23 0 0 0-1.73-1.61l-.55-.45c-.13-.11-.21-.17-.2-.18" style="fill:#263238"/>
  <path d="M328.86 461.31a7.72 7.72 0 0 0-4.61-.93 9.4 9.4 0 0 0 3.39 3.63 7.53 7.53 0 0 0 4.4.76 7.62 7.62 0 0 0-3.18-3.46" style="fill:#455a64"/>
  <path d="m326.35 461.45.25.09a7 7 0 0 1 .65.26 21 21 0 0 1 2.06 1.06 17 17 0 0 1 1.91 1.31c.24.18.42.33.55.44l.18.18-.2-.15-.56-.42c-.48-.36-1.15-.82-1.92-1.29s-1.51-.82-2-1.07a9 9 0 0 0-.63-.29Z" style="fill:#263238"/>
  <path d="M330.22 454.69s-.24 4 .59 4.4 1.75.18 2.28.45.75.08 1.08-.56 1.63-1.36 1.15-2.42-3.71-2.72-3.71-2.72Zm-1.29-2.13s-3.23-2.37-4-1.89-1.1 1.37-1.6 1.67-.48.59-.13 1.21.26 2.11 1.41 2.28 4.3-1.65 4.3-1.65Z" style="fill:#8478dd"/>
  <path d="M331.6 453.89s3.43 2.07 4.17 1.53 1-1.46 1.45-1.81.43-.62 0-1.21-.44-2.08-1.6-2.15-4.15 2-4.15 2Z" style="fill:#8478dd"/>
  <path d="M331.58 452.36s3.51-1.93 3.41-2.85-.77-1.57-.83-2.16-.33-.68-1.05-.62-2-.66-2.66.31-.32 4.6-.32 4.6Zm-2.8 1.64s-3.51 1.93-3.41 2.84.77 1.58.83 2.16.33.69 1.05.63 2 .65 2.66-.32.33-4.59.33-4.59Z" style="fill:#8478dd"/>
  <path d="M330.21 451.69s-.1-4-1-4.34-1.75 0-2.3-.25-.76 0-1 .64-1.51 1.49-.94 2.51 3.94 2.4 3.94 2.4Z" style="fill:#8478dd"/>
  <path d="M328.65 452.54a1.84 1.84 0 1 1 .77 2.48 1.85 1.85 0 0 1-.77-2.48" style="fill:#8478dd"/>
  <path d="M330.76 452.93a16 16 0 0 1 1.62-1.09 14 14 0 0 1 1.63-1.08 5.5 5.5 0 0 1-1.5 1.28 5.3 5.3 0 0 1-1.75.89m-.82-3.5a5.2 5.2 0 0 1 .21 1.58 5 5 0 0 1 0 1.6 5.4 5.4 0 0 1-.2-1.58 5.6 5.6 0 0 1-.01-1.6m-4.42 1.13a13 13 0 0 1 2.06 1.08 15 15 0 0 1 2 1.2 9.5 9.5 0 0 1-2.12-1 9.8 9.8 0 0 1-1.94-1.28m1.12 4.65a6.5 6.5 0 0 1 1.36-.77 6.7 6.7 0 0 1 1.41-.68 3.8 3.8 0 0 1-1.3.89 4 4 0 0 1-1.47.56m3.57-1.07a7 7 0 0 1 .18 1.87 7.2 7.2 0 0 1-.07 1.88 7.2 7.2 0 0 1-.18-1.88 7 7 0 0 1 .07-1.87m.56-.54a5.7 5.7 0 0 1 1.54.61 5.3 5.3 0 0 1 1.44.82 5.8 5.8 0 0 1-1.54-.6 5.7 5.7 0 0 1-1.44-.83" style="fill:#263238"/>
  <path d="M329.34 453.05a.92.92 0 0 1 1.23-.38.9.9 0 0 1 .38 1.23.91.91 0 1 1-1.61-.85" style="fill:#fff"/>
  <path d="M350.19 480.49s.26-.69.67-1.8a26.4 26.4 0 0 0 1.6-9.08c0-1.19-.06-1.92 0-1.93a2 2 0 0 1 .09.51c0 .34.09.82.12 1.42a22.2 22.2 0 0 1-1.61 9.15c-.23.55-.43 1-.59 1.29a1.8 1.8 0 0 1-.28.44m-8.6-22.43c0 .05-.63.48-1.62 1.28a23.8 23.8 0 0 0-3.5 3.49 24 24 0 0 0-2.69 4.15c-.57 1.13-.85 1.87-.9 1.85a2.4 2.4 0 0 1 .15-.53c.11-.34.31-.83.57-1.41a20.55 20.55 0 0 1 6.24-7.71 14 14 0 0 1 1.26-.86 3 3 0 0 1 .49-.26" style="fill:#263238"/>
  <path d="M333.63 480.33a4.7 4.7 0 0 1-.07-.91c0-.69-.08-1.52-.13-2.48-.13-2.1-.37-5-.83-8.16s-1.06-6-1.54-8.06c-.23-.93-.42-1.74-.59-2.42a5.4 5.4 0 0 1-.19-.89 5 5 0 0 1 .3.86c.18.57.41 1.39.68 2.4a79 79 0 0 1 1.62 8.07 77 77 0 0 1 .75 8.19c0 1.05.05 1.9 0 2.49a6 6 0 0 1 0 .91" style="fill:#263238"/>
  <path d="M341.55 459.11s-.13 2.29.34 2.52 1 .11 1.31.26.43.05.62-.32.94-.78.66-1.39-2.13-1.56-2.13-1.56Zm-.74-1.23s-1.86-1.35-2.31-1.08-.63.78-.92 1-.27.34-.07.69.15 1.21.81 1.31a7 7 0 0 0 2.47-.94Z" style="fill:#8478dd"/>
  <path d="M342.34 458.65s2 1.19 2.4.87.56-.83.83-1 .25-.36 0-.7-.25-1.19-.92-1.23-2.38 1.16-2.38 1.16Z" style="fill:#8478dd"/>
  <path d="M342.33 457.77s2-1.11 2-1.64-.44-.9-.48-1.24-.19-.39-.6-.35-1.16-.38-1.53.18a7.1 7.1 0 0 0-.18 2.63Zm-1.6.92s-2 1.11-2 1.64.44.9.48 1.24.18.39.59.35 1.16.38 1.53-.18a6.9 6.9 0 0 0 .19-2.63Z" style="fill:#8478dd"/>
  <path d="M341.55 457.38s-.06-2.3-.56-2.49-1 0-1.32-.14-.43 0-.59.37-.87.85-.54 1.44 2.26 1.37 2.26 1.37Z" style="fill:#8478dd"/>
  <path d="M340.65 457.87a1.06 1.06 0 1 1 .44 1.43 1.06 1.06 0 0 1-.44-1.43" style="fill:#8478dd"/>
  <path d="M341.86 458.1a7 7 0 0 1 .93-.63 8 8 0 0 1 .94-.62 3.3 3.3 0 0 1-.86.74 3.4 3.4 0 0 1-1.01.51m-.47-2.01a6 6 0 0 1 .1 1.83 3.2 3.2 0 0 1-.12-.92 2.9 2.9 0 0 1 .02-.91m-2.54.64a8.4 8.4 0 0 1 1.19.62 8 8 0 0 1 1.14.7 5.6 5.6 0 0 1-1.21-.57 5 5 0 0 1-1.12-.75m.65 2.67a4.3 4.3 0 0 1 .78-.44 3.8 3.8 0 0 1 .81-.39 2.3 2.3 0 0 1-.75.51 2.1 2.1 0 0 1-.84.32m2.05-.61a5 5 0 0 1 .1 1.07 4.5 4.5 0 0 1 0 1.08 3.7 3.7 0 0 1-.1-1.07 4 4 0 0 1 0-1.08m.31-.31a3 3 0 0 1 .89.35 3.5 3.5 0 0 1 .83.47 3.1 3.1 0 0 1-.89-.34 3.4 3.4 0 0 1-.83-.48" style="fill:#263238"/>
  <path d="M341.05 458.17a.51.51 0 0 1 .7-.22.52.52 0 0 1 .22.7.52.52 0 0 1-.92-.48" style="fill:#fff"/>
  <path d="M353 468.81s-1.32 3.78-.63 4.4 1.62.65 2.06 1.05.7.28 1.19-.24 1.94-.86 1.77-2-2.83-3.64-2.83-3.64Zm-.66-2.4s-2.47-3.16-3.36-2.91-1.42 1-2 1.17-.63.43-.45 1.13-.33 2.09.73 2.57 4.59-.41 4.59-.41Z" style="fill:#8478dd"/>
  <path d="M354.54 468.42s2.73 2.93 3.6 2.61 1.33-1.14 1.89-1.34.58-.49.34-1.17.15-2.12-.95-2.5-4.54.81-4.54.81Z" style="fill:#8478dd"/>
  <path d="M354.64 467.2s3.91-.9 4.06-1.81-.32-1.72-.21-2.3-.13-.75-.84-.89-1.76-1.18-2.64-.42-1.57 4.33-1.57 4.33Zm-2.83.52s-3.9.9-4.06 1.81.32 1.72.21 2.31.13.74.84.88 1.76 1.19 2.64.43 1.57-4.33 1.57-4.33Z" style="fill:#8478dd"/>
  <path d="M353.81 466.16s1-3.89.25-4.44-1.67-.51-2.14-.87-.73-.23-1.17.34-1.86 1-1.59 2.15 3.13 3.38 3.13 3.38Z" style="fill:#8478dd"/>
  <path d="M352.08 466.31a1.84 1.84 0 1 1 .06 2.6 1.83 1.83 0 0 1-.06-2.6" style="fill:#8478dd"/>
  <path d="M354 467.27a13 13 0 0 1 1.85-.61 15 15 0 0 1 1.86-.59 5.4 5.4 0 0 1-1.78.82 5.6 5.6 0 0 1-1.93.38m.17-3.6a10.8 10.8 0 0 1-.71 3.12 10 10 0 0 1 .71-3.12m-4.57-.11a38 38 0 0 1 3.28 3.3 16 16 0 0 1-3.28-3.3m-.19 4.77a7.2 7.2 0 0 1 1.52-.37 6.8 6.8 0 0 1 1.54-.26 4.2 4.2 0 0 1-1.49.5 3.9 3.9 0 0 1-1.57.13m3.73-.05a7.8 7.8 0 0 1-.34 1.85 8.2 8.2 0 0 1-.58 1.79 14.3 14.3 0 0 1 .92-3.64m.68-.37a6 6 0 0 1 1.32 1 5.5 5.5 0 0 1 1.16 1.19 5.7 5.7 0 0 1-1.32-1 6 6 0 0 1-1.16-1.19" style="fill:#263238"/>
  <path d="M352.6 467a.91.91 0 1 1 0 1.28.89.89 0 0 1 0-1.28" style="fill:#fff"/>
  <path d="M374.61 453.21a5.17 5.17 0 0 1 2.68 3 9.06 9.06 0 0 1 .35 4.11 16 16 0 0 1-3.45 7.49c-2.24-2-2.76-5.38-2.91-7.13-.25-2.77 1-7.92 3.33-7.51m2.19 19.08a4.41 4.41 0 0 1 1.43-4.19 5.85 5.85 0 0 1 4.32-1.35 2.48 2.48 0 0 1 1.9.85 1.89 1.89 0 0 1 0 1.91 3.8 3.8 0 0 1-1.42 1.4c-1.95 1.22-4.05 2.05-6.26 1.38" style="fill:#455a64"/>
  <path d="M373.92 480.44a4 4 0 0 1 .08-.55c.07-.39.17-.89.27-1.48a15.6 15.6 0 0 1 1.53-4.74 9.55 9.55 0 0 1 3.4-3.61 6.5 6.5 0 0 1 1.39-.61 2.6 2.6 0 0 1 .4-.1h.14a8.76 8.76 0 0 0-5.16 4.44 16.6 16.6 0 0 0-1.56 4.66c-.14.62-.25 1.13-.33 1.47a2.6 2.6 0 0 1-.16.52m.08-23.22v.92c0 .6.06 1.47.1 2.53.07 2.14.12 5.1.11 8.36s-.1 6.22-.18 8.36c-.05 1.07-.09 1.93-.13 2.53v.93a1 1 0 0 1 0-.25v-.68c0-.63 0-1.49.06-2.54 0-2.13.11-5.09.12-8.35s0-6.21 0-8.35v-3.22a1 1 0 0 1-.08-.24" style="fill:#263238"/>
  <path d="M372.92 473.88a10.31 10.31 0 0 0-5.64-7.56 2.18 2.18 0 0 0-2.35 0 2.14 2.14 0 0 0-.17 2.34 8.81 8.81 0 0 0 8.1 5.48" style="fill:#455a64"/>
  <path d="M367.65 468.85a3 3 0 0 1 .47.21 4 4 0 0 1 .54.29 6 6 0 0 1 .69.43 7 7 0 0 1 .78.59 11 11 0 0 1 .84.75 12 12 0 0 1 1.58 2 11.6 11.6 0 0 1 1.05 2.37 8 8 0 0 1 .26 1.09 8 8 0 0 1 .14 1 8 8 0 0 1 0 .81 6 6 0 0 1 0 .61 3.3 3.3 0 0 1-.06.51s0-.74-.1-1.92c0-.29-.07-.61-.15-.95a10 10 0 0 0-.28-1.08 11.7 11.7 0 0 0-1-2.32 12 12 0 0 0-1.55-2c-.28-.28-.54-.54-.81-.76a9 9 0 0 0-.76-.6c-.99-.68-1.66-.99-1.64-1.03" style="fill:#263238"/>
  <path d="M98.33 448.13a6.3 6.3 0 0 1 3.8 3.06 11 11 0 0 1 1.25 4.82c.18 3.23-1.08 6.73-2.58 9.59-3.07-1.87-4.37-5.83-4.91-7.88-.85-3.24-.41-9.61 2.44-9.59m6.46 22.18a5.33 5.33 0 0 1 .84-5.27 7.06 7.06 0 0 1 4.86-2.48 3 3 0 0 1 2.43.63 2.28 2.28 0 0 1 .42 2.26 4.67 4.67 0 0 1-1.4 1.95c-2.06 1.84-4.4 3.25-7.15 2.91" style="fill:#455a64"/>
  <path d="M103 480.61a3.2 3.2 0 0 1 0-.67v-1.81a18.4 18.4 0 0 1 .86-5.94 11.4 11.4 0 0 1 3.3-5 8.5 8.5 0 0 1 1.52-1c.19-.1.35-.15.46-.2l.16-.05a12.7 12.7 0 0 0-2 1.39 11.8 11.8 0 0 0-3.19 4.92 20.3 20.3 0 0 0-.92 5.86c0 .77-.06 1.39-.09 1.82a3.7 3.7 0 0 1-.1.68" style="fill:#263238"/>
  <path d="M98.43 453s0 .09.08.28.11.48.18.81c.16.7.38 1.72.64 3 .51 2.53 1.17 6 1.82 9.91s1.14 7.41 1.47 10c.16 1.28.29 2.32.37 3 0 .34.06.62.08.83a.9.9 0 0 1 0 .29 1.2 1.2 0 0 1-.06-.28l-.12-.83c-.11-.74-.26-1.76-.44-3-.37-2.55-.9-6.07-1.54-10s-1.28-7.38-1.76-9.91c-.23-1.25-.42-2.27-.55-3-.06-.34-.11-.61-.15-.82a1 1 0 0 1-.02-.28" style="fill:#263238"/>
  <path d="M100.5 473a12.43 12.43 0 0 0-8.22-7.84c-1-.27-2.18-.35-2.8.43s-.25 2 .26 2.82a10.62 10.62 0 0 0 10.74 4.86" style="fill:#455a64"/>
  <path d="M93.22 468.12a2.3 2.3 0 0 1 .61.15 5 5 0 0 1 .7.23 10 10 0 0 1 .9.37 12 12 0 0 1 1 .54 13 13 0 0 1 1.15.74 13.4 13.4 0 0 1 2.29 2.1 13 13 0 0 1 1.72 2.59 13 13 0 0 1 .54 1.25 11 11 0 0 1 .36 1.13 9 9 0 0 1 .2 1 5 5 0 0 1 .11.72 3.3 3.3 0 0 1 0 .63s-.11-.89-.5-2.26c-.11-.34-.22-.72-.38-1.11a13 13 0 0 0-.55-1.22 14.4 14.4 0 0 0-1.7-2.54 15.4 15.4 0 0 0-2.25-2.08c-.38-.27-.75-.53-1.12-.74a10 10 0 0 0-1-.56c-1.23-.67-2.09-.9-2.08-.94" style="fill:#263238"/>
  <path d="M112.07 317.69c.55-.08 5.54 14.21 11.06 16.18s13.94 4.66 13.94 4.66l13.33 6 32.15 25.66 2.17 4c.45.44 10.71 6.14 10.71 6.14l-7.58 17.72-14-11.56-18.3-11.84s-6.38-15.8-6.32-16.84-10.59-6.55-10.59-6.55-10.64-5.26-11.7-5.59-10.33-6.57-10.33-6.57l-3.94-5.63-11.47-1.28-1.06-4.36 9.38.33-3.78-8 2.34-11.4 4.82.31Z" style="fill:#ae7461"/>
  <path style="fill:#ae7461" d="m162.56 379.16-1.36 3.81 1.12 2.93 3.73 2.49h4.03l4.28-2.66-4.28-3.52-2.3 3.02-2.53-.13-2.11-2.99.98-1.94z"/>
  <path d="M292.33 435.74c.53.92 42.39-6.63 62-13.41s24-8.78 26.6-13c4.19-6.78-1.33-14.56-1.33-14.56l-93.83-12.67.05 10.7s37.59 2.67 44.52 8.51c6.26 5.28-28.51 19.36-28.51 19.36l-16.06 5.65Z" style="fill:#6f4439"/>
  <path d="M295.23 371.34c16.23 1.58 42.11 7.83 57 11 15.77 3.4 27 10.87 28.54 13.74 3 5.61.19 8.83-2.7 10.93s-10.13 5.26-14.37 6.68c-30.54 10.21-60.42 16.55-99.85 21-36 4.09-34.19 10.49-68.69 16.8-8.43 1.54-33.8 9.42-33.8 9.42l-18.16-10.28c-.42 0 12.22-3.64 25.23-7.14 41-11 50.68-13.37 85.88-25.63 19.82-6.91 32.85-7.61 53.49-10.86 5.29-.83 19.47-3.48 22.44-7.38.9-1.18-.4-4.43-9.07-6.17-9.72-1.95-27.63-5-38.05-5.16" style="fill:#8e5444"/>
  <path d="M321.9 430.74a9 9 0 0 1-.09-1.43c0-1-.05-2.34-.08-4l.1.16c-3.46-1.45-8.54-3.63-14.18-6.07l-13.49-5.91-4.07-1.81-1.11-.51-.38-.18a6 6 0 0 1 1.56.5c1 .38 2.4 1 4.14 1.66 3.49 1.44 8.28 3.48 13.55 5.77 5.65 2.44 10.7 4.68 14.12 6.23l.11.05v.11c0 1.62-.05 2.94-.07 4a8 8 0 0 1-.11 1.43m21.86-5.21a9 9 0 0 1-.1-1.52c0-1.07-.05-2.47-.08-4.15l.11.16c-3.28-1.4-7.84-3.38-12.87-5.6l-12.74-5.68-3.85-1.74c-.9-.42-1.39-.67-1.39-.67a40.4 40.4 0 0 1 5.39 2.07c3.29 1.38 7.82 3.34 12.8 5.54s9.57 4.26 12.81 5.75l.11.05v.12c0 1.68-.07 3.08-.09 4.15a8 8 0 0 1-.1 1.52m24.24-8.07a9 9 0 0 1-.09-1.41c0-1 0-2.31-.07-3.93l.12.16c-3.95-1.11-10-2.85-16.74-4.82l-15.42-4.57-4.67-1.42-1.27-.39c-.29-.09-.43-.15-.43-.15a7 7 0 0 1 1.75.35c1.12.28 2.73.71 4.72 1.25 4 1.1 9.44 2.66 15.47 4.43 6.75 2 12.77 3.79 16.68 5h.12v.12c0 1.62-.06 2.93-.08 3.93a9 9 0 0 1-.09 1.45m-38.6-16.98a3.7 3.7 0 0 1-.07-.9q0-1-.06-2.58s0-.14.09-.16h1.93l2.3-.06 5.61-.1 14.22-.16c7.6-.05 14.49-.07 19.47-.05l5.9.05h1.6a2.4 2.4 0 0 1 .56.05 2 2 0 0 1-.56.06h-1.6l-5.9.12-19.47.2-14.21.08h-9.77s.16-.18-.07-.11h.12q0 1.61-.06 2.58a5.3 5.3 0 0 1-.03.98m-6.25-2.3a6 6 0 0 1-.11-1.11c0-.8-.08-1.84-.14-3.12v-.12h.13c3.88-.93 10.28-2.39 17.52-4 6-1.32 11.41-2.49 15.35-3.31l4.66-.95a13 13 0 0 1 1.73-.28 11 11 0 0 1-1.68.48l-4.61 1.09c-3.92.91-9.33 2.14-15.32 3.46-7.24 1.6-13.66 3-17.57 3.78l.12-.16v3.13a5.4 5.4 0 0 1-.08 1.11m-17.74-3.35a5.2 5.2 0 0 1-.11-1.11c0-.82-.09-1.86-.15-3.14v-.12h.12c3.47-1.05 9-2.72 15.2-4.72 5.3-1.71 10.08-3.34 13.54-4.52l4.09-1.4a10 10 0 0 1 1.52-.46 8.3 8.3 0 0 1-1.45.65c-.95.38-2.33.92-4 1.55-3.43 1.28-8.19 3-13.5 4.67-6.2 2-11.77 3.6-15.28 4.54l.12-.16v3.14a5.4 5.4 0 0 1-.1 1.08m-13.72-1.55a7 7 0 0 1-.15-1.22c-.06-.9-.13-2-.22-3.39v-.11l.1-.06c2.82-1.45 7-3.54 11.59-5.83 4.36-2.16 8.31-4.09 11.19-5.46l3.41-1.6a6 6 0 0 1 1.29-.52 7.5 7.5 0 0 1-1.2.7l-3.34 1.75c-2.83 1.46-6.76 3.43-11.12 5.59-4.62 2.29-8.79 4.32-11.66 5.69l.1-.17c0 1.37.05 2.5.06 3.4a6 6 0 0 1-.05 1.23" style="fill:#263238"/>
  <path d="M476.07 207.24c-1.79-8.24-9.33-15-18.05-16.28a11.9 11.9 0 0 0-.15-13 13.24 13.24 0 0 0-12.33-5.4 35.5 35.5 0 0 0 2.24-40.56c-7.85-12.29-24-19.23-38.83-16.7.27-10-12.54-17.92-22-13.64a22.59 22.59 0 0 0-11.09-20.26 25 25 0 0 0-23.94-.4 24.26 24.26 0 0 0-15-17.54 26.11 26.11 0 0 0-23.57 2.72 20.05 20.05 0 0 0-19.4-8.47c-7.44 1.15-13.87 6.88-15.59 13.88C263.25 71 249 83.47 248.15 97.85c-11.41-1.34-23.13 7.07-25 17.9L235 219.92c1.24 21.48 21.62 40.37 44.17 40.94 9.09 18.18 34.64 26.89 53.75 18.32 4.69 11.08 18.29 16.82 30.82 16.39s24.26-5.77 35.34-11.27a66.8 66.8 0 0 0 32 2.49c4.85-.82 9.76-2.26 13.41-5.4s5.7-8.33 3.88-12.68c9.63.14 19.08-5.69 22.89-14.13a23.13 23.13 0 0 0-5-25.57c7.5-4.44 11.59-13.54 9.81-21.77" style="fill:#455a64"/>
  <path d="M203.13 380s-85.69-17.33-98.2-25.83c-2.49-1.69-4.48-3.33-5.46-5.51-.35-.78-1-6.35-.33-8.41 4.52-14.09 48.64-22.94 48.64-22.94l11.07 8.4s-32.17 10-25.23 14.51 107.45 26.77 107.45 26.77Z" style="fill:#6f4439"/>
  <path d="M205.82 375.29s-88.38-17.54-100.89-26c-27.63-18.77 51.66-36.37 51.66-36.37l3.2 8.9s-33.11 9-26.17 13.51 107.45 26.77 107.45 26.77Z" style="fill:#8e5444"/>
  <path d="M180.84 375.29a7.2 7.2 0 0 1 0-1.49c0-1.05.07-2.41.12-4v-.11h.1c2.87-1.48 6.82-3.46 11.19-5.63s8.52-4.19 11.47-5.6l3.5-1.64a7.2 7.2 0 0 1 1.32-.54 7.6 7.6 0 0 1-1.23.72l-3.43 1.79c-2.9 1.5-6.94 3.53-11.4 5.74s-8.34 4.1-11.26 5.49l.11-.16c-.12 1.63-.22 3-.29 4a7.7 7.7 0 0 1-.2 1.43m-18.52-4.21a7.6 7.6 0 0 1-.09-1.31c0-.95 0-2.16-.08-3.65V366h.09c3.09-1.62 7.69-4 12.82-6.58 4.77-2.42 9.11-4.58 12.26-6.12l3.74-1.8a8.4 8.4 0 0 1 1.4-.6 8.3 8.3 0 0 1-1.31.78l-3.67 2c-3.1 1.62-7.41 3.83-12.18 6.25-5.14 2.6-9.76 4.9-12.9 6.43l.1-.16c0 1.49-.06 2.7-.08 3.65a6 6 0 0 1-.1 1.23M141.55 366a6.3 6.3 0 0 1-.2-1.4c-.09-1-.21-2.31-.35-3.89v-.11l.11-.06c3.12-1.6 7.59-3.85 12.58-6.32 4.79-2.38 9.15-4.5 12.32-6l3.75-1.77a7.6 7.6 0 0 1 1.41-.58 8.3 8.3 0 0 1-1.32.76l-3.68 1.92c-3.12 1.6-7.45 3.78-12.25 6.16-5 2.46-9.49 4.66-12.65 6.17l.1-.17c.07 1.58.14 2.89.19 3.89a8.6 8.6 0 0 1-.01 1.4m-17.7-4.75a8 8 0 0 1-.29-1.44c-.16-1-.36-2.37-.61-4v-.13l.12-.06c3.19-1.58 7.74-3.78 12.78-6.18s9.37-4.43 12.61-5.92l3.85-1.75a8.6 8.6 0 0 1 1.44-.57 9 9 0 0 1-1.35.76l-3.78 1.89c-3.2 1.57-7.63 3.72-12.54 6.06s-9.62 4.55-12.85 6l.1-.18c.18 1.62.33 3 .45 4a7.7 7.7 0 0 1 .07 1.52m-16.57-5.81a8 8 0 0 1-.18-1.33c-.08-1-.19-2.2-.33-3.71v-.12h.12c3.4-1.33 8.48-3.26 14.17-5.38 5.23-2 10-3.69 13.42-4.92l4.09-1.44a11 11 0 0 1 1.52-.46 8.3 8.3 0 0 1-1.45.65l-4 1.59c-3.41 1.33-8.14 3.12-13.37 5.07-5.68 2.12-10.8 4-14.23 5.21l.11-.17c.07 1.51.13 2.76.18 3.72a6 6 0 0 1-.05 1.29m-7.45-18.01c0-.14 7.32-.92 16.39-1.74s16.42-1.36 16.44-1.22-7.33.93-16.39 1.74-16.43 1.36-16.44 1.22" style="fill:#263238"/>
  <path d="M135 335.72a4.5 4.5 0 0 1-.23-1.12c-.12-.84-.26-1.88-.44-3.1l.17.16c-2.68-.17-6.42-.43-10.55-.76s-7.78-.64-10.46-.9l-3.16-.33a5.7 5.7 0 0 1-1.16-.19 4.7 4.7 0 0 1 1.17 0l3.18.17c2.68.16 6.39.42 10.48.75s7.86.64 10.53.9h.15v.14c.1 1.24.2 2.28.27 3.12a5.6 5.6 0 0 1 .05 1.16m4-2.15a4.4 4.4 0 0 1-.22-1.14c-.1-.74-.22-1.8-.36-3.11l.14.18c-1.76-.55-4-1.29-6.44-2.1-2.9-1-5.51-1.88-7.39-2.56a21.5 21.5 0 0 1-3-1.2 19 19 0 0 1 3.13.85c1.91.59 4.55 1.44 7.44 2.41 2.43.82 4.67 1.59 6.41 2.21l.13.05v.13c.09 1.3.15 2.37.18 3.12a4.6 4.6 0 0 1-.02 1.16m5.57-2.57a28 28 0 0 1-.59-4.25l.12.17c-1.38-.66-3-1.47-4.79-2.36-2.37-1.19-4.5-2.3-6-3.13a15 15 0 0 1-2.44-1.43 14 14 0 0 1 2.6 1.1c1.58.74 3.74 1.8 6.11 3 1.76.89 3.39 1.73 4.74 2.44l.11.06v.11a28 28 0 0 1 .14 4.29m6.33-2.39a26 26 0 0 1-.6-4.25l.1.17-3.62-2.34c-2-1.3-3.76-2.5-5-3.39a12.6 12.6 0 0 1-2-1.54 12.5 12.5 0 0 1 2.2 1.23c1.33.81 3.14 2 5.12 3.27l3.59 2.39.09.07v.1a27 27 0 0 1 .12 4.29" style="fill:#263238"/>
  <path d="M385.21 300.5v-58.15L298 184.62s9.43 1-9.61 4.47l77.1 64.26 4.29 47.35Z" style="opacity:.30000000000000004"/>
  <path style="fill:#6f4439" d="M187.11 303.3h3.09v20.59h-3.09z"/>
  <path d="M190.71 324.39h-4.1V302.8h4.1Zm-3.1-1h2.1V303.8h-2.1Z" style="fill:#8478dd"/>
  <path style="fill:#6f4439" d="M198.96 303.3h3.09v20.59h-3.09z"/>
  <path d="M202.55 324.39h-4.09V302.8h4.09Zm-3.09-1h2.09V303.8h-2.09Z" style="fill:#8478dd"/>
  <path style="fill:#8478dd" d="m378.1 239.25-88.53-50.16-131.82 64.14v74.13H378.1z"/>
  <path d="M165.52 249.34c.14 0 .26 15.2.26 34s-.12 34-.26 34-.26-15.2-.26-34 .11-34 .26-34m11.3-5.43c.14 0 .26 16.42.26 36.67s-.12 36.68-.26 36.68-.26-16.42-.26-36.68.11-36.67.26-36.67m9.88-4.77c.15 0 .26 17.49.26 39.06s-.11 39.06-.26 39.06-.26-17.48-.26-39.06.12-39.06.26-39.06m11.65-5.24c.15 0 .19 18.66.09 41.68s-.29 41.68-.44 41.68-.18-18.66-.08-41.68.29-41.69.43-41.68m10.65-5.43a.6.6 0 0 1 0 .23v12.78c0 8-.17 19.13-.37 31.39s-.39 23.32-.52 31.39c-.07 4-.12 7.22-.16 9.51 0 1.09 0 2-.05 2.59v.67a.7.7 0 0 1 0 .23.6.6 0 0 1 0-.23v-12.77c0-8 .17-19.14.37-31.4s.39-23.31.52-31.38c.07-4 .12-7.22.16-9.52v-3.26a.7.7 0 0 1 .05-.23m11.25-6.35a.6.6 0 0 1 0 .24v13.69c0 8.61-.18 20.51-.37 33.64s-.38 25-.52 33.64c-.06 4.27-.12 7.74-.16 10.19 0 1.17 0 2.1-.05 2.78v.72a.8.8 0 0 1 0 .24 1 1 0 0 1 0-.24v-13.69c0-8.61.18-20.51.37-33.65s.39-25 .52-33.63c.07-4.27.12-7.74.16-10.2 0-1.17 0-2.09.05-2.77v-.72a.8.8 0 0 1 0-.24m9.93-3.53V233c0 8.93-.19 21.26-.38 34.89s-.4 25.92-.53 34.88c-.07 4.44-.13 8-.17 10.58 0 1.21 0 2.17-.05 2.87v.75a.13.13 0 1 1-.06 0v-14.16c0-8.93.18-21.26.38-34.89s.39-25.92.53-34.88c.07-4.43.13-8 .16-10.58 0-1.21.05-2.17.06-2.87v-.75a.8.8 0 0 1 .06-.25m10.2-6.16c.15 0 .26 23.47.26 52.41s-.11 52.42-.26 52.42-.26-23.46-.26-52.42.12-52.41.26-52.41m9.89-4.22c.14 0 .26 24.41.26 54.52s-.12 54.53-.26 54.53-.26-24.41-.26-54.53.12-54.52.26-54.52m11.3-5.69c.14 0 .26 25.69.26 57.37s-.12 57.37-.26 57.37-.26-25.68-.26-57.37.12-57.37.26-57.37m9.89-4.2c.14 0 .26 26.63.26 59.47s-.12 59.47-.26 59.47-.26-26.62-.26-59.47.11-59.47.26-59.47m11.3-5.71c.14 0 .26 27.91.26 62.32s-.12 62.33-.26 62.33-.26-27.9-.26-62.33.11-62.32.26-62.32m9.89 0c.14 0 .26 27.91.26 62.32s-.12 62.33-.26 62.33-.26-27.9-.26-62.33.11-62.32.26-62.32m11.35 4.62c.14 0 .26 26.88.26 60s-.12 60-.26 60-.26-26.86-.26-60 .06-60 .26-60m9.83 5.63c.15 0 .27 25.61.27 57.2s-.12 57.2-.27 57.2-.26-25.6-.26-57.2.12-57.2.26-57.2m11.31 6.14c.14 0 .26 24.25.26 54.15s-.12 54.15-.26 54.15-.26-24.24-.26-54.15.12-54.15.26-54.15m9.86 7.13c.15 0 .26 22.64.26 50.57s-.11 50.56-.26 50.56-.26-22.63-.26-50.56.14-50.57.26-50.57m11.32 5.99c.15 0 .26 21.3.26 47.57s-.11 47.57-.26 47.57-.26-21.29-.26-47.57.12-47.57.26-47.57m9.89 5.39c.15 0 .26 20.09.26 44.87s-.11 44.88-.26 44.88-.26-20.09-.26-44.88.12-44.87.26-44.87m11.3 7.35c.15 0 .26 18.45.26 41.2s-.11 41.2-.26 41.2-.26-18.44-.26-41.2.12-41.2.26-41.2" style="fill:#263238"/>
  <path d="M206.54 256.82h1.21A13.18 13.18 0 0 1 220.93 270v31.79h-27.58V270a13.18 13.18 0 0 1 13.19-13.18" style="fill:#263238"/>
  <path d="M208.47 256.82h1.21A13.18 13.18 0 0 1 222.86 270v31.79h-27.57V270a13.18 13.18 0 0 1 13.18-13.18" style="fill:#455a64"/>
  <path style="fill:#8478dd" d="m212.76 282.7-1.61-.89-1.44 1.75V256h-2.73v9.28l-6.75-7.63-1.54 1.19 8.29 9.97.76 28.05-.76 7.06h2.73v-16.5z"/>
  <path style="fill:#8478dd" d="m204.18 288.96-12.77-.79v3.05H198l-.56 1.57h1.58l.79-1.57h25.79v-3.05zm8.92-13.93 12.78.79v-3.05h-6.6l.56-1.57h-1.57l-.79 1.57h-25.79v3.05z"/>
  <path d="M253.53 257.39h1.21a13.18 13.18 0 0 1 13.18 13.18v31.79h-27.57v-31.79a13.18 13.18 0 0 1 13.18-13.18" style="fill:#263238"/>
  <path d="M255.47 257.39h1.21a13.18 13.18 0 0 1 13.18 13.18v31.79h-27.58v-31.79a13.18 13.18 0 0 1 13.19-13.18" style="fill:#455a64"/>
  <path style="fill:#8478dd" d="m259.76 283.27-1.61-.89-1.45 1.75v-27.55h-2.72v9.27l-6.76-7.63-1.54 1.19 8.3 9.97.75 28.05-.75 7.07h2.72v-16.51z"/>
  <path style="fill:#8478dd" d="m250.8 289.53-12.99-.79v3.05h6.71l-.58 1.57h1.61l.8-1.57h26.24v-3.05zm9.08-13.93 12.99.8v-3.05h-6.71l.58-1.58h-1.61l-.8 1.58h-26.24v3.05z"/>
  <path d="M338.64 257.39h1.21A13.18 13.18 0 0 1 353 270.57v31.79h-27.54v-31.79a13.18 13.18 0 0 1 13.18-13.18" style="fill:#263238"/>
  <path d="M340.57 257.39h1.21A13.18 13.18 0 0 1 355 270.57v31.79h-27.61v-31.79a13.18 13.18 0 0 1 13.18-13.18" style="fill:#455a64"/>
  <path style="fill:#8478dd" d="m344.87 283.27-1.61-.89-1.45 1.75v-27.55h-2.72v9.27l-6.76-7.63-1.54 1.19 8.3 9.97.75 28.05-.75 7.07h2.72v-16.51z"/>
  <path style="fill:#8478dd" d="m335.91 289.53-13-.79v3.05h6.71l-.57 1.57h1.6l.81-1.57h26.24v-3.05zm9.07-13.93 13 .8v-3.05h-6.71l.57-1.58h-1.6l-.8 1.58H323.2v3.05z"/>
  <path d="M376.94 317.63c0 .14-49.45.26-110.43.26s-110.43-.12-110.43-.26 49.43-.26 110.43-.26 110.43.11 110.43.26" style="fill:#263238"/>
  <path d="M281.3 317.63c.49 0 7.58-2.75 7.58-2.75l44 2.38Z" style="opacity:.30000000000000004"/>
  <circle cx="289.02" cy="231.3" r="14.4" transform="rotate(-80.82 289.042 231.301)" style="fill:#263238"/>
  <ellipse cx="290.57" cy="231.3" rx="13.25" ry="13.85" style="fill:#455a64"/>
  <path style="fill:#8478dd" d="M287.61 216.12h2.82v30.35h-2.82z"/>
  <path transform="rotate(-90 289.025 232.485)" style="fill:#8478dd" d="M287.61 217.31h2.82v30.35h-2.82z"/>
  <path style="fill:#6f4439" d="M135.78 324.05h247.1v3.47h-247.1z"/>
  <path style="fill:#6f4439" d="M139.74 303.3h3.09v21.15h-3.09zm11.84 0h3.09v21.15h-3.09zm11.85 0h3.09v21.15h-3.09zm11.84 0h3.09v21.15h-3.09zm35.53 0h3.09v20.59h-3.09zm11.84 0h3.09v21.66h-3.09zm11.85 0h3.09v21.66h-3.09zm12.7 0h3.09v21.66h-3.09zm12.71 0h3.09v21.66h-3.09zm12.71 0h3.09v21.66h-3.09zm12.7 0h3.09v21.66h-3.09zm12.71 0h3.09v20.59h-3.09zm12.71 0h3.09v20.59h-3.09zm12.7 0h3.09v20.59h-3.09zm12.71 0h3.09v20.59h-3.09zm12.71 0h3.09v20.59h-3.09zm12.7 0h3.09v20.59h-3.09zm12.71 0h3.09v21.33h-3.09zm-240.06-2.6h249.25v2.6H134.2zm120.71-95.86c7.75 9.92 16.41 20.5 29.19 23.74 12.28 3.12 24.91-2.58 32.79-12a55.8 55.8 0 0 0 9.71-18c1-3.06-3.8-4.37-4.83-1.33-3.45 10.25-9.7 20-19.74 24.73a24.65 24.65 0 0 1-15.6 2.05 33.16 33.16 0 0 1-14.18-7.32c-5.28-4.46-9.57-10-13.8-15.38a2.53 2.53 0 0 0-3.54 0 2.57 2.57 0 0 0 0 3.54Z"/>
  <path d="M129.38 271.65a12.42 12.42 0 0 1-22.84 4.93 12.43 12.43 0 0 1-21.13-10.37c-7.69 2.17-15.88 4.34-23.56 2.12s-14.11-10.71-11.13-18.13c-8.28 1.44-15.19-9-12.18-16.84s12.74-11.57 21-9.81a16.9 16.9 0 0 1-6.18-29.42A15.18 15.18 0 0 1 66 167.25a34 34 0 0 1 33.2-45.86c-4-7.14 3-17.49 11.14-16.42a21.57 21.57 0 0 1 32.49-21.35 22.41 22.41 0 0 1 36.7-2.76 27.28 27.28 0 0 1 43.1 4.78 30.77 30.77 0 0 1 32.6 12.43c12.21-4.68 26.75-3.74 37.54 3.65s17 21.44 13.92 34.15-16 22.66-29 21.2c2.78 6.24 5.64 12.9 4.72 19.68s-7.25 13.3-13.91 11.75c3.47 9.32-5.1 20.81-15 20.13a22.28 22.28 0 0 1-31.39 24.71c3.94 10.17-5.38 21.71-16.1 23.7s-21.52-2.88-30.69-8.79c-5.29 9.73-19.79 12.84-28.61 6.15a12.31 12.31 0 0 1-16.37 16.37" style="fill:#455a64"/>
  <path d="M290.11 341.67c2.13.18 26.47-3.69 27.23-3.47s23.59-19.8 24.8-19.45S361 326.6 361 326.6l-19.66 25-57.52 29.78Z" style="fill:#ae7461"/>
  <path d="M86.05 266.67c2.27 13.28 11.27 25.56 23.78 30.89 6.49 2.76 13.75 3.35 20.32.53 6-2.56 10.81-7.39 14.21-12.86 4.66-7.5 6.82-16.2 8.92-24.68a.62.62 0 0 0-1.2-.33c-3.27 13.15-7.23 28.13-19.82 35.42s-27.48.33-36.06-9.92a41.05 41.05 0 0 1-8.94-19.38c-.14-.79-1.34-.46-1.21.33" style="fill:#455a64"/>
  <path d="M104.57 287.41a8.94 8.94 0 0 0-1.26-5.8h-.27a6.87 6.87 0 0 0-3 5.48 9.9 9.9 0 0 0 1.86 5.87 9.86 9.86 0 0 0 2.67-5.55m11.43 5.21a8.86 8.86 0 0 0-4.72-3.59l-.22.16a6.86 6.86 0 0 0 1.27 6.13 9.92 9.92 0 0 0 5.23 3.25 9.8 9.8 0 0 0-1.56-5.95m-11.87 7.48a8.83 8.83 0 0 0 5-3.14l-.07-.26a6.82 6.82 0 0 0-6.17-1 9.84 9.84 0 0 0-4.9 3.74 9.78 9.78 0 0 0 6.14.66m19.25 4.12a8.9 8.9 0 0 0 2.28-5.48l-.21-.17a6.86 6.86 0 0 0-5.61 2.77 9.92 9.92 0 0 0-1.82 5.89 9.86 9.86 0 0 0 5.36-3.01m6.92-14.52a8.88 8.88 0 0 0-5.9-.69l-.1.25a6.86 6.86 0 0 0 4.2 4.63 9.9 9.9 0 0 0 6.16.14 9.8 9.8 0 0 0-4.36-4.33m15.61 1.53a8.94 8.94 0 0 0-2.54-5.37l-.27.05a6.82 6.82 0 0 0-1.7 6 9.92 9.92 0 0 0 3.15 5.3 9.87 9.87 0 0 0 1.36-5.98" style="fill:#455a64"/>
  <path d="m182.88 284.9 1.39-4.61-1.39-8.52s-1.61-12.21-4.14-13.83-12.22-3.68-12.22-3.68-5.06 2.3-8.06 2.07-11.78-1.61-11.78-1.61-3.2-3.92-2.27-6.68-.23-6.45-2.31-8.76-1.38-7.6-3.45-11.29-5.3-10.14-5.3-10.14l-7.15 2.54s3.46 5.3 4.84 7.14 0 4.84 1.85 8.53l4.37 8.75-3 6.22s-7.14-2.53-9.45-4.84-5.53-12-5.53-12l-11.75-8.52s-7.37 4.84-6.45 4.84 7.14 1.84 9 3.45 5.53 8.3 5.53 10.14 2.07 5.07 2.07 6 6.22 4.61 7.37 5.76 8.28 1.84 9 1.84 1.63 2.08 1.63 2.77 5.53 4.15 7.6 4.15 11.52-3.23 15.9-3.23 7.37 5.76 8.76 6 3.22 5.07 3 6.22-1.61 7.6-2.3 9.45-2.77 12.9-3.23 14.74.92 6.92 3 12.21 15.44 19.13 15.44 20.28h43.06Z" style="fill:#ae7461"/>
  <path d="M417.52 213c-6.53-4.21-14.46-5.52-22.13-6.74l-93.91-9.5a17.45 17.45 0 0 0 17.41 23.88 5.17 5.17 0 0 0 .22 5.14 12.1 12.1 0 0 0 3.84 3.73 39.87 39.87 0 0 0 23.62 6.86 18.76 18.76 0 0 0 17.05 9.25c3.09-.18 6.34-1.13 9.19.08 1.77.75 3.1 2.23 4.63 3.4 3.91 3 9.05 4.19 14 4.24 5.92.06 10.41-.82 15.41-3.58a20.38 20.38 0 0 0 10.27-13.85 12.26 12.26 0 0 0 11.52-7.63c3.01-7.14-4.58-11.05-11.12-15.28" style="opacity:.30000000000000004"/>
  <path style="fill:#8478dd" d="m265.12 28.55-43.01 48.39v74.47h85.72V77.98z"/>
  <path style="fill:#8478dd" d="m265.08 16.41-55.32 60.92 6.75 5.93 48.61-54.71 48.29 55.88 6.7-5.39z"/>
  <path style="opacity:.30000000000000004" d="M222.11 76.94v5.18l42.86-48.33 42.86 49.59v-5.4l-42.71-49.43z"/>
  <path d="M222.22 76.78a19 19 0 0 1-3.49-2.73 19 19 0 0 1-3.15-3.12 18.8 18.8 0 0 1 3.49 2.73 19.2 19.2 0 0 1 3.15 3.12m7.66-8.55a18.8 18.8 0 0 1-3.49-2.73 19.7 19.7 0 0 1-3.15-3.12 18.6 18.6 0 0 1 3.5 2.73 18.8 18.8 0 0 1 3.14 3.12m7.93-8.83a19.3 19.3 0 0 1-3.49-2.74 18.7 18.7 0 0 1-3.15-3.12 19.5 19.5 0 0 1 3.49 2.73 19 19 0 0 1 3.15 3.13m7.93-8.84a19 19 0 0 1-3.49-2.73 18.7 18.7 0 0 1-3.15-3.12 18.8 18.8 0 0 1 3.49 2.73 19.2 19.2 0 0 1 3.15 3.12m8.31-9.13a19 19 0 0 1-3.49-2.73 19 19 0 0 1-3.15-3.12 18.8 18.8 0 0 1 3.49 2.73 19.2 19.2 0 0 1 3.15 3.12m7.81-9.34a16 16 0 0 1-3.23-2.5 17 17 0 0 1-2.89-2.89 16 16 0 0 1 3.26 2.5 16.5 16.5 0 0 1 2.86 2.89m45.5 45.54a18.4 18.4 0 0 1 3.14-3.12 18.6 18.6 0 0 1 3.5-2.73 19.7 19.7 0 0 1-3.15 3.12 19.2 19.2 0 0 1-3.49 2.73m-7.71-9.12a17 17 0 0 1 3.05-2.88 17.3 17.3 0 0 1 3.38-2.49A17 17 0 0 1 303 66a17 17 0 0 1-3.35 2.51m-7.4-9.3a15.2 15.2 0 0 1 2.75-2.79 14.8 14.8 0 0 1 3.13-2.42 15 15 0 0 1-2.77 2.78 15.2 15.2 0 0 1-3.11 2.43m-7.92-8.84a15.2 15.2 0 0 1 2.81-2.83 15.2 15.2 0 0 1 3.16-2.43 16 16 0 0 1-2.82 2.83 15.6 15.6 0 0 1-3.15 2.43M276 41.24a18.4 18.4 0 0 1 3.14-3.12 19.2 19.2 0 0 1 3.49-2.73 18.8 18.8 0 0 1-3.14 3.12 19.7 19.7 0 0 1-3.49 2.73m-7.8-9.34a16.5 16.5 0 0 1 2.89-2.9 16.2 16.2 0 0 1 3.23-2.5 16 16 0 0 1-2.89 2.89 15.6 15.6 0 0 1-3.23 2.51" style="fill:#263238"/>
  <path d="M265.08 16.41a5.5 5.5 0 0 1 .05.84c0 .6 0 1.4.05 2.42 0 2.14.05 5.17.08 8.9v.07l-.05.05c-5.13 5.82-12.28 13.9-20.18 22.85L224.94 74l-6.13 6.78-1.69 1.83a7 7 0 0 1-.61.61 4.5 4.5 0 0 1 .53-.68l1.62-1.89 6-6.89c5.13-5.82 12.18-13.79 20-22.6l20.3-22.75v.12c0-3.73.06-6.76.08-8.9v-2.42a4 4 0 0 1 .04-.8" style="fill:#263238"/>
  <path d="M265.08 28.57c.11-.09 11 12.34 24.36 27.76s24.08 28 24 28.1-11-12.33-24.36-27.76-24.08-28-24-28.1m-31.61 35.29c.14 0 .26 16.8.26 37.51s-.12 37.51-.26 37.51-.27-16.79-.27-37.51.12-37.51.27-37.51m12.69-13.44c.14 0 .26 19.22.26 42.93s-.12 42.93-.26 42.93-.26-19.22-.26-42.93.1-42.93.26-42.93M262 32c.14 0 .26 24 .26 53.59s-.12 53.58-.26 53.58-.26-24-.26-53.58S261.83 32 262 32" style="fill:#263238"/>
  <path d="M276.75 42.06c.14 0 .26 24.13.26 53.89s-.12 53.9-.26 53.9-.26-24.13-.26-53.9.11-53.89.26-53.89m15.59 18.02c.15 0 .26 19.25.26 43s-.11 43-.26 43-.26-19.25-.26-43 .12-43 .26-43" style="fill:#263238"/>
  <ellipse cx="264.62" cy="91.99" rx="19.4" ry="19.01" style="fill:#263238"/>
  <ellipse cx="266.71" cy="91.99" rx="17.84" ry="18.28" style="fill:#455a64"/>
  <path style="fill:#8478dd" d="M262.31 71.55h3.8v40.06h-3.8z"/>
  <path transform="rotate(-90 264.62 91.99)" style="fill:#8478dd" d="M262.76 71.54h3.72v40.89h-3.72z"/>
  <path style="fill:#8478dd" d="m36.69 217.03.14-40.09 16.65-23.71h28.27l16.26 21.36-13.35 43.02z"/>
  <path style="fill:#8478dd" d="m53.48 153.23 21.02 25.2v38.78H36.69v-40z"/>
  <path transform="rotate(180 54.95 194.3)" style="fill:#455a64" d="M46.73 171.39h16.45v45.81H46.73z"/>
  <path style="fill:#8478dd" d="M75.07 177.94h23.87l1.27-4.1L82.82 151H51.93z"/>
  <path style="fill:#8478dd" d="m51.93 153.75-.08-2.85 22.65 27.4-1.29 1.28z"/>
  <path style="fill:#8478dd" d="M73.21 179.58h25.2l.53-1.64-24.21.12zM51.85 150.9l-18.12 25.2 1.2 1.11 17-23.46z"/>
  <path d="M36.69 177.21h-1.76l17-23.46 8.56.4c.2 0 1.95 7.26 1.95 7.26Z" style="fill:#8478dd"/>
  <g style="opacity:.30000000000000004">
    <path d="m51.93 153.75-.08-2.85 22.65 27.4-1.29 1.28z"/>
    <path d="M73.21 179.58h25.2l.53-1.64-24.21.12zM51.85 150.9l-18.12 25.2 1.2 1.11 17-23.46z"/>
  </g>
  <path d="M53.09 155.15c.11.09-3.46 5.1-8 11.19s-8.29 11-8.41 10.87 3.46-5.09 8-11.18 8.32-10.96 8.41-10.88M59 151.2a7.4 7.4 0 0 1 .93 1c.58.64 1.4 1.57 2.4 2.73 2 2.32 4.73 5.56 7.66 9.21s5.53 7 7.37 9.45c.92 1.22 1.66 2.22 2.15 2.92a6.3 6.3 0 0 1 .73 1.12 6.7 6.7 0 0 1-.89-1l-2.28-2.83-7.48-9.35-7.59-9.34-2.27-2.83a5.8 5.8 0 0 1-.73-1.08m8.09.08a6 6 0 0 1 .93.95c.58.63 1.4 1.56 2.4 2.72 2 2.32 4.73 5.57 7.66 9.21s5.53 7 7.37 9.45c.92 1.23 1.65 2.23 2.15 2.93a6 6 0 0 1 .73 1.12 7.3 7.3 0 0 1-.89-1l-2.28-2.82-7.48-9.35-7.54-9.3-2.27-2.83a6.7 6.7 0 0 1-.78-1.08m8.1.07a6.3 6.3 0 0 1 .94 1c.58.63 1.4 1.56 2.4 2.72 2 2.32 4.73 5.57 7.66 9.22s5.53 7 7.37 9.44c.92 1.23 1.65 2.23 2.15 2.93a6.3 6.3 0 0 1 .73 1.12 6 6 0 0 1-.89-1l-2.28-2.82-7.48-9.35-7.54-9.3-2.25-2.88a7.7 7.7 0 0 1-.81-1.08" style="fill:#263238"/>
  <path d="M79.83 166.18a14.2 14.2 0 0 1 3.79-.26 14.3 14.3 0 0 1 3.8.26 13.8 13.8 0 0 1-3.8.26 13.8 13.8 0 0 1-3.79-.26m-17.31-11.03a14.3 14.3 0 0 1 3.8-.26 14.3 14.3 0 0 1 3.8.26 13.8 13.8 0 0 1-3.8.26 13.8 13.8 0 0 1-3.8-.26" style="fill:#263238"/>
  <path transform="rotate(180 47.335 194.215)" style="fill:#263238" d="M46.73 171.39h1.22v45.64h-1.22z"/>
  <path d="M75.28 217.17c-.15 0-.3-8.44-.35-18.85s0-18.85.18-18.85.3 8.44.35 18.85-.04 18.85-.18 18.85m5.72 0c-.15 0-.3-8.44-.34-18.85s0-18.85.18-18.85.29 8.44.34 18.85-.01 18.85-.18 18.85m5.78-6.56c-.15 0-.3-7-.34-15.57s0-15.57.18-15.57.29 7 .34 15.57-.04 15.57-.18 15.57" style="fill:#263238"/>
  <path transform="rotate(180 63.175 197.68)" style="fill:#6f4439" d="M17.23 196.13h91.88v3.09H17.23z"/>
  <path style="fill:#6f4439" d="m79.92 234.87-3.41 2.52-12.45-15.13h5.33zm-34.2-2.53-3.41 2.52-12.45-15.13h5.34z"/>
  <path transform="rotate(180 63.175 219.735)" style="fill:#6f4439" d="M17.23 217.2h91.88v5.06H17.23z"/>
  <path transform="rotate(180 69.47 208.215)" style="fill:#6f4439" d="M68.5 199.23h1.93v17.98H68.5z"/>
  <path transform="rotate(180 76.88 208.215)" style="fill:#6f4439" d="M75.92 199.23h1.93v17.98h-1.93z"/>
  <path transform="rotate(180 84.295 208.215)" style="fill:#6f4439" d="M83.33 199.23h1.93v17.98h-1.93z"/>
  <path transform="rotate(180 91.705 208.215)" style="fill:#6f4439" d="M90.74 199.23h1.93v17.98h-1.93z"/>
  <path transform="rotate(180 99.12 208.215)" style="fill:#6f4439" d="M98.16 199.23h1.93v17.98h-1.93z"/>
  <path transform="rotate(180 62.65 208.215)" style="fill:#6f4439" d="M61.68 199.23h1.93v17.98h-1.93z"/>
  <path transform="rotate(180 55.83 208.215)" style="fill:#6f4439" d="M54.86 199.23h1.93v17.98h-1.93z"/>
  <path transform="rotate(180 49.01 208.215)" style="fill:#6f4439" d="M48.04 199.23h1.93v17.98h-1.93z"/>
  <path transform="rotate(180 42.19 208.215)" style="fill:#6f4439" d="M41.22 199.23h1.93v17.98h-1.93z"/>
  <path transform="rotate(180 35.37 208.215)" style="fill:#6f4439" d="M34.4 199.23h1.93v17.98H34.4z"/>
  <path transform="rotate(180 28.55 208.215)" style="fill:#6f4439" d="M27.58 199.23h1.93v17.98h-1.93z"/>
  <path transform="rotate(180 21.43 208.215)" style="fill:#6f4439" d="M20.47 199.23h1.93v17.98h-1.93z"/>
  <path d="M108.29 199.08c0 .14-20.22.26-45.16.26S18 199.22 18 199.08s20.22-.26 45.17-.26 45.12.12 45.12.26" style="fill:#263238"/>
  <path style="fill:#8478dd" d="m170.44 118.74-25.52 30.6v47.09h50.87V150z"/>
  <path style="fill:#8478dd" d="m170.42 111.06-32.83 38.53 4 3.74 28.85-34.59 28.67 35.33 3.97-3.4z"/>
  <path style="opacity:.30000000000000004" d="M144.92 149.34v3.27l25.44-30.56 25.43 31.36V150l-25.35-31.26z"/>
  <path d="M145 149.23c-.1.11-1.06-.63-2.15-1.66s-1.89-1.93-1.79-2a7.4 7.4 0 0 1 2.15 1.66c1.07.99 1.87 1.9 1.79 2m4.53-5.4a7.4 7.4 0 0 1-2.15-1.66c-1.09-1-1.89-1.93-1.79-2a7.4 7.4 0 0 1 2.15 1.66c1.09.98 1.89 1.9 1.79 2m4.71-5.59c-.1.11-1.06-.64-2.15-1.66s-1.89-1.93-1.79-2a7.4 7.4 0 0 1 2.14 1.66 7.5 7.5 0 0 1 1.8 2m4.7-5.58a7.4 7.4 0 0 1-2.15-1.66c-1.09-1-1.89-1.94-1.79-2s1.06.63 2.15 1.66 1.85 1.89 1.79 2m4.93-5.78c-.1.11-1.06-.64-2.15-1.66s-1.89-1.93-1.79-2a7.4 7.4 0 0 1 2.15 1.66c1.09.98 1.92 1.9 1.79 2m4.64-5.88c-.1.1-1-.58-2-1.52s-1.74-1.79-1.64-1.89 1 .57 2 1.51 1.74 1.77 1.64 1.9m27 28.77c-.1-.1.7-1 1.79-2a7.4 7.4 0 0 1 2.15-1.66c.1.11-.7 1-1.79 2s-2.05 1.77-2.15 1.66m-4.57-5.77c-.1-.11.68-1 1.73-1.89a6.7 6.7 0 0 1 2.08-1.51c.1.11-.68 1-1.73 1.89a6.8 6.8 0 0 1-2.08 1.51m-4.39-5.88c-.1-.1.6-.92 1.56-1.82s1.83-1.56 1.93-1.45-.61.92-1.57 1.83-1.82 1.55-1.92 1.44m-4.71-5.58c-.1-.11.62-.94 1.6-1.86s1.85-1.58 1.95-1.47-.62.93-1.6 1.85-1.85 1.58-1.95 1.48m-4.93-5.78c-.1-.1.7-1 1.79-2a7.4 7.4 0 0 1 2.15-1.66c.1.11-.7 1-1.79 2s-2.06 1.77-2.15 1.66m-4.64-5.9c-.09-.11.64-1 1.64-1.9s1.9-1.62 2-1.51-.63 1-1.63 1.89-1.91 1.66-2.01 1.52" style="fill:#263238"/>
  <path d="M170.42 111.06a1.8 1.8 0 0 1 .05.54c0 .41 0 .91.05 1.53 0 1.4 0 3.3.08 5.62v.12c-3 3.7-7.22 8.78-11.89 14.39s-8.9 10.63-12 14.26l-3.71 4.29-1 1.19c-.24.26-.37.39-.39.38a2.3 2.3 0 0 1 .31-.44l.94-1.21 3.55-4.39c3-3.7 7.22-8.78 11.88-14.37s8.92-10.65 12-14.28v.11c0-2.32.06-4.22.08-5.62 0-.62 0-1.12.05-1.53a1.8 1.8 0 0 1 0-.59" style="fill:#263238"/>
  <path d="M170.42 118.75c.11-.09 6.62 7.75 14.54 17.5s14.26 17.73 14.15 17.82-6.63-7.74-14.55-17.49-14.25-17.73-14.14-17.83m-18.76 22.32c.14 0 .26 10.62.26 23.72s-.12 23.71-.26 23.71-.26-10.61-.26-23.71.11-23.72.26-23.72m7.53-8.5c.14 0 .26 12.15.26 27.14s-.12 27.15-.26 27.15-.26-12.15-.26-27.15.12-27.14.26-27.14m9.38-11.65c.15 0 .27 15.17.27 33.88s-.12 33.88-.27 33.88-.26-15.17-.26-33.88.12-33.88.26-33.88" style="fill:#263238"/>
  <path d="M177.35 127.28c.14 0 .26 15.26.26 34.08s-.12 34.08-.26 34.08-.26-15.26-.26-34.08.11-34.08.26-34.08m9.25 11.4c.14 0 .26 12.17.26 27.18s-.12 27.19-.26 27.19-.26-12.17-.26-27.19.12-27.18.26-27.18" style="fill:#263238"/>
  <circle cx="169.44" cy="159.77" r="12.02" transform="rotate(-77.26 169.427 159.767)" style="fill:#263238"/>
  <ellipse cx="170.73" cy="159.77" rx="11.05" ry="11.56" style="fill:#455a64"/>
  <path style="fill:#8478dd" d="M168 146.84h2.35v25.33H168z"/>
  <path transform="rotate(-90 169.44 159.77)" style="fill:#8478dd" d="M168.26 147.1h2.35v25.33h-2.35z"/>
  <path d="M151.36 171.23a1.37 1.37 0 0 0-1.19 0 4.7 4.7 0 0 0-2.36 1.35 3.14 3.14 0 0 0-.68 2.31 4.21 4.21 0 0 0 4.27-2c.28-.59.41-1.31-.04-1.66" style="fill:#455a64"/>
  <path d="M139.67 166.15a1.83 1.83 0 0 0-.61 1.5 6.26 6.26 0 0 0 .65 3.65 4.33 4.33 0 0 0 2.65 1.94 5.76 5.76 0 0 0-.66-6.43c-.51-.59-1.38-1.09-2.03-.66m64.49 10a5.25 5.25 0 0 0-2.45-2c-3.26-1.28-6.24 1.2-8.14 3.8-1.34 1.84-2.47 4.27-1.48 6.32a5.87 5.87 0 0 0-3.43 2.24 35.3 35.3 0 0 0-15.31.19 3.8 3.8 0 0 1-1.79.15 3.86 3.86 0 0 1-1.56-1 27.9 27.9 0 0 0-22.13-7.11c-4.82.49-10.38 3.82-11.07 6.33 0 0 2.33 2 2 2.11-1.79.37 2.06-1.9 3.17-.45a9 9 0 0 0 2.78 2.13c5.72 3.29 11.57 6.52 18 8.15a52.8 52.8 0 0 0 17.15 1.14 39.9 39.9 0 0 0 14.55-3.45c4.51-2.2 8.46-5.88 10.15-10.61.91-2.6 1.13-5.53-.44-7.94" style="opacity:.30000000000000004"/>
  <path d="M173.14 206.14c0-13 9.84-14.45 16-12.42-.8-3.89 3.1-8 7-7.34-3.16-2.36-.7-7.49 2.05-10.33 3.67-3.8 9.51-4.18 14.32-2s6.88 6.41 7.59 11.64a19.92 19.92 0 0 1-4.33 14.79" style="fill:#455a64"/>
  <path d="M185.38 196.93c-1.38-4.29-5.74-7.59-10.24-7.23 1-6.33-4.37-12.35-10.57-14s-12.79 0-18.74 2.45c-6.06-5.61-13.71-10.11-22-10.17s-16.89 5.45-18.26 13.6a29.15 29.15 0 0 0-13.19 4.64 17.62 17.62 0 0 0-7.59 11.46c-.37 2.46-.17 5.18-1.62 7.2-1.08 1.5-2.86 2.3-4.37 3.37a13.28 13.28 0 0 0 7.85 24.13c1.72 7.7 10.32 13.1 18 11.32 8.16 3.56 16.11-1.35 17.31-5.18a14.37 14.37 0 0 0 21.71-8.43c5.91.73 12.12 1.16 17.64-1.09s10.07-7.94 9.11-13.82a18.3 18.3 0 0 0 11.94-5.66 13.25 13.25 0 0 0 3.02-12.59" style="fill:#455a64"/>
  <path d="M105.06 243.58a8.6 8.6 0 0 1 1.44.48 14.37 14.37 0 0 0 10.09-.78 13.3 13.3 0 0 0 3.16-1.9 7.4 7.4 0 0 0 2.38-3.06l.11-.32.28.18a14 14 0 0 0 3.23 1.52 14.55 14.55 0 0 0 8.83.06 14.37 14.37 0 0 0 6.11-3.94 15.3 15.3 0 0 0 2.71-4.15c.47-1.08.63-1.72.68-1.71a1.6 1.6 0 0 1-.08.48 13 13 0 0 1-.41 1.31 14.5 14.5 0 0 1-8.86 8.47 14.88 14.88 0 0 1-9.15 0 14 14 0 0 1-3.34-1.59l.38-.14a7.7 7.7 0 0 1-2.57 3.29 13.5 13.5 0 0 1-3.28 1.94 15 15 0 0 1-6.19 1.27 13.3 13.3 0 0 1-4.14-.73 10 10 0 0 1-1.38-.68" style="fill:#263238"/>
  <path d="M94.89 200.29a2 2 0 0 0 .71 1.64 7 7 0 0 0 3.4 2.35 4.74 4.74 0 0 0 3.59-.58 6.37 6.37 0 0 0-5.59-4.49c-.86-.06-1.93.23-2.11 1.08m9.03-6.52c-.43.1-.67.54-.84.95a5 5 0 0 0-.46 2.87 3.36 3.36 0 0 0 1.47 2.1 4.5 4.5 0 0 0 1.16-4.91c-.25-.57-.74-1.16-1.33-1.01m213.19-70c-3.16-5.6-10.84-7.87-16.8-5.45s-9.8 8.9-9.75 15.33a20.83 20.83 0 0 0-16.39 8.75 12.61 12.61 0 0 0-11.9-.81 17.68 17.68 0 0 0-15.52-7.69 26.09 26.09 0 0 0-35.58-10.08l14.44 25.93 38.53 9.66h22.19l16.53-9Z" style="opacity:.30000000000000004"/>
  <path d="M325.14 135.26c-.74-5.3-3.38-10.49-7.79-13.52s-10.66-3.56-15.11-.57-6.25 9.62-3.31 14.09a26.06 26.06 0 0 0-22.19 12.06 19.21 19.21 0 0 0-16.51-.15c-1.15-8-11.27-13.19-18.43-9.45-5.59-11.22-19.94-17.18-31.83-13.24l-7.29 2.52c-1.2 6.19-2.4 12.46-2 18.76s2.51 12.71 7.09 17.05c4.11 3.89 9.72 5.72 15.22 7.07 21.71 5.32 44.4 4.77 66.73 3.53 7.55-.43 15.49-1.05 21.79-5.23 5.87-3.89 9.52-10.4 11.73-17.08a34.94 34.94 0 0 0 1.9-15.84" style="fill:#455a64"/>
  <path d="M303.85 176.27c-1.4-4.77-6.37-7.59-11.18-8.81a33.76 33.76 0 0 0-22.93 2.35c-3.26 1.59-6.63 4.46-6.25 8.07l3 17.74a11.84 11.84 0 0 0 22.52-7 12.3 12.3 0 0 0 11.23-1.79 10.23 10.23 0 0 0 3.61-10.56" style="fill:#455a64"/>
  <path d="M305.48 179a7 7 0 0 1 .6-.6 14 14 0 0 0 1.61-1.82 14.8 14.8 0 0 0 1.84-3.36 16.5 16.5 0 0 0 1.05-4.95 15.35 15.35 0 0 0-.87-6 12.84 12.84 0 0 0-3.95-5.69 15.43 15.43 0 0 0-15.21-2.07 13.2 13.2 0 0 0-4.61 3.1l-.33.35-.11-.47a13.2 13.2 0 0 0-3.54-6.3 16.9 16.9 0 0 0-5.6-3.75 21.33 21.33 0 0 0-11.21-1.18 37 37 0 0 0-7.39 1.91c-.84.3-1.49.56-1.93.73a4 4 0 0 1-.67.24 5 5 0 0 1 .64-.33c.42-.2 1.06-.48 1.9-.82a34 34 0 0 1 7.4-2.07 21.43 21.43 0 0 1 11.44 1.1 17.4 17.4 0 0 1 5.78 3.82 13.65 13.65 0 0 1 3.68 6.46l-.44-.12a13.8 13.8 0 0 1 4.79-3.23 15.85 15.85 0 0 1 15.71 2.18 13.3 13.3 0 0 1 4.06 5.91 15.8 15.8 0 0 1 .83 6.2 16.7 16.7 0 0 1-1.15 5 14.3 14.3 0 0 1-1.95 3.38 11 11 0 0 1-1.7 1.77 4 4 0 0 1-.67.61" style="fill:#263238"/>
  <path style="fill:#8478dd" d="m431.45 185.76-.18-52.54-21.83-31.08H372.4l-21.31 28 17.33 55.84z"/>
  <path style="fill:#8478dd" d="m409.44 102.14-27.54 33.03v50.81h49.55v-52.41z"/>
  <path d="M381.9 186.89c-.14 0-.26-11.3-.26-25.24s.12-25.23.26-25.23.26 11.29.26 25.23-.11 25.24-.26 25.24m-7.96 0c-.14 0-.26-11.3-.26-25.24s.12-25.23.26-25.23.26 11.29.26 25.23-.12 25.24-.26 25.24m-7.94-8.77c-.14 0-.26-9.34-.26-20.85s.12-20.85.26-20.85.26 9.33.26 20.85-.14 20.85-.26 20.85m-8-24.78a11.6 11.6 0 0 1-.18-2.48c0-1.53-.08-3.65-.08-6s0-4.46.08-6a11.4 11.4 0 0 1 .18-2.47 11.4 11.4 0 0 1 .18 2.47c.05 1.53.08 3.65.08 6s0 4.45-.08 6a11.6 11.6 0 0 1-.18 2.48" style="fill:#263238"/>
  <path style="fill:#455a64" d="M396.74 125.95h21.55v60.04h-21.55z"/>
  <path style="fill:#8478dd" d="M381.15 134.52h-31.28l-1.67-5.38 22.79-29.93h40.49zm30.33-31.7.1-3.73L381.9 135l1.69 1.68z"/>
  <path style="fill:#8478dd" d="M383.59 136.68h-33.02l-.7-2.16 31.72.17zm27.99-37.59 23.75 33.02-1.57 1.46-22.28-30.75z"/>
  <path d="M431.45 133.57h2.31l-22.28-30.75s-11 .52-11.22.52-2.55 9.52-2.55 9.52Z" style="fill:#8478dd"/>
  <g style="opacity:.30000000000000004">
    <path d="m411.48 102.82.1-3.73L381.9 135l1.69 1.68z"/>
    <path d="M383.59 136.68h-33.02l-.7-2.16 31.72.17zm27.99-37.59 23.75 33.02-1.57 1.46-22.28-30.75z"/>
  </g>
  <path d="M410 104.66c.11-.08 5 6.32 11 14.3s10.65 14.52 10.54 14.61-5-6.32-11-14.3-10.7-14.52-10.54-14.61m-7.76-5.18a9.6 9.6 0 0 1-1.05 1.4l-3 3.69-9.9 12.18-9.78 12.25-3 3.71a10 10 0 0 1-1.14 1.33 13 13 0 0 1 1-1.45c.66-.91 1.63-2.22 2.84-3.82 2.42-3.21 5.83-7.59 9.67-12.37s7.41-9 10-12.08c1.31-1.53 2.38-2.76 3.13-3.59a13 13 0 0 1 1.23-1.25m-10.62.1a13 13 0 0 1-1.05 1.4c-.77.93-1.78 2.18-3 3.69l-9.9 12.17-9.79 12.27-3 3.72a13 13 0 0 1-1.14 1.32 11 11 0 0 1 1-1.44c.65-.92 1.62-2.22 2.83-3.82 2.43-3.21 5.83-7.59 9.68-12.37s7.4-9 10-12.09c1.3-1.52 2.37-2.75 3.12-3.59a11 11 0 0 1 1.25-1.26m-10.62.09a11 11 0 0 1-1.05 1.4c-.76.94-1.77 2.19-3 3.69L367 116.94l-9.78 12.27c-1.21 1.52-2.22 2.77-3 3.72a12 12 0 0 1-1.14 1.32 11 11 0 0 1 1-1.45c.66-.91 1.62-2.21 2.84-3.82 2.42-3.2 5.82-7.59 9.67-12.37s7.4-9 10-12.08c1.31-1.53 2.37-2.75 3.12-3.59a11 11 0 0 1 1.29-1.27" style="fill:#263238"/>
  <path d="M374.92 119.12a47.7 47.7 0 0 1-9.95 0 47.7 47.7 0 0 1 9.95 0m22.67-14.46a47.6 47.6 0 0 1-9.94 0 47.6 47.6 0 0 1 9.94 0m19.11 21.29h1.59v59.81h-1.59z" style="fill:#263238"/>
  <path style="fill:#6f4439" d="M360.35 158.37h120.42v4.05H360.35zm38.26 50.76 4.47 3.3 16.32-19.82h-6.99zm44.82-3.32 4.47 3.31 16.32-19.82h-6.99z"/>
  <path style="fill:#6f4439" d="M360.35 185.98h120.42v6.63H360.35zm50.7-23.56h2.53v23.56h-2.53zm-9.72 0h2.53v23.56h-2.53zm-9.71 0h2.53v23.56h-2.53zm-9.72 0h2.53v23.56h-2.53zm-9.71 0h2.53v23.56h-2.53zm47.8 0h2.53v23.56h-2.53zm8.93 0h2.53v23.56h-2.53zm8.94 0h2.53v23.56h-2.53zm8.94 0h2.53v23.56h-2.53zm8.94 0h2.53v23.56h-2.53zm8.94 0h2.53v23.56h-2.53zm9.32 0h2.53v23.56H474z"/>
  <path d="M433.76 133.57a.7.7 0 0 1-.12-.14l-.34-.42-1.3-1.67-4.62-6.34-16.1-22h.38l-12.35 15c-5.58 6.76-10.87 13.16-15.54 18.83l-.07.08h-.11l-23.85-.09-6.76-.07h-2.41a3.6 3.6 0 0 1 .61 0h1.8l6.76-.06 23.85-.1-.19.09 15.51-18.86 12.38-15 .2-.24.18.26L427.62 125c1.93 2.72 3.47 4.88 4.56 6.4l1.19 1.72.3.45c.07-.06.1 0 .09 0m45.78 28.92c0 .14-22.17.26-49.52.26s-49.52-.12-49.52-.26 22.17-.26 49.52-.26 49.52.12 49.52.26" style="fill:#263238"/>
  <path d="M378 152.46c-2.21-4-7.71-6-11.6-3.65a13 13 0 0 0-20.26-12 13.56 13.56 0 0 0-14.61-19.27l-9.41 5.77a16 16 0 0 0-7.93 10.09 26.15 26.15 0 0 0 .1 13.06 38.59 38.59 0 0 0 52 26.84c4.19-1.69 8.19-4.23 10.69-8s3.22-8.9 1.02-12.84" style="fill:#455a64"/>
  <path d="M408.32 177.41c-4.77-2.29-7.64-3-12.92-2.78-1-6-5.31-11.19-10.73-14s-11.78-3.4-17.82-2.56-9.51 2.54-14.57 5.93c-2.09 1.4-7.72 6.31-7.72 6.31s-6.87-1.79-10.45-2.26c-5.76-.76-10.56 1.25-15.16 4.8s-7.25 11.76-5.55 16.95l3 1.28a376 376 0 0 1 77.54 6c4.69.86 9.51 1.81 14.2.93s6.91-1.82 7.89-6.49c1.07-5.13-1.66-11.21-7.71-14.11" style="opacity:.30000000000000004"/>
  <path d="M366.25 149.86c-.05 0 .08-.72.06-2a13.9 13.9 0 0 0-1.2-5.35 12.9 12.9 0 0 0-5.4-6 13.54 13.54 0 0 0-9.84-1.4l-.28.06v-.28a19 19 0 0 0-.72-2.89 17.33 17.33 0 0 0-6.81-8.73 16.73 16.73 0 0 0-8.71-2.67 17.7 17.7 0 0 0-6.14.92c-1.4.48-2.13.88-2.15.83a2.5 2.5 0 0 1 .51-.31 11.4 11.4 0 0 1 1.57-.71 16.7 16.7 0 0 1 6.22-1.1 16.9 16.9 0 0 1 9 2.63 17.73 17.73 0 0 1 7 9 19 19 0 0 1 .74 3l-.32-.22a13.9 13.9 0 0 1 10.2 1.51 13.14 13.14 0 0 1 5.49 6.29 13.4 13.4 0 0 1 1.07 5.49 10 10 0 0 1-.13 1.51 2 2 0 0 1-.16.42" style="fill:#263238"/>
  <path d="M157.9 468.87c-1.38-2.65 11.66-5 11.66-5l2.77-3.62-11 .75-26.15-3.53a29.5 29.5 0 0 0-7 3.26c-2 1.44-2.63 4.79-2.63 7 0 2.63 3.74 5.52 7.29 7.15a79 79 0 0 0 14.85 5.32h16.17l36-1s-40.58-7.67-41.96-10.33" style="fill:#6f4439"/>
  <path d="M158.86 468.37c-1.38-2.64 12.06-6 12.06-6l5.1-6.7-15.3 5.44-26.72-4.32c-2.46.9-8.18 4.67-10.22 6.11v3.86c0 2.63 3.46 6 7.15 7.7a73 73 0 0 0 15.36 5.26l53.64-.55s-39.69-8.17-41.07-10.8" style="fill:#6f4439"/>
  <path d="M155.2 466.6c-1.38-2.6 2.8-4.6 6.15-5.6l-18.15-10.37a74.3 74.3 0 0 0-14.2 5.48c-2.21 1.17-6.84 5.73-4.7 9.25 1.74 2.88 4.61 4.6 8.08 6.36 7.52 3.81 22.76 7.44 31.49 8.45l39.55.06s-46.84-10.98-48.22-13.63" style="fill:#8e5444"/>
  <path d="M145.31 479.55a4 4 0 0 1-.07-.83c0-.63 0-1.41-.07-2.35v-.13h.14c3.49-.22 9.65-.52 16.66-.8 5.48-.22 10.44-.38 14-.47 1.8 0 3.25-.07 4.26-.07a8 8 0 0 1 1.56.07 10 10 0 0 1-1.55.14l-4.25.23L162 476c-7 .28-13.17.49-16.67.56l.13-.14c0 .94 0 1.72-.06 2.35a3.4 3.4 0 0 1-.09.78m-18.61-7.87a4 4 0 0 1 0-.92V468h.16c3-.14 7.69-.36 13-.54 4.56-.15 8.7-.21 11.69-.18 1.49 0 2.7 0 3.54.08a5.4 5.4 0 0 1 1.3.11 7.5 7.5 0 0 1-1.3.09l-3.54.08-11.65.36c-5.32.18-10.05.32-13 .34l.15-.15c-.08 1-.15 1.88-.2 2.57a3.2 3.2 0 0 1-.15.92m32.18-4.2a7 7 0 0 1-.39-1.27c-.23-.92-.52-2.1-.88-3.51l.18.14c-3.14-.61-7.32-1.58-12-2.66l-11.86-2.79-3.58-.89a6.3 6.3 0 0 1-1.3-.39 8 8 0 0 1 1.34.19c.86.16 2.1.41 3.63.73 3.05.64 7.25 1.57 11.89 2.64l6.61 1.55 2.86.68 1.3.31.61.14.29.07h.25v.14h.17l.72 3.55a5.7 5.7 0 0 1 .16 1.37M176 453.53a13.5 13.5 0 0 1-2.59-.93c-1.57-.64-3.73-1.56-6.1-2.6s-4.52-2-6.06-2.69l-1.82-.85-.49-.24c-.12-.06-.17-.09-.17-.1.08-.21 4 1.34 8.74 3.41 2.38 1 4.52 2 6.05 2.73a15 15 0 0 1 2.44 1.27m6.56-9.36a14.4 14.4 0 0 1-3.63-1.14c-1-.37-1.85-.74-2.48-1a5.7 5.7 0 0 1-1-.48c0-.23 1.72.26 3.67 1a13.6 13.6 0 0 1 3.44 1.62m-15.49 20.07a7 7 0 0 1-.15-1.43c0-1-.11-2.34-.18-3.9l.13.18c-2.61-.8-6.09-1.89-9.89-3.11a733 733 0 0 1-10.56-3.46l-3.18-1.11a5.8 5.8 0 0 1-1.14-.47 6 6 0 0 1 1.2.28l3.23.95c2.73.82 6.48 2 10.61 3.32 3.8 1.22 7.26 2.35 9.85 3.23h.14v4.04a7 7 0 0 1-.06 1.48m45.04-18.54c.07.12-.82.74-2.05 1.27a4.9 4.9 0 0 1-2.32.62c-.05-.14.92-.58 2.12-1.1a6.6 6.6 0 0 1 2.25-.79m-1.28-10.35a6 6 0 0 1-2.51.16 6.2 6.2 0 0 1-2.49-.36 12.2 12.2 0 0 1 5 .2" style="fill:#263238"/>
  <path style="fill:#6f4439" d="M223.14 378.51h34.3v11.78h-34.3z"/>
  <path style="fill:#8e5444" d="M257.44 389.15h-34.3v-11.77h5.54l.84.81.27-.81h27.65z"/>
  <path d="M256.93 383.35c0 .15-7.55.26-16.87.26s-16.87-.11-16.87-.26 7.56-.26 16.87-.26 16.87.12 16.87.26" style="fill:#6f4439"/>
  <path d="M235 386.6a.46.46 0 0 0 0 .23.3.3 0 0 0 .13.12.5.5 0 0 0 .19.05h.22v.2h-1.73v-.2h.19a.4.4 0 0 0 .16 0 .44.44 0 0 0 .22-.22.3.3 0 0 0 0-.15v-6.42a.28.28 0 0 0 0-.2.4.4 0 0 0-.13-.12h-.39v-.16l1.73-.08v.16h-.21a.4.4 0 0 0-.15 0 .4.4 0 0 0-.14.11.7.7 0 0 0-.1.14.4.4 0 0 0 0 .16v3.71h1.45l.08-3.83a2.4 2.4 0 0 0 0-.31.37.37 0 0 0-.08-.2.32.32 0 0 0-.17-.1 1.3 1.3 0 0 0-.31 0v-.16h1.7v.16h-.39a.3.3 0 0 0-.13.11.33.33 0 0 0-.05.21l-.12 6.7a.4.4 0 0 0 0 .16.6.6 0 0 0 .08.13.5.5 0 0 0 .13.09.4.4 0 0 0 .16 0h.19v.18h-1.73v-.18h.42a.33.33 0 0 0 .13-.13.4.4 0 0 0 .07-.22v-2.36H235Zm5.25-3.13v1.09a6 6 0 0 1-.1.58 1.7 1.7 0 0 1-.2.51 1.1 1.1 0 0 1-.34.36.94.94 0 0 1-.52.14.84.84 0 0 1-.47-.12 1 1 0 0 1-.32-.33 1.5 1.5 0 0 1-.2-.45 3 3 0 0 1-.11-.52 4 4 0 0 1-.05-.51v-.98a4 4 0 0 1 0-.61 4 4 0 0 1 .1-.6 2 2 0 0 1 .21-.53 1.1 1.1 0 0 1 .35-.37 1 1 0 0 1 .54-.14.85.85 0 0 1 .46.11.9.9 0 0 1 .31.3 1.7 1.7 0 0 1 .19.43 4 4 0 0 1 .1.53 5 5 0 0 1 0 .56c.05.19.05.38.05.55m-1.11-2.3a.35.35 0 0 0-.28.12.9.9 0 0 0-.19.31 2.7 2.7 0 0 0-.12.47 5 5 0 0 0-.06.56v2.55a2 2 0 0 0 .11.39.66.66 0 0 0 .17.27.34.34 0 0 0 .25.11.35.35 0 0 0 .26-.11.65.65 0 0 0 .18-.29 2.2 2.2 0 0 0 .11-.41v-2.49c0-.35 0-.57-.06-.8a1.6 1.6 0 0 0-.17-.54.34.34 0 0 0-.2-.14m3.61 4.77v-.29a3 3 0 0 1 0-.28 1.3 1.3 0 0 1-.33.37.7.7 0 0 1-.41.13.63.63 0 0 1-.41-.13 1 1 0 0 1-.28-.33 1.8 1.8 0 0 1-.16-.45 5 5 0 0 1-.09-.51v-2.86a.34.34 0 0 0-.06-.22.3.3 0 0 0-.15-.1h-.41V381h1.16v3.86a2.3 2.3 0 0 0 .09.41.8.8 0 0 0 .16.31.29.29 0 0 0 .25.12.34.34 0 0 0 .19-.08l.2-.2a1.34 1.34 0 0 0 .27-.53v-2.97a.32.32 0 0 0-.06-.22.3.3 0 0 0-.15-.1.7.7 0 0 0-.21 0h-.21v-.18h1.16v4a.4.4 0 0 0 .08.22.25.25 0 0 0 .19.13h.32v.23Zm3.42-2.69H246v-1.11a2 2 0 0 0 0-.32 1.4 1.4 0 0 0-.12-.31.7.7 0 0 0-.21-.24.44.44 0 0 0-.3-.1.41.41 0 0 0-.32.12 1.1 1.1 0 0 0-.19.31 1.7 1.7 0 0 0-.08.4v.39a2 2 0 0 0 .08.57 2.4 2.4 0 0 0 .22.45 2 2 0 0 0 .28.34 3 3 0 0 0 .28.26 4 4 0 0 1 .35.36 2 2 0 0 1 .23.37 1.7 1.7 0 0 1 .13.4 3 3 0 0 1 0 .44 1.7 1.7 0 0 1-.09.57 1.2 1.2 0 0 1-.23.45 1.1 1.1 0 0 1-.38.29 1.2 1.2 0 0 1-.52.1 1.2 1.2 0 0 1-.39-.06 1.2 1.2 0 0 1-.33-.2 1 1 0 0 1-.22-.3 1 1 0 0 1-.08-.4.8.8 0 0 1 .07-.34.8.8 0 0 1 .18-.27.9.9 0 0 1 .28-.17.9.9 0 0 1 .34-.06 1 1 0 0 1 .24 0v.19a.2.2 0 0 0-.11 0h-.09a.66.66 0 0 0-.49.19.64.64 0 0 0-.18.47.8.8 0 0 0 .05.3 1 1 0 0 0 .16.24.8.8 0 0 0 .24.17.8.8 0 0 0 .3.06.56.56 0 0 0 .36-.12.9.9 0 0 0 .22-.32 1.3 1.3 0 0 0 .12-.4 3 3 0 0 0 0-.4 1.6 1.6 0 0 0-.11-.6 1.4 1.4 0 0 0-.28-.43c-.14-.14-.29-.27-.43-.42a3 3 0 0 1-.4-.46 2.4 2.4 0 0 1-.29-.55 2 2 0 0 1-.11-.68 1.77 1.77 0 0 1 .29-1.09.93.93 0 0 1 .77-.37.85.85 0 0 1 .46.12.9.9 0 0 1 .32.35v-.79h.2Zm1.54.08h.39a.5.5 0 0 0 .23 0 .24.24 0 0 0 .1-.16 1.6 1.6 0 0 0 0-.36h.18v1.42h-.18v-.5a1 1 0 0 0 0-.1l-.07-.08a.12.12 0 0 0-.09 0h-.53l.06 2.11h.62a.6.6 0 0 0 .19-.06.8.8 0 0 0 .17-.13 1 1 0 0 0 .11-.18.4.4 0 0 0 0-.19v-.75h.19v1.48h-2.43v-.19h.24a.34.34 0 0 0 .18 0 .23.23 0 0 0 .12-.12.8.8 0 0 0 0-.25l-.08-3.4a.6.6 0 0 0 0-.26.28.28 0 0 0-.11-.15.4.4 0 0 0-.19-.05h-.27v-.18l2.46-.07v1.51h-.19v-.79a.7.7 0 0 0-.09-.36.33.33 0 0 0-.32-.15h-.7Z" style="fill:#ae7461"/>
  <circle cx="224.54" cy="378.75" r=".52" style="fill:#6f4439"/>
  <circle cx="224.54" cy="388.01" r=".52" style="fill:#6f4439"/>
  <circle cx="255.96" cy="378.75" r=".52" style="fill:#6f4439"/>
  <circle cx="255.96" cy="388.01" r=".52" style="fill:#6f4439"/>
  <path d="m290.79 351.88 1.9 6.75s-9.59 16.32-8.82 31.71 5 65 37.3 76.91l26.3 12.95c.13-.18-87.13.72-145 0-15.12-3.79-31.12-7.85-38.89-10.32 1.92 0 14.16-15.73 20.7-28.8s6.92-25.38 6.92-33.08-17.3-21.53-17.3-21.53l7-11.2s20.27 5 20.35 4.66c1.78-7.91-4.61-30.76-4.61-30.76l-23.14-33.44 17.43-20.14s28.19 37.25 40.47 34.79l-3-3h50.89l-3.49 25.42Z" style="fill:#ae7461"/>
  <path d="M293.37 385c-.29-.86 3.72-22.33 4.58-25.48s3.72-3.15 4.29-7.44 1.72-6.3 1.72-7.73 16.6-18.61 19.18-25.19 4.29-12.88 3.72-15.17-3.15-16-4-18.32-2.58-10.28-2.86-11.67 2-7.44 3.72-7.73 5.44-7.44 10.88-7.44 17.18 4 19.75 4 9.45-4.3 9.45-5.16.86-4.29 1.72-4.29 10 0 11.45-1.43 9.16-6 9.16-7.16 2.57-5.15 2.57-7.44 4.58-10.59 6.87-12.6 10-4.29 11.17-4.29-8-6-8-6L384.11 225s-4 12-6.87 14.88-11.73 6-11.73 6l-3.72-7.73 5.43-10.88c2.29-4.58.58-8.3 2.29-10.59s6-8.88 6-8.88l-8.88-3.14s-4 8-6.58 12.59-1.72 11.16-4.3 14-4 7.44-2.86 10.87-2.82 8.31-2.82 8.31-10.92 1.71-14.64 2-10-2.58-10-2.58-12 2.58-15.17 4.58-5.15 17.18-5.15 17.18l-1.72 10.59 1.72 5.73-8.59-6.59-6.47-7.73s-13.28-4.29-14.14-5.72-5.15-16-5.15-16l-12.9-32.48s-7.15 3-7.44 3.85S265 264.23 265 264.23s-.29 7.44 2.58 9.16 17.46 15.17 17.46 15.17l8.3 10.59 4 13.45-9.16 11.17-8.3 14.6-10.31 9.44-4.87 1.43-5.15 22.91 3.45 23.18 15.74 6.59Z" style="fill:#ae7461"/>
  <path d="M278.12 339.73a3.6 3.6 0 0 1-.6.83c-.41.51-1 1.23-1.83 2.08a21 21 0 0 1-3.09 2.74 37 37 0 0 1-4.31 2.62 12.3 12.3 0 0 0-2.14 1.37 7.2 7.2 0 0 0-1.52 1.77 13 13 0 0 0-1.48 3.73c-.53 2.25-.68 3.7-.77 3.68a3.5 3.5 0 0 1 0-1 26 26 0 0 1 .39-2.75 12.6 12.6 0 0 1 1.43-3.89 7.5 7.5 0 0 1 1.6-1.91 12.2 12.2 0 0 1 2.22-1.43 41 41 0 0 0 4.28-2.56 23 23 0 0 0 3.11-2.61c1.67-1.65 2.65-2.72 2.71-2.67M294 378.91a3.3 3.3 0 0 1 0-.56c.05-.41.11-.93.19-1.56.21-1.44.48-3.38.82-5.76s.8-5.33 1.27-8.52a9.76 9.76 0 0 1 1.78-4.83c1.15-1.42 2.76-2.41 3.6-4a14 14 0 0 0 1.33-5.17 18.4 18.4 0 0 1 1.63-4.87 10.5 10.5 0 0 1 1.3-2c.47-.61.93-1.2 1.39-1.76.91-1.12 1.77-2.15 2.57-3.08 1.59-1.87 2.91-3.35 3.83-4.37l1.07-1.16c.25-.26.39-.4.4-.38a2.3 2.3 0 0 1-.32.45c-.26.32-.59.73-1 1.22l-3.7 4.48c-.77.95-1.61 2-2.52 3.11-.44.57-.9 1.15-1.35 1.77a10 10 0 0 0-1.23 1.95 18.6 18.6 0 0 0-1.57 4.76 14.4 14.4 0 0 1-1.37 5.34c-.94 1.76-2.6 2.76-3.66 4.09a9.2 9.2 0 0 0-1.7 4.59l-1.39 8.5c-.4 2.36-.73 4.3-1 5.73-.11.62-.21 1.14-.29 1.55a2 2 0 0 1-.08.48m21.21-71.8c-.08 0 .14-1.3.27-3.37a12.7 12.7 0 0 0-.18-3.57 4.7 4.7 0 0 0-1.13-1.7l-1.52-1.76c-2-2.33-3.92-4.43-5.4-6.11a22 22 0 0 1-2.14-2.61 21.5 21.5 0 0 1 2.42 2.36c1.44 1.52 3.41 3.63 5.52 6l1.52 1.77c.23.29.47.57.69.88a2.7 2.7 0 0 1 .5 1 12.2 12.2 0 0 1 .09 3.73 25 25 0 0 1-.38 2.46 3 3 0 0 1-.26.92m-91.4 20.2s.14.08.39.29a12 12 0 0 1 1 1 18.3 18.3 0 0 1 2.87 4.27 41.4 41.4 0 0 1 2.61 7.15 77 77 0 0 0 2.84 8.8 89 89 0 0 0 4 8.34c1.38 2.5 2.56 4.79 3.73 6.58a12.3 12.3 0 0 0 3.46 3.63 19 19 0 0 0 1.66.84 1.8 1.8 0 0 1-.48-.1 7 7 0 0 1-1.28-.56 11.7 11.7 0 0 1-3.66-3.6c-1.24-1.8-2.45-4.07-3.85-6.56A85 85 0 0 1 233 349a72 72 0 0 1-2.81-8.87 43 43 0 0 0-2.48-7.12 20.3 20.3 0 0 0-2.69-4.29c-.74-.93-1.24-1.38-1.21-1.41m-25.43 67.22s-.15-.25-.06-.72a3.16 3.16 0 0 1 1.08-1.62c.59-.54 1.47-1.05 1.83-1.93s-.12-2-.34-3.24a22.4 22.4 0 0 1-.34-6.28 8.5 8.5 0 0 1 .48-2.56 24 24 0 0 1-.11 2.58 27.6 27.6 0 0 0 .48 6.16c.13.59.26 1.18.38 1.74a3.14 3.14 0 0 1-.11 1.77 3.2 3.2 0 0 1-1 1.25c-.37.31-.74.55-1 .79a3.2 3.2 0 0 0-1.12 1.39c-.17.41-.12.66-.17.67" style="fill:#263238"/>
  <path d="M423.66 204.57c-1.76-1.12-3.8-1.93-5.09-3.56-1.73-2.19-1.64-5.25-2.19-8a19.82 19.82 0 0 0-9.11-12.47 33 33 0 0 0-15.06-4.54c-2-9.08-11.93-14.82-21.2-14.33s-17.63 5.95-24.15 12.56c-6.8-2.39-14.3-4-21.17-1.77s-12.6 9.22-11.14 16.28c-5.07-.17-9.79 3.77-11.12 8.65s.46 10.34 4 14a20.6 20.6 0 0 0 13.7 5.74c-.78 6.65 4.62 12.81 10.94 15s13.26 1.44 19.86.31a16.15 16.15 0 0 0 24.81 8.34 8.63 8.63 0 0 0 11.11 4.75l8.6.18c8.71 1.6 18.09-4.92 19.63-13.64a14.94 14.94 0 0 0 7.57-27.51Zm-144.36-5.48a18.5 18.5 0 0 0-6.22-5.83 32.1 32.1 0 0 0-18.45-4.92 16 16 0 0 0-6.55 1.55 8.38 8.38 0 0 0-4.33 5 10.48 10.48 0 0 0-11.62 17.24c-2.47-1.14-5.45 1.38-5.53 4.09s1.94 5.09 4.28 6.46l-.33 3.86a12.48 12.48 0 0 0 18.38 3.7c3.14 1.88 6.88 3.2 10.45 2.37s6.62-4.47 5.75-8a8.15 8.15 0 0 0 8.61-12.84 6.62 6.62 0 0 0 6.66-4.39 9.68 9.68 0 0 0-1.1-8.29M339 390.73a8.92 8.92 0 0 0-5.73-1.55l-.14.23a6.84 6.84 0 0 0 3.48 5.2 9.9 9.9 0 0 0 6.07 1 9.78 9.78 0 0 0-3.68-4.88m-33.43-.96a8.86 8.86 0 0 0-4.68-3.64l-.22.15a6.82 6.82 0 0 0 1.19 6.14 9.9 9.9 0 0 0 5.19 3.32 9.84 9.84 0 0 0-1.48-5.97" style="fill:#455a64"/>
  <path d="M227.55 328.93c7.28 16.91 21.09 30.6 36.13 40.8s32.1 17.13 50.24 19.27a95 95 0 0 0 28.13-.51c8-1.46 15.28-4.89 22.45-8.58a65.7 65.7 0 0 0 17.25-12.72A110.2 110.2 0 0 0 397 347.46a236 236 0 0 0 12.05-23 228 228 0 0 0 9.26-22.64c.52-1.53 1-3.08 1.47-4.63a.63.63 0 0 0-1.21-.34 175 175 0 0 1-8 21.14c-3.47 7.92-7.26 15.71-11.47 23.27a123.6 123.6 0 0 1-13.37 19.64c-5 5.9-10.5 11.29-17.14 15.3a102 102 0 0 1-9.19 4.81 82 82 0 0 1-11.3 4.73c-8.73 2.63-18.06 3.11-27.11 2.6a106 106 0 0 1-26.25-4.68 116.2 116.2 0 0 1-24.44-11.21c-15.63-9.39-30.13-22.3-38.91-38.49q-1.5-2.78-2.75-5.68c-.31-.73-1.39-.1-1.08.63Z" style="fill:#455a64"/>
  <path d="M369.45 380a8.88 8.88 0 0 0-5.93 0l-.08.25a6.83 6.83 0 0 0 4.68 4.15 9.87 9.87 0 0 0 6.14-.53 9.87 9.87 0 0 0-4.81-3.87m-.82-10.59a8.93 8.93 0 0 0 1.74 5.68h.27a6.85 6.85 0 0 0 2.55-5.71 9.8 9.8 0 0 0-2.36-5.69 9.8 9.8 0 0 0-2.2 5.72m-24.48 11.46a8.9 8.9 0 0 0 .26 5.92l.26.07a6.87 6.87 0 0 0 3.91-4.88 9.92 9.92 0 0 0-.84-6.11 9.9 9.9 0 0 0-3.59 5m-25.77 2.07a8.9 8.9 0 0 0-2 5.57l.22.16a6.84 6.84 0 0 0 5.48-3 9.84 9.84 0 0 0 1.56-6 9.77 9.77 0 0 0-5.26 3.27m-36.04-2.02a8.83 8.83 0 0 0-4.68-3.64l-.22.15a6.85 6.85 0 0 0 1.19 6.14 9.88 9.88 0 0 0 5.2 3.32 9.85 9.85 0 0 0-1.49-5.97m10.31-3.92a8.84 8.84 0 0 0-2 5.57l.21.16a6.84 6.84 0 0 0 5.48-3 9.9 9.9 0 0 0 1.57-6 9.85 9.85 0 0 0-5.26 3.27m-29-6.67a8.9 8.9 0 0 0-3.86-4.51l-.24.11a6.85 6.85 0 0 0-.06 6.26 9.9 9.9 0 0 0 4.42 4.28 9.76 9.76 0 0 0-.26-6.14m8.18-3.33a8.85 8.85 0 0 0-3.69 4.64l.15.22a6.86 6.86 0 0 0 6.16-1.13 9.86 9.86 0 0 0 3.36-5.16 9.87 9.87 0 0 0-5.98 1.43m-26.08-11.81a8.9 8.9 0 0 0-3.86-4.51l-.25.11a6.91 6.91 0 0 0-.06 6.26 9.9 9.9 0 0 0 4.43 4.28 9.83 9.83 0 0 0-.26-6.14m8.18-.86a8.83 8.83 0 0 0-3.69 4.64l.15.22a6.83 6.83 0 0 0 6.15-1.12 9.88 9.88 0 0 0 3.37-5.16 9.86 9.86 0 0 0-5.98 1.42m-14.07-16.27a8.8 8.8 0 0 0-5.83 1.12v.26a6.8 6.8 0 0 0 5.4 3.15 9.9 9.9 0 0 0 5.92-1.72 9.78 9.78 0 0 0-5.49-2.81M233.3 328a8.9 8.9 0 0 0-5.92-.45l-.1.25a6.86 6.86 0 0 0 4.38 4.46 9.93 9.93 0 0 0 6.17-.1 9.9 9.9 0 0 0-4.53-4.16m155.25 37.66a8.82 8.82 0 0 0-5.93-.05l-.08.26a6.86 6.86 0 0 0 4.68 4.15 9.94 9.94 0 0 0 6.14-.53 9.76 9.76 0 0 0-4.81-3.83m-2.47-13.26a8.88 8.88 0 0 0 3 5.12l.26-.07a6.85 6.85 0 0 0 1.17-6.14 10 10 0 0 0-3.6-5 9.86 9.86 0 0 0-.83 6.09m16.83-6.9a8.85 8.85 0 0 0-5.78 1.34v.27a6.82 6.82 0 0 0 5.51 2.94 9.94 9.94 0 0 0 5.85-1.94 9.82 9.82 0 0 0-5.58-2.61m9.55-20a8.85 8.85 0 0 0-5.78 1.34v.26a6.83 6.83 0 0 0 5.51 2.95 9.92 9.92 0 0 0 5.85-1.94 9.82 9.82 0 0 0-5.58-2.61m-18.34 13.78a8.86 8.86 0 0 0 4.11 4.28l.23-.12a6.86 6.86 0 0 0-.28-6.25 10 10 0 0 0-4.67-4 9.85 9.85 0 0 0 .61 6.09m13.93-25.83a6.8 6.8 0 0 0 3.14 3.28l.18-.1a5.22 5.22 0 0 0-.22-4.77 7.57 7.57 0 0 0-3.56-3.08 7.46 7.46 0 0 0 .46 4.67M202.8 469.59a6.18 6.18 0 0 1 3.41-1.71 7.6 7.6 0 0 1-1.88 3.57 6.2 6.2 0 0 1-3.28 1.54 6.24 6.24 0 0 1 1.75-3.4" style="fill:#455a64"/>
  <path d="m204.79 469.17-.17.11-.45.35a15 15 0 0 0-1.39 1.28 15 15 0 0 0-1.22 1.43l-.33.47-.11.18a1 1 0 0 0 .13-.17c.09-.1.2-.26.35-.45.3-.38.72-.89 1.23-1.42s1-1 1.37-1.28l.44-.36Z" style="fill:#263238"/>
  <path d="M199.19 472a6.22 6.22 0 0 0-3.71-.92 7.6 7.6 0 0 0 2.62 3.07 6.17 6.17 0 0 0 3.54.78 6.2 6.2 0 0 0-2.45-2.93" style="fill:#455a64"/>
  <path d="m197.15 472 .19.07.52.24a14 14 0 0 1 1.64.94 13.5 13.5 0 0 1 1.5 1.13c.19.15.33.29.43.38s.15.15.14.15l-.16-.13-.44-.36a19 19 0 0 0-1.51-1.12 18 18 0 0 0-1.62-.94c-.21-.12-.39-.2-.51-.26Z" style="fill:#263238"/>
  <path d="M196.13 466.29a6.1 6.1 0 0 0-3.73.07 7.35 7.35 0 0 0 3.25 2.23 5.94 5.94 0 0 0 3.54-.16 6.1 6.1 0 0 0-3.06-2.14" style="fill:#455a64"/>
  <path d="M194.21 466.84h.21c.13 0 .32.05.55.09a15 15 0 0 1 1.78.47 14 14 0 0 1 1.7.68l.5.26.18.1s-.07 0-.19-.08l-.51-.23c-.43-.19-1-.44-1.71-.67s-1.31-.38-1.76-.48l-.55-.12Z" style="fill:#263238"/>
  <path d="M196.05 460.93s.5 3.14 1.21 3.31 1.39-.16 1.84-.05.6-.06.75-.61 1-1.33.47-2.07S197 460 197 460Zm-1.36-1.43s-2.92-1.28-3.45-.77-.61 1.24-1 1.56-.28.54.11 1 .56 1.59 1.48 1.53 3.05-2 3.05-2Z" style="fill:#8478dd"/>
  <path d="M197 460.07s3 1 3.5.47.5-1.3.81-1.65.23-.56-.19-.94-.7-1.54-1.61-1.39-2.87 2.27-2.87 2.27Z" style="fill:#8478dd"/>
  <path d="M196.7 458.89s2.39-2.1 2.16-2.79-.87-1.09-1-1.53-.37-.48-.91-.31-1.68-.16-2 .7.53 3.62.53 3.62Zm-1.89 1.72s-2.39 2.1-2.16 2.8.87 1.08 1 1.53.37.47.92.3 1.68.17 2-.7-.54-3.62-.54-3.62Z" style="fill:#8478dd"/>
  <path d="M195.53 458.6s-.77-3.09-1.49-3.2-1.37.28-1.83.21-.59.11-.69.67-.92 1.42-.3 2.11 3.46 1.18 3.46 1.18Z" style="fill:#8478dd"/>
  <path d="M194.47 459.53a1.46 1.46 0 0 1 2.81.77 1.47 1.47 0 0 1-1.8 1 1.45 1.45 0 0 1-1.01-1.77" style="fill:#8478dd"/>
  <path d="M196.17 459.47a11 11 0 0 1 1.06-1.12 12 12 0 0 1 1.08-1.12 4.1 4.1 0 0 1-.94 1.25 4.2 4.2 0 0 1-1.2.99m-1.24-2.57a4 4 0 0 1 .43 1.19 4.3 4.3 0 0 1 .25 1.25 4.5 4.5 0 0 1-.43-1.2 4.3 4.3 0 0 1-.25-1.24m-3.23 1.63a11 11 0 0 1 1.78.49 9.3 9.3 0 0 1 1.75.59 12.7 12.7 0 0 1-3.53-1.08m1.66 3.41a5.8 5.8 0 0 1 .93-.83 5.7 5.7 0 0 1 1-.76 3.2 3.2 0 0 1-.85.91 3 3 0 0 1-1.08.68m2.64-1.44a6.3 6.3 0 0 1 .45 1.42 5 5 0 0 1 .27 1.47 6 6 0 0 1-.45-1.42 6 6 0 0 1-.27-1.47m.29-.5a4.8 4.8 0 0 1 1.3.2 4.7 4.7 0 0 1 1.26.4 4.6 4.6 0 0 1-1.31-.21 4.4 4.4 0 0 1-1.25-.39" style="fill:#263238"/>
  <path d="M195.09 459.81a.72.72 0 1 1 .5.89.72.72 0 0 1-.5-.89" style="fill:#fff"/>
  <path d="M214.42 480.48s.09-.58.21-1.52a21 21 0 0 0 .17-3.66 23 23 0 0 0-.48-3.65 15 15 0 0 1-.34-1.49 2 2 0 0 1 .16.38c.09.25.21.62.33 1.08a17.6 17.6 0 0 1 .32 7.37 9 9 0 0 1-.24 1.1 1.4 1.4 0 0 1-.13.39m-8.98-18.89s-.41.48-1 1.27a18.7 18.7 0 0 0-2.11 3.31 19.3 19.3 0 0 0-1.37 3.67c-.25 1-.35 1.6-.38 1.6a1.4 1.4 0 0 1 0-.45c0-.28.1-.69.2-1.18a16 16 0 0 1 1.33-3.75 15.7 15.7 0 0 1 2.19-3.3 10 10 0 0 1 .83-.88 1.5 1.5 0 0 1 .31-.29M193.62 478s-.09-.43-.24-1.11a15.7 15.7 0 0 0-2-5 9 9 0 0 1-.59-1 4.5 4.5 0 0 1 .73.88 12 12 0 0 1 1.3 2.43 13 13 0 0 1 .74 2.66 3.8 3.8 0 0 1 .06 1.14" style="fill:#263238"/>
  <path d="M173.58 465.24a6.22 6.22 0 0 0-3.8-.46 7.74 7.74 0 0 0 3 2.73 6.2 6.2 0 0 0 3.61.34 6.23 6.23 0 0 0-2.81-2.61" style="fill:#455a64"/>
  <path d="m171.56 465.52.2.05c.13 0 .31.09.54.17a15 15 0 0 1 1.74.73 15 15 0 0 1 1.63.94c.2.13.36.25.47.33s.17.12.16.13l-.18-.11-.48-.31c-.4-.25-1-.59-1.63-.92s-1.27-.57-1.72-.74l-.54-.2Z" style="fill:#263238"/>
  <path d="M178.81 459.09a6.1 6.1 0 0 1 3.54-1.2 7.5 7.5 0 0 1-2.31 3.2 6 6 0 0 1-3.38 1.05 6.08 6.08 0 0 1 2.15-3.05" style="fill:#455a64"/>
  <path d="m180.8 459-.19.09-.48.27a15 15 0 0 0-1.52 1.05 16 16 0 0 0-1.37 1.22l-.39.41-.13.15s.06 0 .15-.13l.4-.39a18 18 0 0 1 1.38-1.21c.57-.44 1.11-.8 1.5-1.05l.48-.3a.6.6 0 0 0 .17-.11m4.12 3s-.58.31-1.49.83a21 21 0 0 0-3.34 2.37 21 21 0 0 0-2.79 3c-.63.83-1 1.39-1 1.37a2 2 0 0 1 .21-.41c.14-.26.37-.62.67-1.06a18 18 0 0 1 2.77-3.08 17.3 17.3 0 0 1 3.41-2.34c.47-.25.86-.43 1.13-.54a2 2 0 0 1 .43-.14m-8.28 2a1.8 1.8 0 0 1-.4-.34c-.25-.23-.61-.56-1.06-.95a29 29 0 0 0-3.79-2.76 29 29 0 0 0-4.2-2.07c-.56-.22-1-.39-1.33-.5a2 2 0 0 1-.49-.2 2.7 2.7 0 0 1 .51.12c.33.08.8.23 1.37.43a24.3 24.3 0 0 1 4.26 2 24 24 0 0 1 3.77 2.83c.45.41.79.76 1 1a2.6 2.6 0 0 1 .36.44" style="fill:#263238"/>
  <path d="M167.22 458.52s1.23 2.23 1.81 2.17 1-.5 1.37-.54.44-.21.4-.66.41-1.28-.21-1.69-2.92-.2-2.92-.2Zm-1.42-.71s-2.54-.17-2.8.36-.13 1.1-.3 1.44 0 .48.35.69.85 1 1.53.74 1.75-2.34 1.75-2.34Z" style="fill:#8478dd"/>
  <path d="M167.69 457.63s2.54-.05 2.76-.6 0-1.11.17-1.46 0-.48-.41-.66-.94-1-1.59-.61-1.54 2.49-1.54 2.49Z" style="fill:#8478dd"/>
  <path d="M167.16 456.81s1.23-2.23.86-2.69-1-.58-1.18-.88-.41-.25-.77 0-1.31.33-1.32 1.07 1.38 2.58 1.38 2.58Zm-.96 1.81s-1.23 2.23-.87 2.69.95.58 1.18.88.41.25.77 0 1.31-.33 1.33-1.07-1.38-2.58-1.38-2.58Z" style="fill:#8478dd"/>
  <path d="M166.19 456.91s-1.41-2.12-2-2-.95.57-1.32.64-.41.25-.34.7-.3 1.31.35 1.67 2.93-.05 2.93-.05Z" style="fill:#8478dd"/>
  <path d="M165.64 457.9a1.17 1.17 0 1 1 1.26 1.1 1.18 1.18 0 0 1-1.26-1.1" style="fill:#8478dd"/>
  <path d="M166.91 457.4a8 8 0 0 1 .5-1.14 9 9 0 0 1 .51-1.13 5.4 5.4 0 0 1-1 2.27Zm-1.63-1.61a2.9 2.9 0 0 1 .65.78 3.1 3.1 0 0 1 .52.87 3.3 3.3 0 0 1-.64-.78 3.7 3.7 0 0 1-.53-.87m-1.99 2.11a8 8 0 0 1 1.47-.12 9.6 9.6 0 0 1 1.48 0 6 6 0 0 1-1.47.18 6.3 6.3 0 0 1-1.48-.06m2.18 2.1a4 4 0 0 1 .47-.87 4 4 0 0 1 .53-.84 2.6 2.6 0 0 1-.4.92 2.5 2.5 0 0 1-.6.79m1.53-1.77a4.4 4.4 0 0 1 .73.94 5 5 0 0 1 .61 1 4.3 4.3 0 0 1-.73-.95 5.4 5.4 0 0 1-.61-.99m.14-.48a3.8 3.8 0 0 1 1-.2 4 4 0 0 1 1 0 3.8 3.8 0 0 1-1 .2 4 4 0 0 1-1 0" style="fill:#263238"/>
  <path d="M166.19 457.94a.57.57 0 0 1 .53-.62.58.58 0 1 1-.53.62" style="fill:#fff"/>
  <path d="M184.29 463.38s.88 1.6 1.3 1.55.72-.35 1-.38.32-.15.29-.48.3-.92-.15-1.21a5.6 5.6 0 0 0-2.09-.15Zm-1.01-.51s-1.83-.12-2 .25-.09.8-.22 1 0 .34.25.49.61.75 1.1.54 1.26-1.68 1.26-1.68Z" style="fill:#8478dd"/>
  <path d="M184.63 462.73s1.82 0 2-.42 0-.8.12-1.05 0-.35-.29-.47-.68-.7-1.14-.44-1.11 1.79-1.11 1.79Z" style="fill:#8478dd"/>
  <path d="M184.25 462.15s.88-1.6.62-1.93-.68-.42-.85-.63-.29-.18-.55 0-.94.23-.95.76 1 1.85 1 1.85Zm-.69 1.3s-.88 1.6-.62 1.93.68.41.84.63.3.18.56 0 .94-.23.95-.77-1-1.85-1-1.85Z" style="fill:#8478dd"/>
  <path d="M183.56 462.22s-1-1.52-1.43-1.43-.68.41-.95.46-.3.18-.24.5-.22.94.25 1.19a5.4 5.4 0 0 0 2.1 0Z" style="fill:#8478dd"/>
  <path d="M183.16 462.93a.85.85 0 0 1 .77-.9.84.84 0 1 1-.77.9" style="fill:#8478dd"/>
  <path d="M184.07 462.57a6 6 0 0 1 .36-.82 7 7 0 0 1 .37-.81 3 3 0 0 1-.27.86 2.4 2.4 0 0 1-.46.77m-1.17-1.15a2.1 2.1 0 0 1 .47.56 2.4 2.4 0 0 1 .37.62 2.4 2.4 0 0 1-.46-.56 2.6 2.6 0 0 1-.38-.62m-1.43 1.51a6.4 6.4 0 0 1 1.06-.09 6.3 6.3 0 0 1 1.06 0 3.8 3.8 0 0 1-1.05.13 4.5 4.5 0 0 1-1.07-.04m1.53 1.52a3 3 0 0 1 .33-.63 3 3 0 0 1 .38-.6 1.8 1.8 0 0 1-.28.66 1.9 1.9 0 0 1-.43.57m1.15-1.28a3 3 0 0 1 .53.68 3.7 3.7 0 0 1 .43.74 3.7 3.7 0 0 1-.53-.68 4.4 4.4 0 0 1-.43-.74m.09-.35a2.6 2.6 0 0 1 .74-.14 2.5 2.5 0 0 1 .76 0 2.4 2.4 0 0 1-.75.14 2.1 2.1 0 0 1-.75 0" style="fill:#263238"/>
  <path d="M183.55 463a.42.42 0 1 1 .45.38.41.41 0 0 1-.45-.38" style="fill:#fff"/>
  <path d="M178.22 455.27a6 6 0 0 1-.23.69c-.14.44-.35 1.08-.54 1.89a36 36 0 0 0-.84 6.44c-.13 2.49-.25 4.75-.35 6.51 0 .77-.09 1.42-.13 2a6 6 0 0 1-.07.72 4 4 0 0 1 0-.73v-2c.06-1.67.14-4 .29-6.52a31.7 31.7 0 0 1 .9-6.47 18 18 0 0 1 .62-1.88 3 3 0 0 1 .35-.65m24.87 24.95a3.5 3.5 0 0 1-.21-.69c-.15-.53-.33-1.17-.53-1.91-.45-1.6-1.14-3.8-2-6.18s-1.85-4.48-2.58-6c-.33-.69-.62-1.28-.86-1.77a7 7 0 0 1-.31-.66 3.4 3.4 0 0 1 .38.62c.24.4.56 1 .94 1.74a61.2 61.2 0 0 1 4.63 12.19c.2.81.36 1.47.45 1.93a5 5 0 0 1 .09.73" style="fill:#263238"/>
  <path d="M205.59 462.41s.29 1.8.7 1.9.79-.09 1.05 0 .35 0 .43-.35.59-.76.28-1.19a5.6 5.6 0 0 0-1.93-.84Zm-.78-.82s-1.68-.74-2-.45-.35.72-.55.9-.15.31.07.56.32.91.85.87 1.75-1.16 1.75-1.16Z" style="fill:#8478dd"/>
  <path d="M206.13 461.92s1.73.58 2 .27.29-.75.47-.95.13-.32-.11-.54-.4-.88-.93-.8-1.64 1.31-1.64 1.31Z" style="fill:#8478dd"/>
  <path d="M206 461.24s1.37-1.21 1.23-1.61-.5-.62-.58-.87-.21-.28-.53-.18-1-.09-1.15.4a5.5 5.5 0 0 0 .31 2.08Zm-1.12.99s-1.37 1.2-1.24 1.6.5.63.58.88.22.27.53.18 1 .09 1.15-.41a5.5 5.5 0 0 0-.3-2.07Z" style="fill:#8478dd"/>
  <path d="M205.29 461.07s-.44-1.77-.86-1.83-.78.16-1 .11-.34.07-.4.39-.53.81-.17 1.21a5.4 5.4 0 0 0 2 .68Z" style="fill:#8478dd"/>
  <path d="M204.68 461.61a.84.84 0 1 1 .59 1 .84.84 0 0 1-.59-1" style="fill:#8478dd"/>
  <path d="M205.66 461.57a7 7 0 0 1 .61-.64 6 6 0 0 1 .62-.64 2.4 2.4 0 0 1-.54.71 2.3 2.3 0 0 1-.69.57m-.66-1.48a2.6 2.6 0 0 1 .25.69 2.7 2.7 0 0 1 .14.72 2.6 2.6 0 0 1-.25-.69 2.3 2.3 0 0 1-.14-.72m-1.91.91a6.5 6.5 0 0 1 1 .28 6 6 0 0 1 1 .34 4.2 4.2 0 0 1-1-.23 4 4 0 0 1-1-.39m.96 2a4 4 0 0 1 .53-.48 2.7 2.7 0 0 1 .56-.43 2.1 2.1 0 0 1-.49.52 1.6 1.6 0 0 1-.6.39m1.48-.84a3.3 3.3 0 0 1 .26.82 3.2 3.2 0 0 1 .16.84 3 3 0 0 1-.26-.81 3.3 3.3 0 0 1-.16-.85m.2-.29a2.4 2.4 0 0 1 .74.12 2.5 2.5 0 0 1 .73.22 4.6 4.6 0 0 1-1.47-.34" style="fill:#263238"/>
  <path d="M205 461.77a.41.41 0 1 1 .29.51.42.42 0 0 1-.29-.51" style="fill:#fff"/>
  <path d="M190.39 471s.29 1.81.7 1.91.8-.1 1.06 0 .34 0 .42-.35.6-.77.28-1.19a5.5 5.5 0 0 0-1.92-.85Zm-.86-.87s-1.67-.73-2-.44-.35.71-.54.9-.16.31.06.55.32.91.85.87 1.75-1.15 1.75-1.15Z" style="fill:#8478dd"/>
  <path d="M190.85 470.46s1.73.59 2 .27.29-.74.46-1 .13-.32-.11-.54-.4-.88-.92-.8-1.65 1.31-1.65 1.31Z" style="fill:#8478dd"/>
  <path d="M190.69 469.78s1.37-1.2 1.24-1.6-.5-.62-.59-.88-.21-.27-.52-.18-1-.09-1.16.41a5.5 5.5 0 0 0 .31 2.07Zm-1.09.99s-1.37 1.21-1.24 1.61.5.62.59.87.21.28.52.18 1 .09 1.16-.4a5.5 5.5 0 0 0-.31-2.08Z" style="fill:#8478dd"/>
  <path d="M190.1 469.7s-.45-1.78-.86-1.84a4.7 4.7 0 0 0-1.05.12c-.31-.05-.34.06-.4.39s-.52.81-.17 1.21a5.6 5.6 0 0 0 2 .67Z" style="fill:#8478dd"/>
  <path d="M189.49 470.28a.83.83 0 0 1 1-.59.85.85 0 0 1 .59 1 .84.84 0 0 1-1 .59.82.82 0 0 1-.59-1" style="fill:#8478dd"/>
  <path d="M190.46 470.2s.28-.29.61-.65a6 6 0 0 1 .63-.64 2.7 2.7 0 0 1-.54.72 2.6 2.6 0 0 1-.7.57m-.71-1.48a2.5 2.5 0 0 1 .25.69 2.2 2.2 0 0 1 .14.71 2.5 2.5 0 0 1-.25-.68 2.7 2.7 0 0 1-.14-.72m-1.85.94a6.6 6.6 0 0 1 1 .28 7 7 0 0 1 1 .34 4.5 4.5 0 0 1-1-.24 4.3 4.3 0 0 1-1-.38m.95 1.96a3.2 3.2 0 0 1 .53-.48 3.6 3.6 0 0 1 .56-.44 1.8 1.8 0 0 1-.49.53 2 2 0 0 1-.6.39m1.49-.83a3.7 3.7 0 0 1 .26.81 3.5 3.5 0 0 1 .15.85 3.7 3.7 0 0 1-.26-.82 3.5 3.5 0 0 1-.15-.84m.19-.29a2.6 2.6 0 0 1 .75.11 2.6 2.6 0 0 1 .72.23 2.5 2.5 0 0 1-.75-.12 2.5 2.5 0 0 1-.72-.22" style="fill:#263238"/>
  <path d="M189.84 470.39a.41.41 0 1 1 .29.51.42.42 0 0 1-.29-.51" style="fill:#fff"/>
  <path d="M214.55 471.34s-.37 3.16.27 3.52 1.37.23 1.78.46.59.1.88-.39 1.36-1 1-1.86-2.82-2.33-2.82-2.33Zm-.92-1.74s-2.45-2-3.1-1.69-.93 1-1.35 1.25-.4.45-.15.95.11 1.69 1 1.88 3.49-1.11 3.49-1.11Z" style="fill:#8478dd"/>
  <path d="M215.68 470.78s2.63 1.8 3.24 1.4.84-1.11 1.23-1.36.37-.48.07-1-.25-1.67-1.17-1.78-3.37 1.41-3.37 1.41Z" style="fill:#8478dd"/>
  <path d="M215.74 469.56s2.87-1.37 2.84-2.1-.54-1.28-.56-1.75-.23-.55-.8-.54-1.57-.62-2.13.12-.47 3.63-.47 3.63Zm-2.29 1.14s-2.87 1.37-2.84 2.1.54 1.28.56 1.75.23.56.8.54 1.57.62 2.12-.12.48-3.63.48-3.63Z" style="fill:#8478dd"/>
  <path d="M214.69 469s.1-3.18-.56-3.48-1.39-.11-1.82-.3-.6-.06-.84.46-1.27 1.11-.87 1.94 3 2.08 3 2.08Z" style="fill:#8478dd"/>
  <path d="M213.41 469.57a1.46 1.46 0 1 1 .49 2 1.47 1.47 0 0 1-.49-2" style="fill:#8478dd"/>
  <path d="M215.07 470a10 10 0 0 1 1.33-.79 11 11 0 0 1 1.34-.78 4.6 4.6 0 0 1-1.24.94 4.4 4.4 0 0 1-1.43.63m-.49-2.84a4.6 4.6 0 0 1 .09 1.27 4.3 4.3 0 0 1-.1 1.27 3.9 3.9 0 0 1-.09-1.27 4.3 4.3 0 0 1 .1-1.27m-3.58.69a11 11 0 0 1 1.59.95 12 12 0 0 1 1.52 1.05 7.2 7.2 0 0 1-1.63-.88 7.8 7.8 0 0 1-1.48-1.12m.69 3.74a6 6 0 0 1 1.12-.55 5.3 5.3 0 0 1 1.15-.47 3.3 3.3 0 0 1-1.07.65 3.3 3.3 0 0 1-1.2.37m2.88-.68a10.6 10.6 0 0 1-.09 3 11.7 11.7 0 0 1 .09-3m.43-.4a4.6 4.6 0 0 1 1.2.55 4.7 4.7 0 0 1 1.1.72 4.4 4.4 0 0 1-1.2-.55 4.7 4.7 0 0 1-1.1-.72" style="fill:#263238"/>
  <path d="M213.94 470a.72.72 0 1 1 1.23.74.73.73 0 0 1-1 .25.72.72 0 0 1-.23-.99" style="fill:#fff"/>
  <path d="M280.19 410.5a6.76 6.76 0 0 1 2.76-4.07 31.4 31.4 0 0 0 4.24-3.13c.81-.86 1.69-3 4.14-3.16s3.37 2.11 4.65 3.34 3.51 2.33 5 4.1 1.57 2.9 1.57 2.9" style="fill:#ebebeb"/>
  <path d="M302.49 410.49c0 .73-5 1.32-11.19 1.32s-11.19-.59-11.19-1.32 5-1.32 11.19-1.32 11.19.59 11.19 1.32" style="fill:#e0e0e0"/>
  <path d="M290.4 409a51 51 0 0 1-.76 6.46c-1.37 5.34-1.9 3.89-1.9 3.89l1.72 6.86a62 62 0 0 0 2.29-5.91 22.2 22.2 0 0 0 1.21-6.92 17.4 17.4 0 0 0-.37-4.38Z" style="fill:#ebebeb"/>
  <path d="M282.9 409.7s-.11.35-.2.8-.09.81-.1.81a.6.6 0 0 1 0-.24 3.5 3.5 0 0 1 .06-.58 3.5 3.5 0 0 1 .15-.57 1.2 1.2 0 0 1 .09-.22m2.69-.4s0 .51-.12 1.13a11 11 0 0 1-.17 1.12s0-.51.12-1.13a11 11 0 0 1 .17-1.12m2.88.03a2 2 0 0 1 0 .34c0 .23-.07.51-.12.83s-.08.59-.11.82a2 2 0 0 1-.06.34 1.7 1.7 0 0 1 0-.34c0-.22 0-.51.1-.83s.09-.62.13-.83a1.5 1.5 0 0 1 .06-.33m6.22 2.33s-.11-.54-.21-1.21-.17-1.22-.16-1.22a11 11 0 0 1 .21 1.21 10 10 0 0 1 .16 1.22m3.01-.06s-.15-.51-.3-1.14-.25-1.15-.24-1.15a10 10 0 0 1 .3 1.14c.15.63.25 1.15.24 1.15m2.62-.17a1 1 0 0 1-.05-.28c0-.16-.08-.39-.13-.65s-.12-.48-.17-.64a1.3 1.3 0 0 1-.07-.27 1.3 1.3 0 0 1 .11.26c.05.16.12.39.18.64a6 6 0 0 1 .11.66 1.2 1.2 0 0 1 .02.28" style="fill:#455a64"/>
  <path d="M302.49 410.45s0-.08-.15-.17a2.2 2.2 0 0 0-.59-.27 14.3 14.3 0 0 0-2.37-.44 70 70 0 0 0-7.95-.37c-3.11 0-5.92.16-7.95.37a17 17 0 0 0-2.38.37 5 5 0 0 0-.62.2l-.15.08h-.05.05a1 1 0 0 1 .15-.09 3.6 3.6 0 0 1 .62-.21 17 17 0 0 1 2.38-.39c2-.22 4.84-.36 7.95-.38a67 67 0 0 1 7.95.38 13.6 13.6 0 0 1 2.37.46 1.8 1.8 0 0 1 .59.29.5.5 0 0 1 .12.12Z" style="fill:#263238"/>
  <path d="M302.15 429.81a1.16 1.16 0 0 0-.49-1c-.3-.25-.67-.42-1-.66a5 5 0 0 1-1.45-2.58 5.5 5.5 0 0 0-1.38-2.63 2.83 2.83 0 0 0-2.22-.62 3.15 3.15 0 0 0-2 1.18c-.71.9-.93 2.11-1.58 3.06a22 22 0 0 1-2.12 2.13 1.6 1.6 0 0 0-.41.59.76.76 0 0 0 .07.69Z" style="fill:#ebebeb"/>
  <path d="M302.16 429.87c0 .53-2.82 1-6.29 1s-6.28-.43-6.28-1 2.81-1 6.28-1 6.29.47 6.29 1" style="fill:#e0e0e0"/>
  <path d="M292.61 435.31a11.4 11.4 0 0 0 2-3.26 13 13 0 0 0 .68-3.14h1.33a78 78 0 0 1-2.8 9.54Z" style="fill:#ebebeb"/>
  <path d="M299.5 429.08h-.34l-.92-.08c-.39 0-.85-.05-1.37-.07h-1.68c-1.19 0-2.27.12-3 .21l-.92.11h-.34.34l.91-.13c.78-.1 1.86-.2 3.05-.23h1.68c.51 0 1 0 1.37.08s.71.07.92.1h.25Z" style="fill:#263238"/>
  <path d="M291.69 429.09s-.12.32-.21.72-.11.74-.13.74a.8.8 0 0 1 0-.22 3 3 0 0 1 .08-.53 5 5 0 0 1 .16-.51.7.7 0 0 1 .1-.2m1.99-.09a.8.8 0 0 1-.06.26c-.05.18-.1.38-.16.61s-.12.44-.17.61-.07.26-.07.26a.9.9 0 0 1 0-.27c0-.16.08-.37.15-.61s.13-.46.18-.61Zm4.01 1.88a1 1 0 0 1 0-.29v-1.39a.9.9 0 0 1 0-.28v.28c0 .18 0 .42.05.7a6 6 0 0 1 0 .69 2 2 0 0 1-.05.29m2.14-.31s0-.34-.08-.74a5 5 0 0 0-.22-.71.5.5 0 0 1 .11.19 2.2 2.2 0 0 1 .17.51 3 3 0 0 1 .05.53.8.8 0 0 1-.03.22M74.22 115.93a2.4 2.4 0 0 0 1.17 1.74 8.2 8.2 0 0 0 4.42 2 5.6 5.6 0 0 0 4-1.46 7.51 7.51 0 0 0-7.41-4c-.99.13-2.17.7-2.18 1.72m8.3-7.08a1.74 1.74 0 0 0-.33 1.5 6 6 0 0 0 1.2 3.33 4.08 4.08 0 0 0 2.81 1.38 5.48 5.48 0 0 0-1.66-5.92c-.54-.47-1.48-.8-2.02-.29m276.34-49.72c-.72.12-1.19.81-1.53 1.45a8.25 8.25 0 0 0-1.19 4.68 5.6 5.6 0 0 0 2.1 3.71 7.47 7.47 0 0 0 2.67-8c-.29-.97-1.05-1.97-2.05-1.84m8.36 7.01a1.76 1.76 0 0 0-1.54-.08 6.1 6.1 0 0 0-3.08 1.74 4.15 4.15 0 0 0-.89 3 5.47 5.47 0 0 0 5.56-2.62c.37-.65.55-1.59-.05-2.04" style="fill:#455a64"/>
  <path d="M276.69 480.5c.12-.34 7.67-13.73 7.67-13.73l24.94-11.56 8.93 2.86 8.58 16.59s.46 5.61 0 5.84-50.12 0-50.12 0" style="fill:#ebebeb"/>
  <path style="fill:#e0e0e0" d="m284.36 466.77 24.94-11.56-21.03 12.69-2.03 12.64-9.55-.04z"/>
  <g style="opacity:.2">
    <path style="fill:#fff" d="m320.03 461.55-5.83 1.16-13.68-2.02-1.12-1-1.69.75 1.88.63 14.74 3.43 6.75-.92z"/>
  </g>
  <g style="opacity:.2">
    <path style="fill:#fff" d="m326.81 474.66-12.89-3.18-26.21 2.52-5.76-2.92-1.03 1.79 6.13 2.63 26.87-3 12.89 4.72z"/>
  </g>
  <path d="M276.69 480.5h48.74c.46 0 1 0 1.34-.05a4.4 4.4 0 0 0 .14-1.35v-1.45c0-1-.09-2-.17-2.93l-3.51-6.78-5.07-9.81.06.05-8.93-2.87h.08l-25 11.53-7.73 13.7s.15-.34.49-.95l1.48-2.72 5.64-10.1 24.93-11.58 8.93 2.85 5.08 9.81 3.5 6.78q.12 1.49.18 2.94v2.19a1.6 1.6 0 0 1-.17.76 6.6 6.6 0 0 1-1.49.11H310.4l-17.77-.06-11.63-.02h-3.2Z" style="fill:#263238"/>
  <circle cx="240.35" cy="432.77" r="37.5" style="fill:#8e5444"/>
  <circle cx="240.29" cy="434.74" r="32.21" transform="rotate(-22.04 240.31 434.776)" style="fill:#8e5444"/>
  <circle cx="240.29" cy="434.74" r="32.21" transform="rotate(-22.04 240.31 434.776)" style="opacity:.30000000000000004"/>
  <circle cx="240.29" cy="432.79" r="32.21" transform="rotate(-22.04 240.321 432.806)" style="fill:#6f4439"/>
  <path d="M217.71 455.76c-.14 0-.26-10.27-.26-22.92s.12-22.92.26-22.92.26 10.26.26 22.92-.11 22.92-.26 22.92m9.5 6.15c-.15 0-.26-13.11-.26-29.28s.11-29.28.26-29.28.26 13.11.26 29.28-.12 29.28-.26 29.28m12.5 2.91c-.14 0-.26-14.41-.26-32.19s.12-32.18.26-32.18.26 14.41.26 32.18-.11 32.19-.26 32.19m12.38-1.21c-.14 0-.26-13.55-.26-30.27s.12-30.28.26-30.28.27 13.55.27 30.28-.12 30.27-.27 30.27m11.02-6.15c-.14 0-.26-10.52-.26-23.5s.12-23.5.26-23.5.26 10.52.26 23.5-.11 23.5-.26 23.5" style="fill:#263238"/>
  <path d="M246.53 416.5a6.24 6.24 0 1 1-6.24-6.24 6.24 6.24 0 0 1 6.24 6.24" style="fill:#263238"/>
  <path d="M246.7 416.5a5.75 5.75 0 1 1-5.74-6 5.87 5.87 0 0 1 5.74 6" style="fill:#455a64"/>
  <path style="fill:#6f4439" d="M240.35 409.92h1.22v13.16h-1.22z"/>
  <path transform="rotate(-90 240.285 417.015)" style="fill:#6f4439" d="M239.68 410.44h1.22v13.16h-1.22z"/>
  <path d="m203.38 426.48 4.84 2h5.89v1.29h-6l-5.21 1.81a40 40 0 0 1 .48-5.1m-.18 11.43 5 1.34 5.89-.14v1.29l-6 .14-3.86 2.3a36 36 0 0 1-1.03-4.93" style="fill:#263238"/>
  <path style="fill:#8e5444" d="m243.91 400.34 1.15 4.4 1.81-3.93zm27.69 24.9-1.06 3.85.53 3.54.53-3.7 1.53-1.32z"/>
  <path d="M213.38 406.39a8.1 8.1 0 0 1 2.35 1.66c1.21 1 2.11 1.94 2 2.05a8 8 0 0 1-2.36-1.66c-1.18-1.02-2.09-1.94-1.99-2.05m11.68-7.77a7.2 7.2 0 0 1 1.31 2.35 6.9 6.9 0 0 1 .82 2.56 14 14 0 0 1-2.13-4.91m14.27-3.12a12.8 12.8 0 0 1 .46 5.13 6.7 6.7 0 0 1-.49-2.54 6.8 6.8 0 0 1 .03-2.59m16.21 3.13a8.1 8.1 0 0 1-1.45 2.39 7.8 7.8 0 0 1-1.87 2.09 7.7 7.7 0 0 1 1.45-2.4c.91-1.23 1.75-2.17 1.87-2.08m11.89 8.55c.08.12-.8.92-2 1.79a6.7 6.7 0 0 1-2.29 1.37c-.08-.11.8-.91 2-1.79a7.1 7.1 0 0 1 2.29-1.37m7.43 11.92a5.7 5.7 0 0 1-2.2 1 5.8 5.8 0 0 1-2.36.52 5.7 5.7 0 0 1 2.2-1 6 6 0 0 1 2.36-.52m2.85 12.44a13.3 13.3 0 0 1-5.23 0 13.3 13.3 0 0 1 5.23 0m-1.43 12.76a16 16 0 0 1-5.23-2.29 16 16 0 0 1 5.23 2.29m-9.14 15.22c-.11.09-1-.72-2-1.83a7.3 7.3 0 0 1-1.62-2.17c.11-.09 1 .72 2 1.82a7.4 7.4 0 0 1 1.62 2.18M254 467.7a6.3 6.3 0 0 1-1.26-2.22 6.5 6.5 0 0 1-.78-2.43 6.6 6.6 0 0 1 1.25 2.22 6.4 6.4 0 0 1 .79 2.43m-14.66 2.64c-.15 0-.17-.74-.06-1.6s.31-1.55.46-1.54.16.74 0 1.6-.26 1.56-.4 1.54m-13.06-6.91c.09.11-.53.78-1.4 1.5s-1.63 1.2-1.72 1.09.53-.78 1.39-1.5 1.64-1.2 1.73-1.09m-9.28-7.72c.07.12-.81.79-2 1.49a6.1 6.1 0 0 1-2.23 1.06c-.08-.13.8-.8 2-1.5a5.7 5.7 0 0 1 2.23-1.05m-5.22-35.91a8.6 8.6 0 0 1-2.8-.87 8.2 8.2 0 0 1-2.61-1.35 16.7 16.7 0 0 1 5.41 2.22" style="fill:#263238"/>
  <path d="M195.06 333.59a6.7 6.7 0 0 0-2.72-4 31 31 0 0 1-4.2-3.1c-.79-.84-1.66-3-4.09-3.12s-3.32 2.09-4.59 3.31-3.48 2.3-5 4-1.55 2.86-1.55 2.86Z" style="fill:#ebebeb"/>
  <path d="M173 333.58c0 .73 4.95 1.31 11.06 1.31s11.06-.58 11.06-1.31-5-1.31-11.06-1.31-11.06.59-11.06 1.31" style="fill:#e0e0e0"/>
  <path d="M185 332.06a49 49 0 0 0 .75 6.39c1.35 5.28 3 4.7 6.66 4.66l4.19 6.08s-9.7 0-12.94-6c-1.2-2.2-1.15-4-1.2-6.84a17 17 0 0 1 .37-4.33Z" style="fill:#ebebeb"/>
  <path d="M192.39 332.8s.11.35.19.79.09.8.11.8a1 1 0 0 0 0-.24 4.1 4.1 0 0 0-.22-1.13 2 2 0 0 0-.08-.22m-2.66-.39s0 .5.12 1.11.15 1.11.16 1.11a9 9 0 0 0-.11-1.11 11 11 0 0 0-.17-1.11m-2.85.02a2 2 0 0 0 0 .34c0 .23.07.51.12.82s.08.59.11.82a2 2 0 0 0 .06.33s0-.13 0-.34-.06-.5-.1-.82-.09-.6-.13-.81a1.7 1.7 0 0 0-.06-.34m-6.15 2.31a11 11 0 0 0 .21-1.2c.1-.66.17-1.2.16-1.2a11 11 0 0 0-.21 1.2c-.1.66-.17 1.2-.16 1.2m-2.97-.06s.14-.5.29-1.13.25-1.13.24-1.14a10 10 0 0 0-.29 1.13 10 10 0 0 0-.24 1.14m-2.59-.17a2 2 0 0 0 .05-.27c0-.16.07-.39.13-.64l.16-.64a1.2 1.2 0 0 0 .07-.26 1 1 0 0 0-.1.25 4 4 0 0 0-.18.63 6 6 0 0 0-.12.66.8.8 0 0 0-.01.27" style="fill:#455a64"/>
  <path d="M173 333.55a.35.35 0 0 1 .14-.17 2.2 2.2 0 0 1 .59-.27 13.6 13.6 0 0 1 2.34-.44 71 71 0 0 1 7.85-.36c3.08 0 5.86.16 7.86.36a19 19 0 0 1 2.36.37 4 4 0 0 1 .61.2l.15.08a.5.5 0 0 0-.15-.09 4 4 0 0 0-.61-.21 18 18 0 0 0-2.35-.38c-2-.22-4.79-.36-7.87-.38a66 66 0 0 0-7.86.38 13.7 13.7 0 0 0-2.34.45 2 2 0 0 0-.58.28.5.5 0 0 0-.12.13.1.1 0 0 0-.02.05" style="fill:#263238"/>
  <path d="M179.18 454s1.54 2.79 2.27 2.71 1.24-.62 1.71-.67.54-.26.49-.83.52-1.6-.25-2.11-3.65-.25-3.65-.25Zm-1.77-.86s-3.17-.22-3.5.44-.15 1.38-.37 1.8-.07.6.43.86 1.07 1.31 1.92.94 2.19-2.93 2.19-2.93Z" style="fill:#8478dd"/>
  <path d="M179.77 452.9s3.18-.06 3.45-.74 0-1.39.21-1.82 0-.61-.51-.83-1.18-1.21-2-.76-1.93 3.11-1.93 3.11Z" style="fill:#8478dd"/>
  <path d="M179.1 451.88s1.54-2.78 1.09-3.35-1.19-.73-1.48-1.1-.51-.32-1 0-1.64.42-1.65 1.34 1.72 3.23 1.72 3.23Zm-1.19 2.27s-1.54 2.78-1.08 3.36 1.18.72 1.47 1.09.51.32 1 0 1.64-.42 1.66-1.34-1.73-3.22-1.73-3.22Z" style="fill:#8478dd"/>
  <path d="M178.06 452s-1.77-2.64-2.49-2.5-1.19.72-1.65.81-.51.3-.42.87-.38 1.64.43 2.08 3.66-.06 3.66-.06Z" style="fill:#8478dd"/>
  <path d="M177.22 453.24a1.45 1.45 0 1 1 1.56 1.35 1.45 1.45 0 0 1-1.56-1.35" style="fill:#8478dd"/>
  <path d="M178.8 452.62a11 11 0 0 1 .62-1.42 13 13 0 0 1 .64-1.42 4.4 4.4 0 0 1-.46 1.49 4.5 4.5 0 0 1-.8 1.35m-2.04-2.01a4.2 4.2 0 0 1 .82 1 4.5 4.5 0 0 1 .65 1.09 8.7 8.7 0 0 1-1.47-2.07Zm-2.48 2.63a13 13 0 0 1 1.84-.15 10 10 0 0 1 1.85 0 7.6 7.6 0 0 1-1.84.23 7 7 0 0 1-1.85-.08m2.72 2.65a5 5 0 0 1 .58-1.09 5.6 5.6 0 0 1 .66-1.05 3 3 0 0 1-.49 1.14 3.4 3.4 0 0 1-.75 1m1.94-2.23a5.7 5.7 0 0 1 .91 1.18 5.4 5.4 0 0 1 .75 1.29 6 6 0 0 1-.91-1.18 6 6 0 0 1-.75-1.29m.15-.6a4.8 4.8 0 0 1 1.29-.25 4.7 4.7 0 0 1 1.32-.05 5 5 0 0 1-1.3.25 4.7 4.7 0 0 1-1.31.05" style="fill:#263238"/>
  <path d="M177.9 453.3a.72.72 0 0 1 .66-.78.72.72 0 1 1-.66.78" style="fill:#fff"/>
  <path d="m322.44 334.3 24.9-20 28.29-4.92 9.58-8.9-3.42-10.48 3.59-11.9 3.48 1.35-3.11 9.15 1.87 5.71s.67 7.07 4.85 6 8.28-9.07 8.28-9.07l2.41-12.36 6.73.22-3.75 13.21-5.52 8.08 7.35-3.15 5.11-7 3.33-8.59 5.16-2.77-2.37 9.64s-6 11-8.18 13.2-7.1 4.24-7.1 4.24-9.73.48-12 1-7.22 3.68-7.22 3.68-6.79 5.21-9.67 6.48-11.94 8.69-11.94 8.69l-18.68 20.48Z" style="fill:#ae7461"/>
  <path d="M162.82 415.12c-.71.18-1 1-1.14 1.76a2.42 2.42 0 0 0 .73 2 2.76 2.76 0 0 0 2.71.68 2.65 2.65 0 0 0 1.8-2.12 2.53 2.53 0 0 0-1.25-2.47 2.66 2.66 0 0 0-3.09.24" style="fill:#8478dd"/>
  <g style="opacity:.7000000000000001">
    <path d="M162.82 415.12c-.71.18-1 1-1.14 1.76a2.42 2.42 0 0 0 .73 2 2.76 2.76 0 0 0 2.71.68 2.65 2.65 0 0 0 1.8-2.12 2.53 2.53 0 0 0-1.25-2.47 2.66 2.66 0 0 0-3.09.24" style="fill:#fff"/>
  </g>
  <path d="M163.84 416.76a8.3 8.3 0 0 0-1.72-3 2.5 2.5 0 0 0-.94-.71.92.92 0 0 0-1.22 1.26 2.5 2.5 0 0 0 .67.89 6.1 6.1 0 0 0 3.21 1.52" style="fill:#fff"/>
  <path d="M163.84 416.76a2.2 2.2 0 0 1-.46-.07 6.7 6.7 0 0 1-1.2-.36 5.3 5.3 0 0 1-1.58-1 3 3 0 0 1-.7-.88 1.14 1.14 0 0 1 .11-1.2 1.09 1.09 0 0 1 1.18-.25 2.3 2.3 0 0 1 .91.66 8 8 0 0 1 1.09 1.51 8 8 0 0 1 .52 1.14 2 2 0 0 1 .13.45 15 15 0 0 0-.76-1.52 9 9 0 0 0-1.1-1.47 2.2 2.2 0 0 0-.85-.6.93.93 0 0 0-1 .19 1 1 0 0 0-.08 1 2.7 2.7 0 0 0 .66.82 5 5 0 0 0 1.51 1c.97.44 1.63.54 1.62.58" style="fill:#263238"/>
  <path d="M164.65 416.55a8.2 8.2 0 0 0 2.73-2.05 2.5 2.5 0 0 0 .6-1 .92.92 0 0 0-1.4-1.07 2.55 2.55 0 0 0-.8.77 6.1 6.1 0 0 0-1.13 3.36" style="fill:#fff"/>
  <path d="M164.65 416.55a1.6 1.6 0 0 1 0-.46 7.4 7.4 0 0 1 .22-1.23 5.2 5.2 0 0 1 .81-1.69 3 3 0 0 1 .79-.8 1.14 1.14 0 0 1 1.21 0 1.09 1.09 0 0 1 .38 1.14 2.34 2.34 0 0 1-.55 1 8 8 0 0 1-1.37 1.26 7.3 7.3 0 0 1-1.08.65 1.6 1.6 0 0 1-.42.17 17 17 0 0 0 1.42-.93 8.5 8.5 0 0 0 1.32-1.26 2.2 2.2 0 0 0 .51-.91 1 1 0 0 0-.31-1 1 1 0 0 0-1 0 2.6 2.6 0 0 0-.74.74 5.1 5.1 0 0 0-.83 1.62 16 16 0 0 0-.36 1.7" style="fill:#263238"/>
  <path d="M163.79 416.55c-.27.07-.4.39-.43.67a.88.88 0 0 0 .27.75 1 1 0 0 0 1 .26 1 1 0 0 0 .68-.8 1 1 0 0 0-.47-.93 1 1 0 0 0-1.17.09" style="fill:#8478dd"/>
  <path d="M163.56 419.3s-.18 0-.43-.15a2.4 2.4 0 0 1-.85-.73 1.86 1.86 0 0 1-.38-1.07c0-.29.08-.46.1-.45s0 .18 0 .45a2.06 2.06 0 0 0 .4 1 4.8 4.8 0 0 0 1.16.95m.88.07s-.07.13-.21.14-.24-.07-.23-.12.11-.06.22-.06.2-.01.22.04m2.04-3.1a1.35 1.35 0 0 1 .2 1.1 1.33 1.33 0 0 1-.54 1 4.6 4.6 0 0 0 .37-1 5 5 0 0 0-.03-1.1m-2.02-1.27h-.16a.22.22 0 0 1-.14-.06s0-.13.17-.12.17.18.13.18m-.46 3h-.22a.76.76 0 0 1-.33-.4.68.68 0 0 1 0-.51c.05-.12.12-.18.13-.16s-.09.3 0 .61.42.46.42.46m.48.08a.08.08 0 0 1-.08.1.09.09 0 0 1-.11-.07.08.08 0 0 1 .08-.1c.06-.01.11-.01.11.07" style="fill:#fff"/>
  <path d="M250.84 338.47c-.89.22-1.29 1.27-1.42 2.18a3 3 0 0 0 .9 2.49 3.44 3.44 0 0 0 3.36.84 3.25 3.25 0 0 0 2.23-2.63 3.12 3.12 0 0 0-1.54-3.05 3.31 3.31 0 0 0-3.84.29" style="fill:#8478dd"/>
  <g style="opacity:.7000000000000001">
    <path d="M250.84 338.47c-.89.22-1.29 1.27-1.42 2.18a3 3 0 0 0 .9 2.49 3.44 3.44 0 0 0 3.36.84 3.25 3.25 0 0 0 2.23-2.63 3.12 3.12 0 0 0-1.54-3.05 3.31 3.31 0 0 0-3.84.29" style="fill:#fff"/>
  </g>
  <path d="M252.09 340.49a10.45 10.45 0 0 0-2.13-3.66 3 3 0 0 0-1.16-.88 1.14 1.14 0 0 0-1.51 1.57 3.14 3.14 0 0 0 .83 1.09 7.45 7.45 0 0 0 4 1.88" style="fill:#fff"/>
  <path d="M252.09 340.49a1.7 1.7 0 0 1-.56-.08A7.8 7.8 0 0 1 250 340a6.4 6.4 0 0 1-1.95-1.25 3.4 3.4 0 0 1-.87-1.08 1.4 1.4 0 0 1 .13-1.49 1.34 1.34 0 0 1 1.46-.31 2.8 2.8 0 0 1 1.13.82 10 10 0 0 1 1.35 1.87 8.4 8.4 0 0 1 .65 1.42 1.8 1.8 0 0 1 .15.54s-.27-.76-.93-1.88a11 11 0 0 0-1.37-1.81 2.6 2.6 0 0 0-1-.75 1.14 1.14 0 0 0-1.22.24 1.22 1.22 0 0 0-.1 1.26 3.2 3.2 0 0 0 .81 1 6.4 6.4 0 0 0 1.87 1.25 20 20 0 0 0 1.98.66" style="fill:#263238"/>
  <path d="M253.1 340.24a10.3 10.3 0 0 0 3.39-2.54 3.16 3.16 0 0 0 .74-1.26 1.28 1.28 0 0 0-.42-1.32 1.3 1.3 0 0 0-1.32 0 3.3 3.3 0 0 0-1 .95 7.57 7.57 0 0 0-1.4 4.17" style="fill:#fff"/>
  <path d="M253.1 340.24a2 2 0 0 1 0-.57 9 9 0 0 1 .27-1.53 6.4 6.4 0 0 1 1-2.08 3.6 3.6 0 0 1 1-1 1.42 1.42 0 0 1 1.5-.05 1.36 1.36 0 0 1 .48 1.42 2.9 2.9 0 0 1-.68 1.22 10 10 0 0 1-1.71 1.56 10.6 10.6 0 0 1-1.33.81 2.3 2.3 0 0 1-.52.21s.73-.36 1.76-1.15a10.3 10.3 0 0 0 1.64-1.57 2.6 2.6 0 0 0 .62-1.13 1.14 1.14 0 0 0-.38-1.18 1.19 1.19 0 0 0-1.26.05 3.2 3.2 0 0 0-.92.92 6.5 6.5 0 0 0-1 2c-.4 1.26-.42 2.08-.47 2.07" style="fill:#263238"/>
  <path d="M252 340.24a.91.91 0 0 0-.53.82 1.11 1.11 0 0 0 .34.94 1.3 1.3 0 0 0 1.26.32 1.24 1.24 0 0 0 .84-1 1.17 1.17 0 0 0-.58-1.15 1.24 1.24 0 0 0-1.45.11" style="fill:#8478dd"/>
  <path d="M251.76 343.65a1.3 1.3 0 0 1-.55-.19 3 3 0 0 1-1-.91 2.2 2.2 0 0 1-.47-1.32.83.83 0 0 1 .12-.56s0 .22 0 .55a2.55 2.55 0 0 0 .5 1.2 5.7 5.7 0 0 0 1.4 1.23m1.08.08c0 .06-.09.16-.26.17s-.3-.09-.28-.14.14-.08.27-.08.25-.01.27.05m2.53-3.83a1.7 1.7 0 0 1 .25 1.36 1.7 1.7 0 0 1-.67 1.21 6.7 6.7 0 0 0 .45-1.25 7.5 7.5 0 0 0-.03-1.32m-2.51-1.56a.24.24 0 0 1-.19 0 .25.25 0 0 1-.18-.08s.06-.16.21-.14.21.18.16.22m-.55 3.66s-.11 0-.26-.05a.92.92 0 0 1-.42-.48.9.9 0 0 1 0-.64c.06-.15.14-.22.17-.2s-.12.37 0 .76.54.61.51.61m.58.13a.11.11 0 0 1-.1.13.12.12 0 0 1-.14-.09.12.12 0 0 1 .11-.13.11.11 0 0 1 .13.09" style="fill:#fff"/>
  <path d="M356.87 356c-1.09-.37-2.23.46-3 1.32a3.81 3.81 0 0 0-.76 3.24 4.33 4.33 0 0 0 3 3.2 4.09 4.09 0 0 0 4.15-1.23 3.92 3.92 0 0 0 .48-4.28 4.15 4.15 0 0 0-4.24-2.33" style="fill:#8478dd"/>
  <g style="opacity:.7000000000000001">
    <path d="M356.87 356c-1.09-.37-2.23.46-3 1.32a3.81 3.81 0 0 0-.76 3.24 4.33 4.33 0 0 0 3 3.2 4.09 4.09 0 0 0 4.15-1.23 3.92 3.92 0 0 0 .48-4.28 4.15 4.15 0 0 0-4.24-2.33" style="fill:#fff"/>
  </g>
  <path d="M356.8 359a12.9 12.9 0 0 0 .27-5.32 3.75 3.75 0 0 0-.61-1.73 1.59 1.59 0 0 0-1.61-.66 1.63 1.63 0 0 0-1.07 1.27 4.2 4.2 0 0 0 .13 1.72 9.45 9.45 0 0 0 2.89 4.72" style="fill:#fff"/>
  <path d="M356.8 359a3.2 3.2 0 0 1-.54-.48A10.6 10.6 0 0 1 355 357a8.3 8.3 0 0 1-1.2-2.65 4.5 4.5 0 0 1-.17-1.74 1.77 1.77 0 0 1 1.16-1.48 1.72 1.72 0 0 1 1.76.68 3.64 3.64 0 0 1 .62 1.64 12.3 12.3 0 0 1 .14 2.9 13 13 0 0 1-.29 1.93 2.7 2.7 0 0 1-.22.69 26 26 0 0 0 .31-2.63 14 14 0 0 0-.19-2.85 3.5 3.5 0 0 0-.59-1.51 1.45 1.45 0 0 0-1.46-.58 1.52 1.52 0 0 0-1 1.25 4.5 4.5 0 0 0 .15 1.64 8.2 8.2 0 0 0 1.12 2.6c.93 1.39 1.71 2.11 1.66 2.11" style="fill:#263238"/>
  <path d="M358 359.43a13.1 13.1 0 0 0 5.32-.35 3.8 3.8 0 0 0 1.64-.81 1.44 1.44 0 0 0-.91-2.59 4 4 0 0 0-1.7.33 9.4 9.4 0 0 0-4.35 3.42" style="fill:#fff"/>
  <path d="M358 359.43a4 4 0 0 1 .41-.59 10 10 0 0 1 1.34-1.43 8.1 8.1 0 0 1 2.49-1.5 4.5 4.5 0 0 1 1.71-.37 1.79 1.79 0 0 1 1.61 1 1.71 1.71 0 0 1-.48 1.82 3.6 3.6 0 0 1-1.55.82 12.8 12.8 0 0 1-2.87.47 12 12 0 0 1-1.95-.06 2.7 2.7 0 0 1-.71-.14 26 26 0 0 0 2.65 0 13 13 0 0 0 2.8-.52 3.5 3.5 0 0 0 1.44-.76 1.48 1.48 0 0 0 .41-1.52 1.53 1.53 0 0 0-1.36-.82 4.4 4.4 0 0 0-1.61.34 8.5 8.5 0 0 0-2.45 1.41c-1.21 1.04-1.8 1.89-1.88 1.85" style="fill:#263238"/>
  <path d="M356.91 358.7c-.41-.14-.84.17-1.13.5a1.43 1.43 0 0 0-.28 1.22 1.63 1.63 0 0 0 1.11 1.2 1.55 1.55 0 0 0 1.56-.46 1.46 1.46 0 0 0 .18-1.62 1.54 1.54 0 0 0-1.59-.87" style="fill:#8478dd"/>
  <path d="M354.28 362.1s-.22-.18-.45-.57a3.76 3.76 0 0 1-.47-1.68 2.85 2.85 0 0 1 .41-1.71c.25-.39.5-.53.52-.51s-.16.23-.35.61a3.2 3.2 0 0 0-.3 1.59 7.5 7.5 0 0 0 .64 2.27m1.08.83c0 .08-.2.11-.39 0s-.26-.3-.19-.35.19 0 .33.1.27.17.25.25m5.3-2.3a2.57 2.57 0 0 1-2.21 2.42 8.2 8.2 0 0 0 1.33-1 8 8 0 0 0 .88-1.42m-1.56-3.37a.37.37 0 0 1-.23-.1c-.06-.07-.13-.13-.13-.21s.17-.14.32 0 .11.31.04.31m-3.1 3.52s-.14 0-.24-.22a1.13 1.13 0 0 1 .34-1.47c.18-.11.31-.12.32-.09s-.38.31-.49.82.07.92.07.96m.52.5a.16.16 0 0 1-.2.07.15.15 0 0 1-.08-.19.15.15 0 0 1 .28.12" style="fill:#fff"/>
  <path d="M351.84 204.3c-1.08-.38-2.21.45-3 1.3a3.77 3.77 0 0 0-.75 3.21 4.26 4.26 0 0 0 2.93 3.17 4.07 4.07 0 0 0 4.11-1.23 3.85 3.85 0 0 0 .47-4.23 4.12 4.12 0 0 0-4.2-2.31" style="fill:#8478dd"/>
  <g style="opacity:.7000000000000001">
    <path d="M351.84 204.3c-1.08-.38-2.21.45-3 1.3a3.77 3.77 0 0 0-.75 3.21 4.26 4.26 0 0 0 2.93 3.17 4.07 4.07 0 0 0 4.11-1.23 3.85 3.85 0 0 0 .47-4.23 4.12 4.12 0 0 0-4.2-2.31" style="fill:#fff"/>
  </g>
  <path d="M351.77 207.26A12.8 12.8 0 0 0 352 202a3.7 3.7 0 0 0-.61-1.71 1.42 1.42 0 0 0-2.64.6 4 4 0 0 0 .12 1.71 9.3 9.3 0 0 0 2.86 4.67" style="fill:#fff"/>
  <path d="M351.77 207.26a3.2 3.2 0 0 1-.53-.47 10.4 10.4 0 0 1-1.25-1.48 7.9 7.9 0 0 1-1.19-2.62 4.4 4.4 0 0 1-.17-1.72 1.77 1.77 0 0 1 1.15-1.47 1.7 1.7 0 0 1 1.74.67 3.6 3.6 0 0 1 .62 1.63 12.1 12.1 0 0 1-.15 4.78 2.3 2.3 0 0 1-.22.68 25 25 0 0 0 .31-2.6 13.7 13.7 0 0 0-.19-2.82 3.6 3.6 0 0 0-.58-1.5 1.43 1.43 0 0 0-1.45-.57 1.49 1.49 0 0 0-1 1.24 4.4 4.4 0 0 0 .15 1.62 8 8 0 0 0 1.1 2.57c.94 1.35 1.71 2.02 1.66 2.06" style="fill:#263238"/>
  <path d="M353 207.68a12.85 12.85 0 0 0 5.27-.35 3.74 3.74 0 0 0 1.62-.8A1.42 1.42 0 0 0 359 204a3.9 3.9 0 0 0-1.69.32 9.4 9.4 0 0 0-4.3 3.39" style="fill:#fff"/>
  <path d="M353 207.68a3.2 3.2 0 0 1 .4-.58 11 11 0 0 1 1.33-1.42 8 8 0 0 1 2.47-1.49 4.5 4.5 0 0 1 1.69-.36 1.75 1.75 0 0 1 1.59 1 1.68 1.68 0 0 1-.47 1.8 3.65 3.65 0 0 1-1.54.81 12.5 12.5 0 0 1-2.84.47 11 11 0 0 1-1.93-.07 2.4 2.4 0 0 1-.7-.13 26 26 0 0 0 2.62 0 13 13 0 0 0 2.78-.52 3.3 3.3 0 0 0 1.42-.75 1.42 1.42 0 0 0 .4-1.5 1.5 1.5 0 0 0-1.34-.81 4.2 4.2 0 0 0-1.59.34 8.1 8.1 0 0 0-2.43 1.39c-1.24 1.02-1.86 1.86-1.86 1.82" style="fill:#263238"/>
  <path d="M351.88 207c-.41-.14-.83.17-1.12.5a1.41 1.41 0 0 0-.28 1.21 1.63 1.63 0 0 0 1.1 1.19 1.55 1.55 0 0 0 1.55-.46 1.47 1.47 0 0 0 .18-1.6 1.57 1.57 0 0 0-1.58-.87" style="fill:#8478dd"/>
  <path d="M349.27 210.32s-.21-.18-.44-.56a4 4 0 0 1-.47-1.67 2.9 2.9 0 0 1 .41-1.69c.24-.38.49-.53.51-.5s-.16.22-.34.6a3.14 3.14 0 0 0-.3 1.58 7.5 7.5 0 0 0 .63 2.24m1.08.83c0 .07-.2.1-.39 0s-.25-.29-.19-.34.19 0 .33.1.26.16.25.24m5.24-2.28a2.1 2.1 0 0 1-.66 1.59 2 2 0 0 1-1.52.8 7.7 7.7 0 0 0 1.31-1 8 8 0 0 0 .87-1.39m-1.59-3.34c-.07 0-.15-.05-.22-.1s-.13-.13-.13-.21.17-.13.32 0 .15.31.03.31m-3 3.47s-.14-.05-.24-.23a1.1 1.1 0 0 1 .34-1.44c.17-.12.3-.13.32-.1s-.38.31-.49.82.07.95.07.95m.49.51a.15.15 0 0 1-.19.07.15.15 0 0 1-.09-.19.16.16 0 0 1 .2-.07.15.15 0 0 1 .08.19" style="fill:#fff"/>
  <path d="M180.07 219.58c-1.62.9-1.86 3.16-1.64 5a6.14 6.14 0 0 0 3 4.41 7 7 0 0 0 7-.09 6.6 6.6 0 0 0 3-6.3 6.29 6.29 0 0 0-4.61-5.19c-3-.74-5.28.1-7.36 2.56" style="fill:#8478dd"/>
  <g style="opacity:.7000000000000001">
    <path d="M180.07 219.58c-1.62.9-1.86 3.16-1.64 5a6.14 6.14 0 0 0 3 4.41 7 7 0 0 0 7-.09 6.6 6.6 0 0 0 3-6.3 6.29 6.29 0 0 0-4.61-5.19c-3-.74-5.28.1-7.36 2.56" style="fill:#fff"/>
  </g>
  <path d="M183.59 222.89a21.2 21.2 0 0 0-6.08-6.07 6 6 0 0 0-2.72-1.12 2.31 2.31 0 0 0-2.17 3.85 6.8 6.8 0 0 0 2.2 1.72 15.2 15.2 0 0 0 8.77 1.62" style="fill:#fff"/>
  <path d="M183.59 222.89a4.4 4.4 0 0 1-1.15.14 17 17 0 0 1-3.15-.11 12.8 12.8 0 0 1-4.47-1.42 7.2 7.2 0 0 1-2.26-1.67 2.88 2.88 0 0 1-.53-3 2.8 2.8 0 0 1 2.72-1.36 5.8 5.8 0 0 1 2.63 1 20.2 20.2 0 0 1 3.62 3 18 18 0 0 1 2 2.44 4.8 4.8 0 0 1 .59 1c-.07.06-.94-1.36-2.81-3.2a21.4 21.4 0 0 0-3.62-2.84 5.5 5.5 0 0 0-2.44-.93 2.34 2.34 0 0 0-2.28 1.11 2.48 2.48 0 0 0 .46 2.52 7 7 0 0 0 2.12 1.58 13.5 13.5 0 0 0 4.31 1.48c2.6.37 4.26.16 4.26.26" style="fill:#263238"/>
  <path d="M185.42 221.88a21 21 0 0 0 5.32-6.74 6.14 6.14 0 0 0 .8-2.84 2.32 2.32 0 0 0-4.08-1.7A6.6 6.6 0 0 0 186 213a15.2 15.2 0 0 0-.6 8.9" style="fill:#fff"/>
  <path d="M185.42 221.88a5.3 5.3 0 0 1-.27-1.13 18 18 0 0 1-.26-3.14 12.9 12.9 0 0 1 .89-4.6 7.4 7.4 0 0 1 1.4-2.45 2.87 2.87 0 0 1 2.91-.86 2.76 2.76 0 0 1 1.67 2.53 5.8 5.8 0 0 1-.7 2.74 20.2 20.2 0 0 1-2.53 3.94 19 19 0 0 1-2.19 2.27 4.4 4.4 0 0 1-.92.7c-.06-.07 1.25-1.09 2.86-3.17a21.8 21.8 0 0 0 2.4-3.92 5.56 5.56 0 0 0 .64-2.54 2.33 2.33 0 0 0-1.38-2.12 2.41 2.41 0 0 0-2.44.75 6.9 6.9 0 0 0-1.33 2.28 13.2 13.2 0 0 0-1 4.46c-.03 2.63.35 4.25.25 4.26" style="fill:#263238"/>
  <path d="M183.33 222.43a1.86 1.86 0 0 0-.62 1.89 2.33 2.33 0 0 0 1.15 1.66 2.64 2.64 0 0 0 2.65 0 2.49 2.49 0 0 0 1.13-2.37 2.38 2.38 0 0 0-1.74-2 2.53 2.53 0 0 0-2.77 1" style="fill:#8478dd"/>
  <path d="M184.56 229.25a2.56 2.56 0 0 1-1.16-.08 6.24 6.24 0 0 1-2.53-1.25 4.63 4.63 0 0 1-1.6-2.33c-.19-.72-.1-1.18 0-1.17s.09.43.35 1.06a5 5 0 0 0 1.58 2.08 11.8 11.8 0 0 0 3.36 1.69m2.17-.4c.08.09-.09.36-.43.47s-.63 0-.62-.14.23-.22.48-.3.49-.13.57-.03m2.96-8.85a4.14 4.14 0 0 1 .51 5.25 12 12 0 0 0 .24-2.67 12.7 12.7 0 0 0-.75-2.58m-5.69-1.73c-.07.1-.22.12-.36.14a.46.46 0 0 1-.39-.06c-.11-.08 0-.35.34-.39s.46.21.41.31m.82 7.53c0 .06-.21.12-.54 0a1.88 1.88 0 0 1-1.07-.73 1.83 1.83 0 0 1-.31-1.26c0-.33.18-.5.23-.48s0 .79.46 1.48 1.25.87 1.23.99m1.18-.11a.25.25 0 0 1-.45.2.24.24 0 0 1 .13-.31.24.24 0 0 1 .32.11" style="fill:#fff"/>
  <path d="M67.83 319.16c-1.16.42-1.56 1.89-1.6 3.13a4.06 4.06 0 0 0 1.55 3.23 4.65 4.65 0 0 0 4.65.67 4.4 4.4 0 0 0 2.64-3.84 4.22 4.22 0 0 0-2.5-3.91 4.48 4.48 0 0 0-5.13.92" style="fill:#8478dd"/>
  <g style="opacity:.7000000000000001">
    <path d="M67.83 319.16c-1.16.42-1.56 1.89-1.6 3.13a4.06 4.06 0 0 0 1.55 3.23 4.65 4.65 0 0 0 4.65.67 4.4 4.4 0 0 0 2.64-3.84 4.22 4.22 0 0 0-2.5-3.91 4.48 4.48 0 0 0-5.13.92" style="fill:#fff"/>
  </g>
  <path d="M69.81 321.71a14.1 14.1 0 0 0-3.38-4.64 4 4 0 0 0-1.68-1 1.55 1.55 0 0 0-1.83 2.32 4.3 4.3 0 0 0 1.27 1.36 10.13 10.13 0 0 0 5.62 2" style="fill:#fff"/>
  <path d="M69.81 321.71a3 3 0 0 1-.77 0 10.6 10.6 0 0 1-2.08-.4 8.7 8.7 0 0 1-2.8-1.4 5 5 0 0 1-1.32-1.35 2 2 0 0 1 0-2 1.85 1.85 0 0 1 1.94-.61 3.9 3.9 0 0 1 1.63.95 13.4 13.4 0 0 1 2.08 2.34 12 12 0 0 1 1.03 1.76 3.5 3.5 0 0 1 .29.71s-.48-1-1.52-2.41a15 15 0 0 0-2.09-2.25 3.6 3.6 0 0 0-1.52-.87 1.55 1.55 0 0 0-1.62.5 1.63 1.63 0 0 0 0 1.7 4.5 4.5 0 0 0 1.23 1.27 8.9 8.9 0 0 0 2.7 1.43 28 28 0 0 0 2.82.63" style="fill:#263238"/>
  <path d="M71.13 321.24a14.2 14.2 0 0 0 4.22-3.9 4.06 4.06 0 0 0 .82-1.79 1.72 1.72 0 0 0-.74-1.73 1.75 1.75 0 0 0-1.77.18 4.4 4.4 0 0 0-1.21 1.42 10.17 10.17 0 0 0-1.32 5.82" style="fill:#fff"/>
  <path d="M71.13 321.24a3.2 3.2 0 0 1-.06-.77 11 11 0 0 1 .15-2.11 8.7 8.7 0 0 1 1.07-2.94 4.8 4.8 0 0 1 1.18-1.42 1.93 1.93 0 0 1 2-.27 1.85 1.85 0 0 1 .83 1.85 3.8 3.8 0 0 1-.75 1.73 13.3 13.3 0 0 1-2.08 2.34 12 12 0 0 1-1.68 1.27 4 4 0 0 1-.68.37c0-.05.93-.59 2.21-1.8a14 14 0 0 0 2-2.34 3.7 3.7 0 0 0 .69-1.6 1.57 1.57 0 0 0-.69-1.55 1.61 1.61 0 0 0-1.69.24 4.4 4.4 0 0 0-1.11 1.37 8.8 8.8 0 0 0-1.11 2.84 28 28 0 0 0-.28 2.79" style="fill:#263238"/>
  <path d="M69.69 321.38c-.44.16-.59.72-.61 1.18a1.52 1.52 0 0 0 .59 1.22 1.73 1.73 0 0 0 1.75.25 1.64 1.64 0 0 0 1-1.44 1.59 1.59 0 0 0-.94-1.48 1.69 1.69 0 0 0-1.93.35" style="fill:#8478dd"/>
  <path d="M69.78 326s-.3 0-.75-.17a4.15 4.15 0 0 1-1.54-1.09 3.07 3.07 0 0 1-.81-1.71c-.06-.49 0-.79.09-.78s0 .3.12.75a3.35 3.35 0 0 0 .82 1.53 7.8 7.8 0 0 0 2.07 1.47m1.48 0c0 .07-.1.22-.33.26s-.42-.08-.4-.16.18-.11.35-.14.34-.06.38.04m2.88-5.54a2.3 2.3 0 0 1 .53 1.8 2.22 2.22 0 0 1-.74 1.72 9 9 0 0 0 .43-1.74 8.5 8.5 0 0 0-.22-1.78m-3.59-1.76a.36.36 0 0 1-.26.06.37.37 0 0 1-.25-.08c-.06-.07 0-.23.26-.23s.31.19.25.25m-.23 5.06s-.15.06-.36 0a1.2 1.2 0 0 1-.63-.6 1.22 1.22 0 0 1-.08-.86c.07-.21.17-.31.21-.29s-.1.51.14 1 .74.67.72.75m.79.05a.16.16 0 0 1-.11.19.15.15 0 0 1-.2-.1.16.16 0 0 1 .12-.19.16.16 0 0 1 .19.1" style="fill:#fff"/>
</svg>