<svg xmlns="http://www.w3.org/2000/svg" viewBox="0 0 350 350" width="350" height="350">
    <path d="M261.674 210.525c-2.261-10.367-5.887-20.531-3.64-36.4 2.044-14.378 9.597-27.223 20.356-28.7 7.252-.966 13.587 7.119 6.489 17.5-1.183 1.729-16.555 16.8-14 37.569l-1.435 13.818Z" style="fill:#8478dd"/>
    <path d="M261.674 210.525c-2.261-10.367-5.887-20.531-3.64-36.4 2.044-14.378 9.597-27.223 20.356-28.7 7.252-.966 13.587 7.119 6.489 17.5-1.183 1.729-16.555 16.8-14 37.569l-1.435 13.818Z" style="opacity:.2"/>
    <path d="M265.44 208.985a.47.47 0 0 0 .266-.497c-4.2-26.6 1.155-46.459 14-57.4a.473.473 0 0 0 .056-.658.473.473 0 0 0-.7-.056c-13.006 11.06-18.543 31.304-14.315 58.233a.46.46 0 0 0 .532.392Z" style="fill:#fff"/>
    <path d="M273.798 218.442c-.049-4.032 2.177-12.824 7.448-20.489 6.65-9.674 17.024-12.838 18.081-17.906 1.274-6.09-5.103-9.569-13.356-6.615-9.933 3.556-21.658 17.857-17.591 41.965Z" style="fill:#455a64"/>
    <path d="M271.089 214.2a.49.49 0 0 0 .315-.441c1.12-21.399 13.825-32.606 20.391-35.539a.507.507 0 0 0 .252-.665.49.49 0 0 0-.665-.252c-7.259 3.241-19.838 14.56-21 36.4a.507.507 0 0 0 .483.525.44.44 0 0 0 .224-.028" style="fill:#fff"/>
    <path d="m171.262 280.938-9.247 5.362a4.27 4.27 0 0 1-3.808 0l-7.203-4.2-22.204 12.852a4.2 4.2 0 0 1-3.815 0l-7.476-4.319q-1.848-1.052-2.1-2.282l-5.509-27.545a2.5 2.5 0 0 1-.042-.49v7.742a2.5 2.5 0 0 0 .042.42l5.509 27.545q.284 1.228 2.1 2.289l7.476 4.319a4.29 4.29 0 0 0 3.815 0l22.204-12.831 7.196 4.144a4.2 4.2 0 0 0 3.808 0l9.247-5.334a1.3 1.3 0 0 0 .777-1.106v-7.7a1.33 1.33 0 0 1-.77 1.134m-.357-3.29v-7.7a1.3 1.3 0 0 1-.777 1.106l-6.069 3.5 6.552 3.78a1.05 1.05 0 0 0 .294-.686" style="fill:#8478dd"/>
    <path style="fill:#8478dd" d="m128.814 276.563 4.599 2.667 6.65-3.836-12.985-7.504 1.722 8.673z"/>
    <path style="opacity:.35000000000000003" d="m128.814 276.563 4.599 2.667 6.65-3.836-12.985-7.504 1.722 8.673z"/>
    <path d="M170.905 277.648v-7.7a1.3 1.3 0 0 1-.777 1.106l-6.069 3.5 6.552 3.78a1.05 1.05 0 0 0 .294-.686m.357 3.29-9.247 5.362a3.75 3.75 0 0 1-1.911.448v7.7a3.7 3.7 0 0 0 1.911-.455l9.247-5.334a1.3 1.3 0 0 0 .777-1.106v-7.7a1.33 1.33 0 0 1-.777 1.085" style="opacity:.2"/>
    <path d="m115.36 288.351-5.509-27.545a2.5 2.5 0 0 1-.042-.49v7.742a2.5 2.5 0 0 0 .042.42l5.509 27.545a1.8 1.8 0 0 0 .168.469v-7.7a1.8 1.8 0 0 1-.168-.441" style="opacity:.25"/>
    <path d="M126.861 295.4a3.85 3.85 0 0 1-1.904-.455l-7.476-4.319a4.55 4.55 0 0 1-1.953-1.82v7.7a4.55 4.55 0 0 0 1.953 1.82l7.476 4.319a3.85 3.85 0 0 0 1.904.448 1 1 0 0 0 .217 0V295.4a.7.7 0 0 1-.217 0" style="opacity:.35000000000000003"/>
    <path d="M128.8 294.952a3.5 3.5 0 0 1-1.694.434v7.7a3.6 3.6 0 0 0 1.694-.434l22.204-12.852v-7.7Z" style="opacity:.2"/>
    <path d="m158.2 286.3-7.196-4.2v7.7l7.196 4.144a3.7 3.7 0 0 0 1.897.455v-7.7a3.7 3.7 0 0 1-1.897-.399" style="opacity:.35000000000000003"/>
    <path d="M162.015 286.3a4.29 4.29 0 0 1-3.815 0l-7.196-4.2-22.204 12.852a4.29 4.29 0 0 1-3.815 0l-7.476-4.319q-1.834-1.057-2.1-2.282l-5.502-27.545a1.75 1.75 0 0 1 .14-1.267 3.5 3.5 0 0 1 1.197-.98l10.661-6.153a4.27 4.27 0 0 1 3.808 0l27.104 15.652 6.069-3.5a4.29 4.29 0 0 1 3.815 0l7.399 4.312a1.169 1.169 0 0 1 0 2.205l-6.069 3.5 7.203 4.158a1.169 1.169 0 0 1 0 2.198Zm-21.952-10.878-12.985-7.497 2.681 13.447Zm80.885-28.567a10 10 0 0 1-2.163 5.663q-2.261 3.087-7.553 6.153a40.6 40.6 0 0 1-10.654 4.361 42 42 0 0 1-10.5 1.239 38.5 38.5 0 0 1-9.849-1.365 44.8 44.8 0 0 1-8.729-3.388q-3.024-1.582-6.349-3.5t-6.209-3.752a24.9 24.9 0 0 1-5.852-5.047 9.36 9.36 0 0 1-2.366-5.684c.042 1.218-.049 6.335 0 7.7a9.36 9.36 0 0 0 2.366 5.691 25.2 25.2 0 0 0 5.852 5.047q2.898 1.841 6.209 3.745t6.349 3.5a45.5 45.5 0 0 0 8.757 3.381 39 39 0 0 0 9.849 1.365 42 42 0 0 0 10.5-1.246 40.6 40.6 0 0 0 10.654-4.361q5.306-3.059 7.553-6.153a9.68 9.68 0 0 0 2.156-6.048c-.07-1.141.007-5.558-.021-7.301" style="fill:#8478dd"/>
    <path d="M191.982 264.236c-.63 0-1.26.049-1.883 0a38.5 38.5 0 0 1-9.849-1.365 44.8 44.8 0 0 1-8.75-3.353q-3.024-1.582-6.349-3.5t-6.209-3.752a24.9 24.9 0 0 1-5.852-5.047 9.36 9.36 0 0 1-2.366-5.684c.042 1.218-.049 6.335 0 7.7a9.36 9.36 0 0 0 2.366 5.691 25.2 25.2 0 0 0 5.852 5.047q2.898 1.841 6.209 3.745t6.349 3.5a45.5 45.5 0 0 0 8.757 3.381 39 39 0 0 0 9.849 1.365c.623 0 1.253 0 1.883-.042Z" style="opacity:.35000000000000003"/>
    <path d="M220.948 246.855a10 10 0 0 1-2.163 5.663q-2.261 3.087-7.553 6.153a40.6 40.6 0 0 1-10.654 4.361 44 44 0 0 1-8.596 1.204v7.7a42 42 0 0 0 8.596-1.204 40.6 40.6 0 0 0 10.654-4.361q5.306-3.059 7.553-6.153a9.68 9.68 0 0 0 2.156-6.048c-.042-1.155.035-5.572.007-7.315" style="opacity:.2"/>
    <path d="M169.596 242.774a10.5 10.5 0 0 0 1.4 1.211c.238-.154.469-.308.735-.462a15 15 0 0 1 4.165-1.673 14 14 0 0 1 3.99-.301 15.8 15.8 0 0 1 3.815.77 33 33 0 0 1 3.773 1.568q6.139 3.234 11.858 6.853c.497.308.959.63 1.4.938a7.2 7.2 0 0 0 2.156-1.939 3.15 3.15 0 0 0 .567-2.324 4.3 4.3 0 0 0-1.302-2.219 17.5 17.5 0 0 0-2.8-2.1q-5.726-3.633-11.858-6.846a31.5 31.5 0 0 0-3.773-1.575 15.8 15.8 0 0 0-3.815-.77 14 14 0 0 0-3.99.308 14.7 14.7 0 0 0-4.165 1.666 8.6 8.6 0 0 0-2.891 2.408 2.98 2.98 0 0 0-.532 2.296 4.9 4.9 0 0 0 1.267 2.191" style="fill:#8478dd"/>
    <path d="M169.596 242.774a10.5 10.5 0 0 0 1.4 1.211c.238-.154.469-.308.735-.462a15 15 0 0 1 4.165-1.673 14 14 0 0 1 3.99-.301 15.8 15.8 0 0 1 3.815.77 33 33 0 0 1 3.773 1.568q6.139 3.234 11.858 6.853c.497.308.959.63 1.4.938a7.2 7.2 0 0 0 2.156-1.939 3.15 3.15 0 0 0 .567-2.324 4.3 4.3 0 0 0-1.302-2.219 17.5 17.5 0 0 0-2.8-2.1q-5.726-3.633-11.858-6.846a31.5 31.5 0 0 0-3.773-1.575 15.8 15.8 0 0 0-3.815-.77 14 14 0 0 0-3.99.308 14.7 14.7 0 0 0-4.165 1.666 8.6 8.6 0 0 0-2.891 2.408 2.98 2.98 0 0 0-.532 2.296 4.9 4.9 0 0 0 1.267 2.191" style="opacity:.35000000000000003"/>
    <path d="M160.419 229.327a40.3 40.3 0 0 1 10.661-4.361 42 42 0 0 1 10.5-1.239 38.5 38.5 0 0 1 9.849 1.365 45 45 0 0 1 8.75 3.381q3.171 1.673 6.496 3.584c2.212 1.281 4.2 2.499 6.069 3.668a25.6 25.6 0 0 1 5.859 5.054 9.38 9.38 0 0 1 2.359 5.684 9.63 9.63 0 0 1-2.149 6.048q-2.254 3.094-7.553 6.16a40.3 40.3 0 0 1-10.661 4.354 42 42 0 0 1-10.5 1.246 38.7 38.7 0 0 1-9.842-1.365 45 45 0 0 1-8.757-3.381 189 189 0 0 1-12.565-7.245 25.4 25.4 0 0 1-5.852-5.054 9.35 9.35 0 0 1-2.366-5.684 9.7 9.7 0 0 1 2.149-6.055q2.261-3.087 7.553-6.16m38.892 13.734q-5.726-3.626-11.858-6.846a31.5 31.5 0 0 0-3.773-1.568 15.8 15.8 0 0 0-3.78-.777 14 14 0 0 0-3.99.308 14.5 14.5 0 0 0-4.165 1.673 8.5 8.5 0 0 0-2.891 2.401 2.98 2.98 0 0 0-.532 2.303 4.7 4.7 0 0 0 1.309 2.219 14.5 14.5 0 0 0 2.751 2.163 135 135 0 0 0 11.858 6.846 25.6 25.6 0 0 0 3.703 1.61 14.7 14.7 0 0 0 3.85.749 14.4 14.4 0 0 0 4.025-.322 14.5 14.5 0 0 0 4.165-1.673 8.6 8.6 0 0 0 2.891-2.401 3.12 3.12 0 0 0 .567-2.324 4.3 4.3 0 0 0-1.309-2.219 16 16 0 0 0-2.821-2.142m75.047-21.651-9.247 5.334a4.2 4.2 0 0 1-3.808 0L254.1 222.6l-22.239 12.845a3.8 3.8 0 0 1-1.904.448 3.85 3.85 0 0 1-1.911-.448l-7.476-4.326q-1.834-1.05-2.1-2.282l-5.509-27.545a3.5 3.5 0 0 1 0-.49v7.742a4 4 0 0 0 0 .427l5.509 27.545c.189.819.896 1.575 2.1 2.282l7.476 4.319a3.85 3.85 0 0 0 1.911.455 3.8 3.8 0 0 0 1.904-.455L254.1 230.3l7.196 4.158a4.27 4.27 0 0 0 3.808 0l9.247-5.334a1.3 1.3 0 0 0 .777-1.106v-7.7a1.3 1.3 0 0 1-.77 1.092m-.35-3.29v-7.7a1.3 1.3 0 0 1-.777 1.099l-6.076 3.5 6.559 3.78a1.1 1.1 0 0 0 .294-.679" style="fill:#8478dd"/>
    <path style="fill:#8478dd" d="m231.91 217.042 4.599 2.667 6.657-3.836-12.992-7.504 1.729 8.673z"/>
    <path style="opacity:.35000000000000003" d="m231.91 217.042 4.599 2.667 6.657-3.836-12.992-7.504 1.729 8.673z"/>
    <path d="M274.008 218.12v-7.7a1.3 1.3 0 0 1-.777 1.099l-6.076 3.5 6.559 3.78a1.1 1.1 0 0 0 .294-.679m.35 3.29-9.247 5.334a3.7 3.7 0 0 1-1.904.455v7.7a3.75 3.75 0 0 0 1.904-.448l9.247-5.334a1.3 1.3 0 0 0 .777-1.106v-7.7a1.3 1.3 0 0 1-.777 1.099" style="opacity:.2"/>
    <path d="m218.456 228.823-5.509-27.545a3.5 3.5 0 0 1 0-.49v7.742a4 4 0 0 0 0 .427l5.509 27.545a1.8 1.8 0 0 0 .175.462v-7.7a1.8 1.8 0 0 1-.175-.441" style="opacity:.25"/>
    <path d="M229.964 235.9a3.85 3.85 0 0 1-1.911-.448l-7.476-4.326a4.45 4.45 0 0 1-1.946-1.813v7.7a4.46 4.46 0 0 0 1.946 1.82l7.476 4.319a3.85 3.85 0 0 0 1.911.455.7.7 0 0 0 .21 0V235.9a1 1 0 0 1-.21 0" style="opacity:.35000000000000003"/>
    <path d="M231.868 235.431a3.6 3.6 0 0 1-1.694.434v7.7a3.43 3.43 0 0 0 1.694-.434L254.1 230.3v-7.7Z" style="opacity:.2"/>
    <path d="M261.303 226.744 254.1 222.6v7.7l7.196 4.158a3.7 3.7 0 0 0 1.904.448v-7.7a3.7 3.7 0 0 1-1.897-.462" style="opacity:.35000000000000003"/>
    <path d="M265.111 226.744a4.27 4.27 0 0 1-3.808 0L254.1 222.6l-22.232 12.838a4.27 4.27 0 0 1-3.808 0l-7.483-4.319c-1.225-.7-1.932-1.463-2.1-2.282l-5.502-27.545a1.8 1.8 0 0 1 .14-1.26 3.4 3.4 0 0 1 1.197-.98l10.661-6.153a4.27 4.27 0 0 1 3.808 0l27.104 15.645 6.069-3.5a4.2 4.2 0 0 1 3.815 0l7.483 4.319a1.169 1.169 0 0 1 0 2.198l-6.069 3.5 7.196 4.151a1.169 1.169 0 0 1 0 2.205Zm-21.952-10.878-12.985-7.497 2.681 13.447Z" style="fill:#8478dd"/>
    <path d="M217.266 286.412a1.1 1.1 0 0 1 .581-.133 1.16 1.16 0 0 1 .581.133l2.275 1.323a.35.35 0 0 1 0 .665l-10.192 5.887a1.16 1.16 0 0 1-.581.14 1.1 1.1 0 0 1-.581-.14l-13.895-7.987a.357.357 0 0 1 0-.7l10.024-5.782a1.1 1.1 0 0 1 .581-.14 1.2 1.2 0 0 1 .581.14l2.275 1.316a.35.35 0 0 1 0 .665L202.3 285.6l2.324 1.337 6.153-3.549a1.1 1.1 0 0 1 .581-.133 1.2 1.2 0 0 1 .581.133l2.275 1.316a.357.357 0 0 1 0 .7l-6.153 3.549 2.415 1.4Zm3.395-10.899a1.2 1.2 0 0 1 .581-.14 1.1 1.1 0 0 1 .581.14l2.177 1.253a.357.357 0 0 1 0 .7l-1.96 1.134q-1.974 1.148 0 2.289l5.292 3.052a.357.357 0 0 1 0 .7l-2.709 1.561a1.16 1.16 0 0 1-.581.14 1.1 1.1 0 0 1-.581-.14l-10.024-5.782a.357.357 0 0 1 0-.7l2.492-1.442a1.16 1.16 0 0 1 .581-.14 1.1 1.1 0 0 1 .581.14l.497.287a2.17 2.17 0 0 1 .42-1.141 4.2 4.2 0 0 1 1.365-1.134Zm10.416-6.013a1.1 1.1 0 0 1 .581-.14 1.16 1.16 0 0 1 .581.14l2.17 1.253a.357.357 0 0 1 0 .7l-1.96 1.127q-1.974 1.141 0 2.289l5.292 3.052a.357.357 0 0 1 0 .7l-2.709 1.568a1.1 1.1 0 0 1-.581.133 1.2 1.2 0 0 1-.581-.133l-10.024-5.789a.357.357 0 0 1 0-.7l2.499-1.442a1.1 1.1 0 0 1 .581-.133 1.2 1.2 0 0 1 .581.133l.49.287a2.13 2.13 0 0 1 .42-1.134 4.2 4.2 0 0 1 1.365-1.141Zm18.501-5.166c.224.112.511.266.847.462s.609.357.805.49a4.4 4.4 0 0 1 1.463 1.4 2.56 2.56 0 0 1 .399 1.596 3.15 3.15 0 0 1-.749 1.666 7.2 7.2 0 0 1-1.995 1.596 11.4 11.4 0 0 1-2.765 1.148 12.6 12.6 0 0 1-2.877.434 12 12 0 0 1-2.765-.231 9 9 0 0 1-2.408-.84q-.348-.177-.854-.469c-.506-.292-.602-.357-.805-.49a4.3 4.3 0 0 1-1.484-1.4 2.45 2.45 0 0 1-.385-1.603 3.26 3.26 0 0 1 .749-1.673 6.8 6.8 0 0 1 1.981-1.603 11.2 11.2 0 0 1 2.8-1.148 13.7 13.7 0 0 1 2.905-.434 12 12 0 0 1 2.765.231 9 9 0 0 1 2.373.868m-6.3 5.411a3.8 3.8 0 0 0 1.876.399 3.9 3.9 0 0 0 1.848-.532q.861-.497.924-1.071c.042-.378-.182-.742-.7-1.078a7 7 0 0 0-.7-.448 9 9 0 0 0-.77-.399 3.94 3.94 0 0 0-3.724.14c-.574.329-.882.7-.924 1.064s.189.742.7 1.085a8.2 8.2 0 0 0 1.463.84Zm11.893-14.154a1.1 1.1 0 0 1 .581-.14 1.16 1.16 0 0 1 .581.14l2.17 1.253a.357.357 0 0 1 0 .7l-1.96 1.127q-1.974 1.141 0 2.289l5.292 3.052a.357.357 0 0 1 0 .7l-2.709 1.561a1.1 1.1 0 0 1-.581.14 1.2 1.2 0 0 1-.581-.14l-10.024-5.782a.357.357 0 0 1 0-.7l2.499-1.442a1.1 1.1 0 0 1 .581-.14 1.2 1.2 0 0 1 .581.14l.49.287a2.17 2.17 0 0 1 .42-1.141 4.2 4.2 0 0 1 1.365-1.134Z" style="fill:#455a64"/>
    <path d="M106.813 192.052c-2.954-.119-4.256.175-3.801 3.297s.595 5.53.595 5.53 5.257.154 7.7-1.211-.056-7.441-4.494-7.616" style="fill:#8478dd"/>
    <path d="M106.813 192.052c-2.954-.119-4.256.175-3.801 3.297s.595 5.53.595 5.53 5.257.154 7.7-1.211-.056-7.441-4.494-7.616" style="opacity:.5"/>
    <path d="M107.282 205.464a3.5 3.5 0 0 1-.574-.056 2.98 2.98 0 0 1-2.345-3.5c.763-3.878 1.519-6.874 2.191-9.513a76 76 0 0 0 2.205-11.2 28.7 28.7 0 0 0-3.626-16.905 2.968 2.968 0 1 1 5.11-3.031 34.5 34.5 0 0 1 4.424 20.58 80 80 0 0 1-2.352 11.998c-.644 2.569-1.4 5.481-2.1 9.205a2.975 2.975 0 0 1-2.933 2.422m-7.112 4.018a3.7 3.7 0 0 0 0 1.743c.413.77 2.702 1.715 3.906 2.212a7 7 0 0 1 3.794 3.5c1.344 2.457 3.794 4.116 6.531 5.159a19.2 19.2 0 0 0 11.41.413c4.683-1.169 4.9-3.99 4.9-3.99s.07-2.646-1.134-2.982-29.407-6.055-29.407-6.055" style="fill:#455a64"/>
    <path d="M102.06 199.654a19 19 0 0 1-.567 2.464c-.7 2.219-1.785 4.508-1.323 7.364.77 1.4 2.38 1.89 3.584 2.422 1.617.7 2.8 1.197 3.941 2.597 2.1 2.513 4.067 5.691 10.353 6.51s10.864-1.47 11.9-3.318-.126-3.437-4.249-5.313c-2.1-.959-6.867-4.9-7.413-5.404a10.5 10.5 0 0 1-1.344-1.687 10.2 10.2 0 0 1-1.68-4.2 14.7 14.7 0 0 1 .231-4.781c.07-.364.252-.742.098-1.071-.399-.882-1.778-.651-2.541-.588a24.5 24.5 0 0 0-3.388.581 1.93 1.93 0 0 0-1.008.427 2.03 2.03 0 0 0-.441.966q-.219.791-.469 1.561a1.44 1.44 0 0 1-.616.917.91.91 0 0 1-1.022-.252 1.68 1.68 0 0 1-.385-1.022c0-.378 0-.749.042-1.12a1.75 1.75 0 0 0-.203-1.036c-.413-.651-1.456-.756-1.722-1.477a1.12 1.12 0 0 1 .315-1.127 1.98 1.98 0 0 1 1.127-.462 9 9 0 0 1 1.225 0l.224-.868a5.37 5.37 0 0 0-2.863.364 2.6 2.6 0 0 0-1.309 1.232 3.73 3.73 0 0 0-.105 2.149c.175 1.638-.126 2.534-.392 4.172" style="fill:#8478dd"/>
    <path d="M102.06 199.654a19 19 0 0 1-.567 2.464c-.7 2.219-1.785 4.508-1.323 7.364.77 1.4 2.38 1.89 3.584 2.422 1.617.7 2.8 1.197 3.941 2.597 2.1 2.513 4.067 5.691 10.353 6.51s10.864-1.47 11.9-3.318-.126-3.437-4.249-5.313c-2.1-.959-6.867-4.9-7.413-5.404a10.5 10.5 0 0 1-1.344-1.687 10.2 10.2 0 0 1-1.68-4.2 14.7 14.7 0 0 1 .231-4.781c.07-.364.252-.742.098-1.071-.399-.882-1.778-.651-2.541-.588a24.5 24.5 0 0 0-3.388.581 1.93 1.93 0 0 0-1.008.427 2.03 2.03 0 0 0-.441.966q-.219.791-.469 1.561a1.44 1.44 0 0 1-.616.917.91.91 0 0 1-1.022-.252 1.68 1.68 0 0 1-.385-1.022c0-.378 0-.749.042-1.12a1.75 1.75 0 0 0-.203-1.036c-.413-.651-1.456-.756-1.722-1.477a1.12 1.12 0 0 1 .315-1.127 1.98 1.98 0 0 1 1.127-.462 9 9 0 0 1 1.225 0l.224-.868a5.37 5.37 0 0 0-2.863.364 2.6 2.6 0 0 0-1.309 1.232 3.73 3.73 0 0 0-.105 2.149c.175 1.638-.126 2.534-.392 4.172" style="opacity:.35000000000000003"/>
    <path d="M113.876 219.919a8.15 8.15 0 0 1 4.2-7.168c4.515-2.702 7.462-1.351 8.967-.42 1.785 1.113 4.396 3.5 3.038 5.474-1.463 2.1-3.962 3.241-8.729 3.619s-7.476-1.505-7.476-1.505m-6.23-16.219a.53.53 0 0 0 .448-.175c.623-.665 4.41-2.954 7.273-1.778.07-.105.189-.805-.154-1.022a8.93 8.93 0 0 0-7.924 2.1.507.507 0 0 0 .049.7.6.6 0 0 0 .308.175m8.925 1.043a1.47 1.47 0 0 0-.462-1.071c-3.262-.462-6.538 1.589-7.259 2.366a.507.507 0 0 0 .056.7.53.53 0 0 0 .308.126.53.53 0 0 0 .448-.168c.602-.623 4.333-2.786 6.909-1.953m4.935 4.851c-.049-.336-.7-.84-1.253-.98-3.605-.245-6.65 2.499-7.245 3.409a.497.497 0 0 0 .168.7.56.56 0 0 0 .329.077.56.56 0 0 0 .413-.238c.532-.805 4.172-3.878 7.588-2.968M111.09 210a.58.58 0 0 0 .427-.217c.525-.735 3.689-3.5 6.944-2.667 0-.287-.574-.854-.868-.931-3.227-.294-6.349 2.149-7 3.01a.507.507 0 0 0 .133.7.58.58 0 0 0 .364.105" style="fill:#fafafa"/>
    <path d="M73.962 202.377c-2.94-.238-4.263 0-3.934 3.136s.364 5.551.364 5.551 5.243.371 7.742-.889.266-7.434-4.172-7.798" style="fill:#8478dd"/>
    <path d="M73.962 202.377c-2.94-.238-4.263 0-3.934 3.136s.364 5.551.364 5.551 5.243.371 7.742-.889.266-7.434-4.172-7.798" style="opacity:.5"/>
    <path d="M73.871 215.796a3.5 3.5 0 0 1-.574-.077 2.97 2.97 0 0 1-2.191-3.591c.924-3.843 1.806-6.797 2.583-9.415a75 75 0 0 0 2.674-11.081 28.7 28.7 0 0 0-2.912-17.038 2.975 2.975 0 0 1 5.236-2.8 34.6 34.6 0 0 1 3.556 20.706 80 80 0 0 1-2.856 11.9c-.756 2.541-1.61 5.418-2.499 9.1a2.975 2.975 0 0 1-3.017 2.296m-7.273 3.717a3.7 3.7 0 0 0-.091 1.743c.378.784 2.618 1.827 3.801 2.373a7 7 0 0 1 3.64 3.682c1.246 2.506 3.626 4.27 6.3 5.425a19.2 19.2 0 0 0 11.382.889c4.725-.966 5.04-3.78 5.04-3.78s.182-2.639-1.008-3.024-29.064-7.308-29.064-7.308" style="fill:#455a64"/>
    <path d="M68.894 209.776a19 19 0 0 1-.7 2.436c-.77 2.191-1.974 4.424-1.631 7.301.7 1.4 2.289 1.988 3.5 2.576 1.589.784 2.73 1.309 3.829 2.758 1.974 2.597 3.822 5.859 10.073 6.937s10.92-1.015 12.026-2.8 0-3.437-4.025-5.488c-2.051-1.043-6.657-5.166-7.182-5.705a11.73 11.73 0 0 1-2.8-6.006 14.9 14.9 0 0 1 .427-4.767c.091-.357.287-.7.147-1.071-.364-.896-1.75-.7-2.513-.7a24.5 24.5 0 0 0-3.409.441 1.93 1.93 0 0 0-1.029.385 2.1 2.1 0 0 0-.483.945q-.24.779-.532 1.547a1.44 1.44 0 0 1-.651.882.91.91 0 0 1-1.008-.287 1.65 1.65 0 0 1-.343-1.043 11 11 0 0 1 .091-1.12 1.8 1.8 0 0 0-.161-1.043c-.385-.665-1.4-.812-1.659-1.547a1.07 1.07 0 0 1 .364-1.106 1.86 1.86 0 0 1 1.141-.413 9 9 0 0 1 1.232 0l.252-.854a5.4 5.4 0 0 0-2.877.238 2.6 2.6 0 0 0-1.358 1.183 3.8 3.8 0 0 0-.196 2.135c.147 1.68-.189 2.555-.525 4.186" style="fill:#8478dd"/>
    <path d="M68.894 209.776a19 19 0 0 1-.7 2.436c-.77 2.191-1.974 4.424-1.631 7.301.7 1.4 2.289 1.988 3.5 2.576 1.589.784 2.73 1.309 3.829 2.758 1.974 2.597 3.822 5.859 10.073 6.937s10.92-1.015 12.026-2.8 0-3.437-4.025-5.488c-2.051-1.043-6.657-5.166-7.182-5.705a11.73 11.73 0 0 1-2.8-6.006 14.9 14.9 0 0 1 .427-4.767c.091-.357.287-.7.147-1.071-.364-.896-1.75-.7-2.513-.7a24.5 24.5 0 0 0-3.409.441 1.93 1.93 0 0 0-1.029.385 2.1 2.1 0 0 0-.483.945q-.24.779-.532 1.547a1.44 1.44 0 0 1-.651.882.91.91 0 0 1-1.008-.287 1.65 1.65 0 0 1-.343-1.043 11 11 0 0 1 .091-1.12 1.8 1.8 0 0 0-.161-1.043c-.385-.665-1.4-.812-1.659-1.547a1.07 1.07 0 0 1 .364-1.106 1.86 1.86 0 0 1 1.141-.413 9 9 0 0 1 1.232 0l.252-.854a5.4 5.4 0 0 0-2.877.238 2.6 2.6 0 0 0-1.358 1.183 3.8 3.8 0 0 0-.196 2.135c.147 1.68-.189 2.555-.525 4.186" style="opacity:.35000000000000003"/>
    <path d="M79.849 230.517a8.15 8.15 0 0 1 4.494-7c4.627-2.513 7.518-1.043 8.981-.042 1.736 1.183 4.242 3.689 2.8 5.6-1.554 2.051-4.095 3.073-8.876 3.248s-7.399-1.806-7.399-1.806m-5.537-16.499a.53.53 0 0 0 .455-.147c.644-.644 4.522-2.8 7.336-1.47.077-.112.224-.798-.112-1.029a8.93 8.93 0 0 0-8.008 1.778.497.497 0 0 0 0 .7.53.53 0 0 0 .329.168m8.869 1.456a1.4 1.4 0 0 0-.42-1.092c-3.234-.602-6.594 1.309-7.343 2.058a.497.497 0 0 0 0 .7.553.553 0 0 0 .756 0c.651-.609 4.466-2.611 7.007-1.666m4.725 5.026c0-.336-.7-.868-1.211-1.029-3.591-.399-6.748 2.219-7.385 3.101a.497.497 0 0 0 .147.7.53.53 0 0 0 .322.091.56.56 0 0 0 .427-.224c.56-.749 4.326-3.668 7.7-2.639m-10.43 0a.58.58 0 0 0 .441-.203c.56-.7 3.829-3.346 7.049-2.373.035-.287-.539-.868-.826-.966-3.213-.427-6.433 1.883-7.084 2.716a.497.497 0 0 0 .105.7.53.53 0 0 0 .315.126" style="fill:#fafafa"/>
    <path d="M149.842 150.78c-2.842 0-6.384-1.001-10.318-3.682a2.1 2.1 0 0 1 2.401-3.5c5.292 3.612 9.1 3.192 10.5 2.373a3 3 0 0 0 1.155-2.163c.336-2.1-.35-5.474-3.276-8.778-6.188-7-13.951-10.577-25.963-12.012a2.1 2.1 0 0 1 .504-4.2c12.964 1.54 21.791 5.677 28.637 13.412 3.318 3.745 4.9 8.33 4.298 12.264a7 7 0 0 1-3.213 5.152 9.3 9.3 0 0 1-4.725 1.134" style="fill:#455a64"/>
    <path d="M122.976 96.306c3.213-3.031 6.048-11.935 4.585-21.287s-10.101-18.095-13.545-19.992-5.866.553-4.9 4.046c1.274 4.739 2.863 15.4-5.992 20.111a31.1 31.1 0 0 0 5.845 12.516c4.564 5.509 14.007 4.606 14.007 4.606" style="fill:#8478dd"/>
    <path d="M122.976 96.306c3.213-3.031 6.048-11.935 4.585-21.287s-10.101-18.095-13.545-19.992-5.866.553-4.9 4.046c1.274 4.739 2.863 15.4-5.992 20.111a31.1 31.1 0 0 0 5.845 12.516c4.564 5.509 14.007 4.606 14.007 4.606" style="fill:#fff;opacity:.75"/>
    <path d="M110.964 60.9a7.7 7.7 0 0 1-2.268-.336.44.44 0 0 1-.28-.539.427.427 0 0 1 .539-.273c2.8.889 6.545-.147 7.49-3.059a.42.42 0 1 1 .805.259c-.847 2.625-3.612 3.948-6.286 3.948m3.185 5.887a9.3 9.3 0 0 1-4.676-1.302.427.427 0 0 1 .42-.742 8.23 8.23 0 0 0 6.3.945c3.864-.931 4.69-3.192 4.865-4.123a.427.427 0 1 1 .833.154c-.21 1.092-1.155 3.745-5.502 4.795a9.8 9.8 0 0 1-2.24.273m4.396 7.364a12.88 12.88 0 0 1-9.478-3.99.427.427 0 0 1 0-.602.42.42 0 0 1 .602 0 12 12 0 0 0 8.862 3.717c5.46 0 7.077-2.562 7.77-3.654a.42.42 0 0 1 .588-.133.427.427 0 0 1 .133.588c-.693 1.127-2.555 4.074-8.477 4.074m2.226 8.54a15.6 15.6 0 0 1-4.956-.805c-4.018-1.358-6.923-3.689-8.624-6.923a.427.427 0 0 1 .749-.399c1.624 3.087 4.284 5.215 8.148 6.517 5.32 1.792 10.402 0 11.823-1.302a.427.427 0 0 1 .574.623c-1.085 1.029-4.067 2.289-7.714 2.289" style="fill:#8478dd"/>
    <path d="M110.033 88.711c7.623-8.701 4.676-22.4 2.8-26.348-2.639-5.53-1.519-7.959.791-7.525-3.227-1.498-5.432.882-4.536 4.2 1.274 4.739 2.863 15.4-5.992 20.111a31.7 31.7 0 0 0 5.026 11.41 17 17 0 0 0 1.911-1.848" style="opacity:.1"/>
    <path d="M129.976 147.945c-2.59-6.3-3.878-23.737-3.346-35.189 1.736-.364 3.857-2.73 3.003-5.789-.77-2.751-1.519-3.115-3.843-6.083-1.652-2.1-2.8-4.9-4.284-7.196-5.096-7.798-11.571-12.999-21.105-15.246a2.947 2.947 0 0 1-2.149-3.682c.609-2.1 1.127-4.844.49-6.86-1.183-3.724-3.535-4.102-5.089-3.409s-1.673 2.233-1.204 4.732-.266 2.94-1.099 2.674-1.456-4.816-7.273-6.951-9.744.7-9.646 3.066c.105 2.625 2.009 2.8 6.048 3.262a8.05 8.05 0 0 1 4.697 2.1 2.961 2.961 0 0 1-1.533 4.942c-14.791 3.283-26.243 15.61-29.526 32.242a72 72 0 0 0-1.036 9.037 7.8 7.8 0 0 0-4.662-3.57c-2.856-.7-3.99.665-3.948 1.939s1.624 1.883 3.227 2.548c2.569 1.064 2.989 2.051 2.989 2.051a8 8 0 0 0-3.976.399c-1.757.777-2.219 2.674-.518 3.402.945.399 2.394-.322 3.885-.7.938-.217 2.674-.567 2.8.56 0 2.639 0 5.39.063 8.225.217 7.987 1.617 13.454.343 20.699-.973 5.488-5.775 9.8-.952 14.357a7.46 7.46 0 0 0 6.65 1.841 3.027 3.027 0 0 1 3.5 2.324c.539 2.275 2.184 5.047 6.832 6.3 4.284 1.134 7-.168 8.701-1.757a2.887 2.887 0 0 1 4.2.112c1.785 2.135 5.096 4.424 11.081 4.396s8.995-2.625 10.5-4.837a2.97 2.97 0 0 1 3.955-.973c2.268 1.344 5.922 2.422 10.5 0 3.381-1.806 4.256-5.047 4.34-7.7a2.92 2.92 0 0 1 3.318-2.8 6.755 6.755 0 0 0 7.063-2.996c3.199-4.872-.672-9.793-2.996-15.47" style="fill:#8478dd"/>
    <path d="M47.698 120.512c2.569 1.064 2.989 2.051 2.989 2.051a8 8 0 0 0-3.976.399c-1.757.777-2.219 2.674-.518 3.402.945.399 2.394-.322 3.885-.7.938-.217 2.674-.567 2.8.56 0 2.639 0 5.39.063 8.225.217 7.987 1.617 13.454.343 20.699-.973 5.488-5.775 9.8-.952 14.357a7.05 7.05 0 0 0 3.563 1.834c-.147-.077-2.401-3.703.259-8.932 3.738-7.357 3.5-11.956 2.527-26.859-1.197-18.2 1.036-26.019 7.651-38.899C73.115 83.447 83.895 82.81 88.473 79.31c2.492-1.904 1.638-5.355-.539-7.546-1.827-1.841-4.683-2.59-6.37-2.765-3.682-.378-7.105-1.022-6.412-2.863a2.75 2.75 0 0 0-.7 1.841c.105 2.625 2.009 2.8 6.048 3.262a8.05 8.05 0 0 1 4.697 2.1 2.961 2.961 0 0 1-1.533 4.942C68.852 81.599 57.4 93.926 54.117 110.558a72 72 0 0 0-1.036 9.037 7.8 7.8 0 0 0-4.662-3.57c-2.856-.7-3.99.665-3.948 1.939s1.624 1.883 3.227 2.548m18.606 53.263c-1.876-2.478-3.395-2.884-6.006-2.331a3.03 3.03 0 0 1 2.17 2.254c.539 2.275 2.184 5.047 6.832 6.3 3.024.805 5.285.385 6.937-.49-6.727 1.442-8.05-3.262-9.933-5.733m32.256 8.092c-3.311.434-6.412-.315-9.898-2.87-3.759-2.751-5.6-2.492-7.924-1.561a2.68 2.68 0 0 1 1.47.896c1.785 2.135 5.096 4.424 11.081 4.396a15.8 15.8 0 0 0 5.271-.861M93.989 68.138c-.126-2.212 1.281-3.878 3.017-3.15a3.12 3.12 0 0 0-3.353-.497c-1.561.7-1.673 2.233-1.204 4.732s-.266 2.94-1.099 2.674a.88.88 0 0 1-.378-.392c.644 1.4 1.267 2.8 2.723 2.044s.42-3.206.294-5.411" style="opacity:.1"/>
    <path d="M79.905 118.601a4.54 4.54 0 0 0 4.55 3.374c3.745-.049 4.158-1.75 5.691-4.074s4.83-2.842 7.7-2.891a4.655 4.655 0 0 0 4.004-6.58 4.03 4.03 0 0 1-1.904 3.843c-2.296 1.498-5.348.147-8.351 1.582s-3.262 4.676-5.467 5.705a6.06 6.06 0 0 1-6.223-.959" style="opacity:.2"/>
    <path d="M97.447 116.662a5.6 5.6 0 0 1-10.409 2.261c1.484-1.4 2.044-3.78 4.55-5.068 1.981-1.008 3.5-.546 5.145-.595a5.64 5.64 0 0 1 .714 3.402" style="fill:#455a64"/>
    <path d="M83.825 120.4a5.6 5.6 0 0 1-5.502-3.374.427.427 0 0 1 .217-.56.42.42 0 0 1 .56.217c.644 1.456 2.1 3.129 5.467 2.835 1.883-.161 2.611-1.288 3.5-2.716a8.6 8.6 0 0 1 3.297-3.353 7.35 7.35 0 0 1 4.116-.7 6.13 6.13 0 0 0 4.382-1.015 3.33 3.33 0 0 0 1.519-2.8 4.9 4.9 0 0 0-1.358-3.5.427.427 0 0 1-.091-.595.413.413 0 0 1 .588-.091c.847.616 1.736 2.443 1.708 4.2a4.2 4.2 0 0 1-1.89 3.5 6.93 6.93 0 0 1-4.9 1.162 6.5 6.5 0 0 0-3.689.581 7.7 7.7 0 0 0-2.968 3.052c-.924 1.4-1.883 2.905-4.2 3.101-.224.056-.497.056-.756.056" style="fill:#455a64"/>
    <path d="M95.984 116.053a1.547 1.547 0 1 1-1.526-1.561 1.54 1.54 0 0 1 1.526 1.561" style="fill:#f5f5f5"/>
    <path d="m126.623 112.945-.371-.189a3.9 3.9 0 0 1-2.1-.784c-.749-.7-1.589-2.961-3.983-3.542s-3.738.581-6.398.7-3.549-1.722-4.081-3.262c-.287 2.611.455 4.361 2.345 5.131 2.1.854 5.908-.938 7.532 0s2.562 2.877 4.585 3.101a3.6 3.6 0 0 0 2.415-.483c.035-.217.049-.448.056-.672" style="opacity:.2"/>
    <path d="M124.18 112a5.383 5.383 0 0 1-10.57-1.918 5.3 5.3 0 0 1 .189-.931c1.974-.049 3.773-1.4 6.398-.7 2.303.616 2.464 2.443 3.983 3.549" style="fill:#455a64"/>
    <path d="M126.567 113.183a5.4 5.4 0 0 1-1.715-.364 5.2 5.2 0 0 1-2.366-2.1 4.1 4.1 0 0 0-2.408-1.911 7 7 0 0 0-3.983.266c-1.463.413-2.975.84-4.774-.245a4.27 4.27 0 0 1-1.897-4.9.42.42 0 0 1 .539-.259.427.427 0 0 1 .259.546 3.46 3.46 0 0 0 1.533 3.885c1.491.896 2.702.553 4.109.161a7.7 7.7 0 0 1 4.445-.273 4.9 4.9 0 0 1 2.891 2.261 4.45 4.45 0 0 0 1.995 1.778 4.7 4.7 0 0 0 1.449.301.44.44 0 0 1 .441.406.42.42 0 0 1-.406.441Z" style="fill:#455a64"/>
    <path d="M121.849 111.685a1.442 1.442 0 1 1-1.4-1.456 1.4 1.4 0 0 1 1.4 1.456" style="fill:#f5f5f5"/>
    <path d="M104.867 123.648c-7.273 3.255-13.664 9.688-16.618 16.8-1.82 4.375-.826 8.008 1.61 8.834 4.816 1.624 10.213-5.88 15.582-8.498s9.737-.084 12.46-1.841c3.206-2.065 2.737-7.336 1.015-11.095-1.918-4.214-6.769-7.448-14.049-4.2" style="fill:#455a64"/>
    <path d="M117.719 139.027c-2.667-9.275-11.375-12.166-20.209-10.766a32.4 32.4 0 0 0-9.261 12.173c-1.82 4.375-.826 8.008 1.61 8.834 4.816 1.624 10.213-5.88 15.582-8.498 5.194-2.534 9.541-.203 12.278-1.743" style="fill:#f28f8f"/>
    <path d="M112 139.51c-8.939-2.401-14.7 5.278-17.535 5.208s-4.2-2.541-.273-8.806 12.327-7.98 15.995-6.146c-3.661-1.806-8.134-2.219-12.649-1.505a32.4 32.4 0 0 0-9.261 12.173c-1.82 4.368-.826 8.008 1.61 8.834 4.816 1.624 10.213-5.88 15.582-8.498a13.65 13.65 0 0 1 6.531-1.26" style="opacity:.1"/>
    <path d="M115.402 130.634c-1.722.749-1.701 3.038-3.122 7.903-.098.343-.196.7-.294.98 2.394.056 4.417.378 5.915-.588a4.6 4.6 0 0 0 .819-.7c.35-3.675-1.498-8.386-3.318-7.595" style="fill:#f5f5f5"/>
    <path d="M118.72 138.243a11 11 0 0 0 .035-1.316 3.54 3.54 0 0 1-2.002 1.33 8.8 8.8 0 0 1-2.765 0s.448-2.842.896-5.285c.294-1.638 1.274-2.352 2.058-1.785-.483-.539-1.008-.784-1.54-.553-1.722.749-1.701 3.038-3.122 7.903-.098.343-.196.7-.294.98 2.394.056 4.417.378 5.915-.588a4.6 4.6 0 0 0 .819-.686" style="fill:#e0e0e0"/>
    <path d="M96.929 136.675c-1.729.749-1.701 3.038-3.122 7.903-.623 2.1-1.155 3.696-1.568 4.816 2.569-.49 5.264-2.8 8.001-5.019.385-3.675-1.477-8.498-3.311-7.7" style="fill:#f5f5f5"/>
    <path d="M100.24 144.368a10.5 10.5 0 0 0 0-1.827c-2.723 1.764-4.361 3.654-4.795 3.416s-.056-2.149.126-4.249c.224-2.541.539-5.173 2.233-4.991a1.05 1.05 0 0 0-.896-.042c-1.729.749-1.701 3.038-3.122 7.903-.623 2.1-1.155 3.696-1.568 4.816 2.569-.49 5.264-2.8 8.001-5.019Z" style="fill:#e0e0e0"/>
    <path d="M37.632 168.273a2.3 2.3 0 0 1-.7-.112 2.1 2.1 0 0 1-1.337-2.688c5.705-16.863 13.986-23.989 25.564-30.023a2.1 2.1 0 0 1 1.96 3.766c-10.913 5.684-18.249 12.026-23.471 27.608a2.135 2.135 0 0 1-2.016 1.449" style="fill:#455a64"/>
    <path d="M36.134 163.954c-.889 2.31-2.247 3.241-3.542 4.606s-2.695 2.191-4.046 4.319-1.988 5.74-1.582 7.427c.224.952 1.547.959 1.624.126.287-3.108.805-5.782 2.982-7.441a18.2 18.2 0 0 0-1.673 5.726c-.196 2.73.168 5.992 1.295 6.153s1.092-.994.931-2.639-.308-5.985 1.883-9.1c0 0-.784 4.578 0 7.504s2.296 5.012 3.136 4.655.798-.917-.112-3.164c-.7-1.743-.7-3.955-.49-5.831a6.88 6.88 0 0 1 1.904-4.578 3.85 3.85 0 0 1 1.617-1.036 2.38 2.38 0 0 1 1.932.63 5.43 5.43 0 0 1 1.701 3.332c.196 1.47 2.625 1.603 1.722-2.527s-5.992-4.858-4.718-8.232Zm105.735-15.463 1.939-3.752c-3.01-1.568.434-6.181-1.309-10.038s-3.605-2.303-2.891-1.008a4.8 4.8 0 0 1 .623 3.689c-.294 1.029-.959 1.631-1.666 1.022s-1.162-2.611-3.759-4.816a9.17 9.17 0 0 0-5.6-2.394c-2.03 0-1.316 1.4-.343 1.799 4.2 1.68 4.718 2.618 5.768 3.99s.917 2.156.371 1.995-1.4-1.351-3.934-2.527-5.397-1.169-5.838-.63-.392 1.232.826 1.519a23 23 0 0 1 5.187 1.743c1.785 1.029 2.597 2.359 2.303 2.744s-1.82-.7-4.144-1.12-3.5-.427-4.48-.049c-.7.273-.455 1.708 1.673 1.813a14 14 0 0 1 6.104 1.981 20.3 20.3 0 0 0 3.542 2.058 54 54 0 0 0 5.628 1.981" style="fill:#455a64"/>
    <path d="M72.366 91.819c2.457 1.288 6.398 7.994 1.568 15.127a14.23 14.23 0 0 1-14.805 6.335c-1.96-.952-12.222-5.404-12.726-19.6S54.6 74.081 56.812 72.8s6.538-1.631 5.999 3.227-1.05 9.17 2.478 12.292c2.772 2.471 7.077 3.5 7.077 3.5" style="fill:#8478dd"/>
    <path d="M72.366 91.819c2.457 1.288 6.398 7.994 1.568 15.127a14.23 14.23 0 0 1-14.805 6.335c-1.96-.952-12.222-5.404-12.726-19.6S54.6 74.081 56.812 72.8s6.538-1.631 5.999 3.227-1.05 9.17 2.478 12.292c2.772 2.471 7.077 3.5 7.077 3.5" style="fill:#fff;opacity:.75"/>
    <path d="M53.991 110.264a11 11 0 0 1-1.029-.049.427.427 0 0 1-.378-.469.427.427 0 0 1 .469-.378c2.1.231 8.638-.245 13.139-5.152 4.599-5.019 4.788-9.912 4.13-13.132a.42.42 0 0 1 .329-.497.427.427 0 0 1 .504.329c.7 3.409.504 8.589-4.34 13.874-4.151 4.529-9.947 5.474-12.824 5.474m-2.604-9.366a23 23 0 0 1-4.634-.448.42.42 0 1 1 .182-.826c.322.07 7.938 1.722 13.391-1.939 4.942-3.311 5.376-7.308 5.558-9.016a.427.427 0 0 1 .469-.378.413.413 0 0 1 .371.469c-.175 1.666-.651 6.097-5.922 9.632-3.003 2.016-6.608 2.506-9.415 2.506m2.03-11.298a13.13 13.13 0 0 1-7.266-1.953.42.42 0 1 1 .462-.7c1.4.924 4.536 2.359 9.597 1.589 3.997-.609 5.733-1.897 7-3.192a.42.42 0 1 1 .602.595c-1.4 1.4-3.234 2.8-7.476 3.437a19 19 0 0 1-2.919.224m4.459-8.19a10.2 10.2 0 0 1-2.562-.343 7.21 7.21 0 0 1-4.851-3.717.427.427 0 0 1 .189-.574.42.42 0 0 1 .567.189 6.3 6.3 0 0 0 4.305 3.283 8.45 8.45 0 0 0 7-1.12.413.413 0 0 1 .588.119.42.42 0 0 1-.119.588 9.2 9.2 0 0 1-5.117 1.575" style="fill:#8478dd"/>
    <path d="M64.666 108.22c-3.094-.287-7-1.162-10.325-6.3s-4.396-15.855-1.337-22.309c2.016-4.249 6.041-8.141 8.946-6.839-1.295-1.211-3.689-.777-5.138.056-2.184 1.26-10.913 6.685-10.409 20.874s10.766 18.634 12.726 19.6a14.23 14.23 0 0 0 14.805-6.335c3.234-4.774 2.534-9.359.987-12.257 2.422 7.588-5.621 13.93-10.255 13.51" style="opacity:.1"/>
    <path d="M71.022 106.75s-3.654 4.025-3.682 7.889a3.682 3.682 0 1 0 7.357 0c-.028-3.864-3.675-7.889-3.675-7.889" style="fill:#fafafa"/>
    <path d="m196 42.483-45.122 26.033a1.87 1.87 0 0 0-.854 1.47v28.378a1.86 1.86 0 0 0 .854 1.463l3.045 1.701a1.89 1.89 0 0 0 1.701 0l45.143-26.026a1.89 1.89 0 0 0 .847-1.47V45.647a1.86 1.86 0 0 0-.854-1.463l-3.045-1.708a1.93 1.93 0 0 0-1.715.007" style="fill:#8478dd"/>
    <path d="M154.777 101.031V72.653a1.89 1.89 0 0 1 .847-1.47l45.143-26.026c.469-.273.847-.049.847.49v28.378a1.89 1.89 0 0 1-.847 1.47L155.624 101.5c-.469.294-.847.07-.847-.469" style="fill:#8478dd"/>
    <path d="M155.624 101.5a1.87 1.87 0 0 1-1.701 0l-3.045-1.715a1.84 1.84 0 0 1-.854-1.456V70a1.75 1.75 0 0 1 .273-.868l4.732 2.702a1.65 1.65 0 0 0-.252.833v28.378c0 .455.35.77.847.455" style="opacity:.2"/>
    <path d="M201.6 45.5c-.063-.427-.413-.581-.84-.336L155.631 71.19a1.75 1.75 0 0 0-.602.637l-4.739-2.702a1.7 1.7 0 0 1 .588-.602L196 42.483a1.93 1.93 0 0 1 1.701 0l3.045 1.708a1.87 1.87 0 0 1 .854 1.309" style="fill:#fff;opacity:.4"/>
    <path d="m150.024 80.066-6.832 6.951a.756.756 0 0 0 .126 1.162c.14.098 4.732 2.723 4.732 2.723l6.727-8.099Z" style="fill:#8478dd"/>
    <path d="m150.024 80.066-6.832 6.951a.756.756 0 0 0 .126 1.162c.14.098 4.732 2.723 4.732 2.723l6.727-8.099Z" style="opacity:.1"/>
    <path d="m154.777 82.803-6.832 6.951a.756.756 0 0 0 .644 1.274l6.188-.896c.665 0 .665-7.329 0-7.329" style="fill:#8478dd"/>
    <path d="M160.3 80.5a12.3 12.3 0 0 1 .329-2.394 10.5 10.5 0 0 1 .826-2.261 9.5 9.5 0 0 1 1.302-1.96 6.7 6.7 0 0 1 1.764-1.463 3.5 3.5 0 0 1 1.757-.567 1.93 1.93 0 0 1 1.302.455 2.87 2.87 0 0 1 .826 1.309 6.8 6.8 0 0 1 .329 2.009v3.703a11.2 11.2 0 0 1-.329 2.387 11 11 0 0 1-.826 2.275 9 9 0 0 1-1.302 1.96 7 7 0 0 1-1.757 1.456 3.7 3.7 0 0 1-1.764.581 1.93 1.93 0 0 1-1.302-.455 3 3 0 0 1-.826-1.33 7.4 7.4 0 0 1-.329-2.002zm5.936.168v-3.493a3.5 3.5 0 0 0-.14-.875 1.3 1.3 0 0 0-.329-.574.75.75 0 0 0-.518-.21 1.4 1.4 0 0 0-.7.231 3.2 3.2 0 0 0-.7.609 4 4 0 0 0-.518.812 4.7 4.7 0 0 0-.322.952 6.3 6.3 0 0 0-.147 1.036v3.5a2.36 2.36 0 0 0 .469 1.456c.273.301.7.287 1.253-.035a2.9 2.9 0 0 0 1.239-1.4 5.6 5.6 0 0 0 .42-1.995Zm10.99-6.986v1.603a9 9 0 0 1-.301 2.044 10 10 0 0 1-.742 1.96 8.4 8.4 0 0 1-1.141 1.687 5.8 5.8 0 0 1-1.498 1.239 3.15 3.15 0 0 1-1.491.49 1.75 1.75 0 0 1-1.148-.371 2.56 2.56 0 0 1-.742-1.099 5.3 5.3 0 0 1-.294-1.708v-1.603a8.8 8.8 0 0 1 .28-2.037 9.6 9.6 0 0 1 .756-1.96 8.4 8.4 0 0 1 1.148-1.708 5.8 5.8 0 0 1 1.491-1.246 3.1 3.1 0 0 1 1.498-.476 1.82 1.82 0 0 1 1.148.378 2.45 2.45 0 0 1 .742 1.099 5.6 5.6 0 0 1 .294 1.708m-4.9 4.34a1.33 1.33 0 0 0 .378 1.022c.217.175.511.154.868-.056a2.3 2.3 0 0 0 .875-.952 3.5 3.5 0 0 0 .371-1.449v-1.4a1.4 1.4 0 0 0-.371-1.022.75.75 0 0 0-.875.056 2.3 2.3 0 0 0-.868.952 3.5 3.5 0 0 0-.378 1.456v.7c0 .245-.042.497-.028.693Zm10.416-1.113a2.5 2.5 0 0 1-.7.273 1.2 1.2 0 0 1-.511 0 .95.95 0 0 1-.364-.189 2 2 0 0 1-.245-.266v4.431a1.05 1.05 0 0 1-.112.462.7.7 0 0 1-.252.315l-1.708.98a.19.19 0 0 1-.252 0 .44.44 0 0 1-.112-.336V68.887a1 1 0 0 1 .112-.455.67.67 0 0 1 .252-.315l1.645-.917a.193.193 0 0 1 .259 0 .46.46 0 0 1 .105.336v.476l.266-.588a3.5 3.5 0 0 1 .35-.609 5 5 0 0 1 .511-.588 4 4 0 0 1 .756-.546 2.56 2.56 0 0 1 1.148-.385 1.26 1.26 0 0 1 .945.329 2.45 2.45 0 0 1 .658 1.106 6.7 6.7 0 0 1 .273 1.967v1.687a10.5 10.5 0 0 1-.273 2.282 9 9 0 0 1-.658 1.869 6 6 0 0 1-.945 1.4 4.9 4.9 0 0 1-1.148.973m.609-5.39a9 9 0 0 0 0-1.169 2.1 2.1 0 0 0-.315-1.085q-.273-.392-.903 0a1.8 1.8 0 0 0-.518.441 3 3 0 0 0-.357.595 4 4 0 0 0-.224.658 4.6 4.6 0 0 0-.105.7v.742a7 7 0 0 0 0 .7 2.6 2.6 0 0 0 .105.546 1.2 1.2 0 0 0 .224.399.53.53 0 0 0 .357.175.9.9 0 0 0 .518-.147 2.1 2.1 0 0 0 .903-1.064 4.7 4.7 0 0 0 .315-1.491m7.693-2.863q0-.231-.105-.294a.46.46 0 0 0-.343 0 5 5 0 0 0-.644.203 18 18 0 0 1-.994.322 1.49 1.49 0 0 1-1.582-.252 2.75 2.75 0 0 1-.553-1.967 4.9 4.9 0 0 1 .231-1.449 6.5 6.5 0 0 1 .644-1.4 6.7 6.7 0 0 1 .994-1.295 6 6 0 0 1 1.295-1.008 3.7 3.7 0 0 1 1.295-.49 2.1 2.1 0 0 1 1.029.077 1.3 1.3 0 0 1 .7.539 1.75 1.75 0 0 1 .273.889.9.9 0 0 1-.098.455.75.75 0 0 1-.266.322l-1.61.924c-.098.063-.175.07-.231.035l-.21-.105a.63.63 0 0 0-.322-.049 1.4 1.4 0 0 0-.546.217 1.8 1.8 0 0 0-.518.434.88.88 0 0 0-.21.567.53.53 0 0 0 .063.315q.07.084.273.042a4 4 0 0 0 .567-.175l.959-.322c.819-.266 1.4-.182 1.792.245a2.8 2.8 0 0 1 .56 1.89 5.3 5.3 0 0 1-.224 1.456 6.7 6.7 0 0 1-.7 1.477 7.4 7.4 0 0 1-1.085 1.4 7 7 0 0 1-1.442 1.106 4 4 0 0 1-1.4.539 1.9 1.9 0 0 1-1.036-.119 1.47 1.47 0 0 1-.644-.588 1.9 1.9 0 0 1-.245-.875.9.9 0 0 1 .098-.455.8.8 0 0 1 .266-.322l1.673-.966c.105-.056.175-.063.217 0a2 2 0 0 0 .175.147.6.6 0 0 0 .315.07 1.5 1.5 0 0 0 .609-.238 2.8 2.8 0 0 0 .7-.574 1 1 0 0 0 .28-.728m6.097-5.306a1.05 1.05 0 0 1-.112.455.67.67 0 0 1-.252.315l-1.708.98a.18.18 0 0 1-.252 0 .44.44 0 0 1-.112-.336v-8.981a1.05 1.05 0 0 1 .112-.462.67.67 0 0 1 .252-.315l1.708-.98a.18.18 0 0 1 .252 0 .44.44 0 0 1 .112.336Zm0 4.473a1 1 0 0 1-.112.455.67.67 0 0 1-.252.315l-1.708.987a.19.19 0 0 1-.252 0 .42.42 0 0 1-.112-.329v-2.1a1.05 1.05 0 0 1 .112-.455.67.67 0 0 1 .252-.315l1.708-.987a.19.19 0 0 1 .252 0 .44.44 0 0 1 .112.336Z" style="fill:#455a64"/>
</svg> 